<?xml version="1.0" encoding="utf-8"?>
<!-- Generator: Adobe Illustrator 16.0.0, SVG Export Plug-In . SVG Version: 6.00 Build 0)  -->
<!DOCTYPE svg PUBLIC "-//W3C//DTD SVG 1.1//EN" "http://www.w3.org/Graphics/SVG/1.1/DTD/svg11.dtd">
<svg version="1.1" id="Layer_1" xmlns="http://www.w3.org/2000/svg" xmlns:xlink="http://www.w3.org/1999/xlink" x="0px" y="0px"
	 width="50px" height="50px" viewBox="0 0 50 50" enable-background="new 0 0 50 50" xml:space="preserve">
<g>
	<g>
		<polygon points="27.11,38.056 26.831,37.784 22.063,35.326 9.634,28.795 10.099,27.91 27.174,36.842 41.269,28.18 41.792,29.031 
					"/>
	</g>
	<g>
		<rect x="7.97" y="22" width="1" height="0.27"/>
	</g>
	<g>
		<rect x="7.97" y="21.08" width="1" height="6.9"/>
	</g>
	<g>
		<rect x="26.66" y="30.86" width="1" height="6.93"/>
	</g>
	<g>
		<rect x="41.03" y="22.92" width="1" height="5.68"/>
	</g>
	<g>
		<rect x="8.393" y="27.516" transform="matrix(0.9014 0.433 -0.433 0.9014 13.0362 -1.2068)" width="1.549" height="1.001"/>
	</g>
</g>
<g>
	<g>
		<path d="M27.851,29.099l-0.238-0.232l-3.622-1.852L5.803,17.436l18.085-7.675l21.109,9.384L27.851,29.099z M8.134,17.533
			l19.788,10.368l14.879-8.638l-18.922-8.413L8.134,17.533z"/>
	</g>
	<g>
		<polygon points="27.858,31.91 27.579,31.638 22.062,28.789 7.721,21.254 8.186,20.369 27.926,30.695 44.224,20.678 44.748,21.529 
					"/>
	</g>
	<g>
		<rect x="5.841" y="17.484" width="1" height="2.901"/>
	</g>
	<g>
		<rect x="27.408" y="28.289" width="1" height="3.41"/>
	</g>
	<g>
		<rect x="43.984" y="19.129" width="1" height="1.974"/>
	</g>
	<g>
		<rect x="6.253" y="19.924" transform="matrix(0.9011 0.4335 -0.4335 0.9011 9.5605 -1.0795)" width="1.789" height="0.999"/>
	</g>
</g>
<g>
	<g>
		<polygon points="25.299,48.462 22.603,46.011 23.275,45.271 25.4,47.202 28.665,45.07 29.211,45.908 		"/>
	</g>
	<g>
		<polygon points="22.677,45.958 22.677,35.344 23.677,35.344 23.677,45.795 		"/>
	</g>
	<g>
		<rect x="25.103" y="36.467" width="0.5" height="10.796"/>
	</g>
	<g>
		<polygon points="29.383,45.795 28.383,45.795 28.334,36.386 29.334,36.38 		"/>
	</g>
	<g>
		<rect x="23.17" y="45.455" transform="matrix(0.9021 0.4315 -0.4315 0.9021 22.1128 -5.5614)" width="0.287" height="1"/>
	</g>
</g>
<g>
	<g>
		<polygon points="35.8,41.947 33.104,39.495 33.776,38.755 35.901,40.688 39.166,38.556 39.712,39.394 		"/>
	</g>
	<g>
		<polygon points="33.189,39.427 33.189,39.263 33.262,33.134 34.262,33.146 34.189,39.269 33.689,39.378 34.189,39.378 		"/>
	</g>
	<g>
		<rect x="35.635" y="32.273" width="0.5" height="8.48"/>
	</g>
	<g>
		<rect x="38.916" y="30.209" width="1" height="9.079"/>
	</g>
	<g>
		<rect x="33.671" y="38.941" transform="matrix(0.9005 0.4349 -0.4349 0.9005 20.5201 -10.7815)" width="0.287" height="1"/>
	</g>
</g>
<g>
	<g>
		<polygon points="13.445,42.209 10.749,39.757 11.422,39.017 13.546,40.949 16.811,38.817 17.357,39.655 		"/>
	</g>
	<g>
		<polygon points="11.337,39.692 10.837,39.692 11.337,39.547 10.837,39.547 10.831,29.122 11.831,29.122 11.837,39.547 		"/>
	</g>
	<g>
		<rect x="13.245" y="30.257" width="0.5" height="10.761"/>
	</g>
	<g>
		<polygon points="17.551,39.547 16.551,39.547 16.551,39.256 16.497,32.112 17.497,32.104 		"/>
	</g>
	<g>
		<rect x="11.316" y="39.202" transform="matrix(0.9018 0.4322 -0.4322 0.9018 18.2841 -1.0535)" width="0.287" height="1.001"/>
	</g>
</g>
<g>
	<path fill="none" stroke="#000000" stroke-miterlimit="10" d="M28.442,50"/>
</g>
<g>
	<path d="M25.394,33.283c0,0.218-0.176,0.394-0.394,0.394l0,0c-0.218,0-0.394-0.176-0.394-0.394l0,0
		c0-0.218,0.176-0.394,0.394-0.394l0,0C25.218,32.89,25.394,33.065,25.394,33.283L25.394,33.283z"/>
</g>
<g>
	<path d="M30.015,33.283c0,0.218-0.176,0.394-0.394,0.394l0,0c-0.218,0-0.394-0.176-0.394-0.394l0,0
		c0-0.218,0.176-0.394,0.394-0.394l0,0C29.839,32.89,30.015,33.065,30.015,33.283L30.015,33.283z"/>
</g>
<g>
	<path d="M39.833,27.311c0,0.218-0.176,0.394-0.394,0.394l0,0c-0.218,0-0.394-0.176-0.394-0.394l0,0
		c0-0.218,0.176-0.394,0.394-0.394l0,0C39.657,26.917,39.833,27.093,39.833,27.311L39.833,27.311z"/>
</g>
<g>
	<path d="M10.479,25.394c0,0.218-0.176,0.394-0.394,0.394l0,0c-0.218,0-0.394-0.176-0.394-0.394l0,0
		c0-0.218,0.176-0.394,0.394-0.394l0,0C10.303,25,10.479,25.176,10.479,25.394L10.479,25.394z"/>
</g>
</svg>
