<?xml version="1.0" encoding="utf-8"?>
<!-- Generator: Adobe Illustrator 16.0.0, SVG Export Plug-In . SVG Version: 6.00 Build 0)  -->
<!DOCTYPE svg PUBLIC "-//W3C//DTD SVG 1.1//EN" "http://www.w3.org/Graphics/SVG/1.1/DTD/svg11.dtd">
<svg version="1.1" id="Layer_1" xmlns="http://www.w3.org/2000/svg" xmlns:xlink="http://www.w3.org/1999/xlink" x="0px" y="0px"
	 width="50px" height="50px" viewBox="0 0 50 50" enable-background="new 0 0 50 50" xml:space="preserve">
<g>
	<g>
		<g>
			<path d="M3.233,19.552l-1.031-0.746c-0.101-0.008-0.215-0.04-0.387-0.108c-0.578-0.231-1.357-0.675-1.391-0.693l-0.29-0.166
				l0.042-0.331c0.006-0.043,0.142-1.063,0.917-1.839c0.396-0.396,0.773-0.574,1.068-0.651v-0.842L0.99,13.046l1.172,0.555v-0.374
				l0.722,0.357c0.14,0.069,0.455,0.339,0.938,0.801c0.212,0.095,0.444,0.178,0.668,0.258c0.725,0.261,1.408,0.506,1.437,1.136
				c0.009,0.218,0.003,0.424-0.016,0.619l0.171,0.164l-0.179-0.085c-0.2,1.742-1.438,2.551-2.01,2.835
				c-0.254,0.124-0.425,0.173-0.425,0.173L3.233,19.552z M2.404,17.717l0.994,0.723c0.017-0.008,0.033-0.017,0.052-0.025
				c0.555-0.275,1.465-0.948,1.479-2.397l-0.085-0.04l-0.098,0.235l-0.339,0.003c-0.195,0-0.808-0.433-1.246-0.865v0.729
				l-0.598-0.119c-0.081,0.003-0.38,0.032-0.764,0.416c-0.307,0.307-0.471,0.68-0.554,0.939c0.265,0.142,0.641,0.335,0.938,0.454
				c0.059,0.022,0.1,0.038,0.128,0.045l-0.006,0.045L2.404,17.717z"/>
			<path d="M3.209,19.688l-1.053-0.762c-0.104-0.013-0.22-0.047-0.387-0.113c-0.522-0.209-1.202-0.586-1.398-0.696L0,17.905
				l0.053-0.414c0.016-0.115,0.174-1.133,0.952-1.912c0.323-0.322,0.67-0.543,1.032-0.656v-0.695l-1.684-1.621l1.684,0.797v-0.378
				l0.902,0.446c0.151,0.075,0.463,0.34,0.952,0.808c0.2,0.088,0.42,0.167,0.633,0.243c0.74,0.267,1.494,0.537,1.526,1.25
				c0.008,0.197,0.004,0.39-0.011,0.576l0.685,0.657l-0.722-0.343c-0.269,1.698-1.518,2.493-2.055,2.761
				c-0.262,0.127-0.438,0.179-0.446,0.181L3.209,19.688z M0.27,17.771l0.218,0.125c0.199,0.112,0.867,0.482,1.375,0.686
				c0.158,0.063,0.264,0.094,0.35,0.1l0.035,0.003l1.011,0.731l0.176-0.051c0.001-0.001,0.165-0.048,0.404-0.165
				c0.518-0.258,1.745-1.041,1.94-2.737l0.008-0.076c0.018-0.193,0.023-0.396,0.015-0.603c-0.024-0.545-0.639-0.766-1.351-1.021
				c-0.234-0.084-0.466-0.167-0.68-0.263l-0.036-0.024c-0.589-0.564-0.818-0.735-0.906-0.778l-0.541-0.269v0.37l-0.66-0.313
				l0.66,0.637v0.991l-0.094,0.024c-0.353,0.092-0.693,0.301-1.011,0.619c-0.722,0.721-0.867,1.661-0.882,1.767L0.27,17.771z
				 M3.438,18.558l-0.113-0.017l-0.891-0.647L2.116,18.36l0.061-0.462c-0.012-0.004-0.023-0.009-0.036-0.013
				c-0.242-0.098-0.562-0.252-0.952-0.461l-0.092-0.049l0.031-0.1c0.087-0.271,0.259-0.664,0.584-0.99
				c0.381-0.381,0.695-0.446,0.848-0.452l0.478,0.093v-0.876l0.213,0.21c0.464,0.458,1.032,0.829,1.158,0.829l0.255-0.002
				l0.116-0.28l0.276,0.13l-0.001,0.08c-0.016,1.521-0.977,2.225-1.549,2.509L3.438,18.558z M2.374,17.54l1.037,0.754
				c0.478-0.24,1.242-0.802,1.374-1.957L4.409,16.34c-0.229,0-0.737-0.363-1.122-0.703v0.594L2.54,16.082
				c-0.064,0.005-0.318,0.049-0.65,0.382c-0.254,0.253-0.403,0.555-0.49,0.79c0.337,0.178,0.623,0.314,0.833,0.398
				c0.019,0.008,0.036,0.014,0.051,0.02L2.374,17.54z"/>
		</g>
	</g>
	<g>
		<g>
			<path d="M27.61,33.327c-3.432,0-6.534-0.549-9.412-1.659c-1.446-0.558-2.883-1.111-4.174-1.918
				c-1.198-0.748-4.104-2.698-5.218-4.638c-0.356-0.621-0.54-1.288-0.718-1.933c-0.205-0.743-0.398-1.445-0.837-2.019
				c-0.954-1.245-2.738-1.854-4.083-1.904l0.037-1c1.928,0.073,3.827,0.974,4.84,2.297c0.558,0.728,0.786,1.558,1.007,2.36
				c0.168,0.611,0.327,1.189,0.621,1.7c1.029,1.792,3.995,3.735,4.88,4.288c1.211,0.756,2.602,1.292,3.946,1.81
				c3.686,1.423,7.7,1.896,12.325,1.46c2.939-0.275,6.072-1.013,9.577-2.256c0.07-0.021,4.957-1.546,7.149-4.99
				c0.724-0.86,1.681-2.431,1.342-3.213c-0.212-0.49-0.991-0.63-1.608-0.661c-1.293-0.048-2.806,0.722-4.133,1.415
				c-0.556,0.291-1.081,0.565-1.589,0.782c-4.57,1.952-9.936,2.14-16.883,0.593c-1.479-0.329-3.035-0.748-4.895-1.317
				C14.133,20.793,8.75,18.11,5.193,16.242l0.465-0.885c3.521,1.849,8.848,4.504,14.421,6.21c1.834,0.563,3.365,0.975,4.818,1.298
				c6.735,1.501,11.906,1.33,16.273-0.536c0.472-0.201,0.979-0.467,1.519-0.748c1.44-0.753,3.065-1.611,4.646-1.527
				c1.309,0.065,2.142,0.49,2.476,1.263c0.693,1.603-1.234,3.94-1.457,4.202c-2.354,3.704-7.425,5.282-7.64,5.348
				c-3.563,1.264-6.773,2.019-9.796,2.302C29.782,33.274,28.68,33.327,27.61,33.327z"/>
			<path d="M27.61,33.452c-3.455,0-6.549-0.546-9.457-1.668c-1.424-0.549-2.895-1.115-4.195-1.928
				c-1.205-0.753-4.131-2.716-5.26-4.682c-0.363-0.634-0.55-1.308-0.729-1.958c-0.204-0.737-0.394-1.427-0.817-1.979
				c-0.93-1.214-2.673-1.807-3.988-1.855l-0.125-0.005l0.047-1.25l0.125,0.005c1.964,0.075,3.9,0.995,4.935,2.346
				c0.572,0.748,0.804,1.59,1.027,2.403c0.166,0.604,0.322,1.173,0.609,1.671c1.016,1.769,3.96,3.696,4.838,4.244
				c1.204,0.752,2.587,1.284,3.925,1.8c2.803,1.082,5.77,1.607,9.07,1.607c1.026,0,2.102-0.052,3.198-0.155
				c2.932-0.275,6.055-1.011,9.547-2.25c0.055-0.017,4.919-1.534,7.086-4.939c0.688-0.819,1.647-2.37,1.333-3.096
				c-0.146-0.336-0.679-0.545-1.5-0.586c-0.036-0.001-0.073-0.002-0.11-0.002c-1.273,0-2.763,0.777-3.959,1.402
				c-0.529,0.278-1.077,0.564-1.598,0.787c-2.575,1.1-5.369,1.635-8.541,1.635c-2.536,0-5.289-0.339-8.418-1.035
				c-1.48-0.329-3.038-0.749-4.903-1.32c-5.67-1.736-11.057-4.422-14.615-6.291l-0.11-0.058l0.581-1.106l0.11,0.059
				c3.519,1.847,8.838,4.498,14.399,6.201c1.827,0.56,3.355,0.972,4.81,1.295c3.036,0.677,5.7,1.006,8.143,1.006
				c3.003,0,5.638-0.502,8.055-1.535c0.46-0.196,0.958-0.456,1.485-0.731l0.065-0.034c1.368-0.715,2.918-1.525,4.446-1.525
				c0.074,0,0.148,0.002,0.224,0.006c1.359,0.068,2.229,0.519,2.583,1.338c0.725,1.674-1.249,4.065-1.477,4.333
				c-2.367,3.728-7.481,5.32-7.698,5.386c-3.572,1.268-6.786,2.022-9.82,2.307C29.799,33.398,28.682,33.452,27.61,33.452z
				 M3.299,19.138c1.356,0.083,3.102,0.707,4.053,1.947C7.804,21.677,8,22.39,8.209,23.144c0.177,0.643,0.358,1.301,0.706,1.906
				c1.101,1.917,3.986,3.852,5.176,4.594c1.28,0.801,2.739,1.363,4.15,1.907c2.881,1.111,5.945,1.651,9.369,1.651
				c1.063,0,2.173-0.054,3.297-0.158c3.014-0.283,6.208-1.033,9.766-2.296c0.219-0.066,5.248-1.632,7.576-5.297
				c0.228-0.269,2.111-2.551,1.448-4.085c-0.314-0.726-1.11-1.125-2.367-1.188c-0.071-0.004-0.141-0.006-0.211-0.006
				c-1.467,0-2.988,0.796-4.33,1.497l-0.042,0.021c-0.556,0.29-1.058,0.553-1.527,0.753c-2.448,1.046-5.114,1.555-8.152,1.555
				c-2.461,0-5.143-0.331-8.197-1.012c-1.46-0.325-2.994-0.738-4.828-1.301c-5.523-1.69-10.805-4.312-14.331-6.16l-0.349,0.663
				c3.55,1.861,8.869,4.503,14.46,6.216c1.859,0.569,3.412,0.986,4.886,1.314c3.11,0.692,5.846,1.029,8.363,1.029
				c3.138,0,5.899-0.528,8.443-1.615c0.511-0.218,1.055-0.503,1.58-0.777c1.221-0.638,2.739-1.432,4.074-1.432
				c0.041,0,0.081,0.001,0.121,0.002c0.653,0.033,1.481,0.188,1.718,0.736c0.391,0.9-0.719,2.581-1.36,3.343
				c-2.207,3.469-7.159,5.015-7.209,5.029c-3.507,1.244-6.649,1.984-9.602,2.261c-1.104,0.104-2.188,0.157-3.222,0.157
				c-3.332,0-6.328-0.531-9.16-1.625c-1.349-0.519-2.743-1.056-3.968-1.819c-0.891-0.557-3.877-2.514-4.922-4.332
				c-0.303-0.525-0.463-1.11-0.633-1.729c-0.218-0.791-0.442-1.608-0.986-2.317c-0.968-1.266-2.771-2.137-4.62-2.242L3.299,19.138z"
				/>
		</g>
	</g>
	<g>
		<g>
			<path d="M32.889,26.426c-4.596,0-9.115-1.176-13.027-2.376c-5.203-1.598-9.719-3.981-13.703-6.085l-0.959-0.506l0.232-0.443
				l0.96,0.507c3.965,2.093,8.459,4.466,13.616,6.049c4.502,1.382,9.816,2.728,15.082,2.258c4.544-0.409,8.67-2.514,12.659-4.55
				l0.996-0.507l0.227,0.445l-0.996,0.507c-4.031,2.058-8.2,4.185-12.841,4.603C34.386,26.395,33.636,26.426,32.889,26.426z"/>
			<path d="M32.889,26.551c-4.672,0-9.226-1.204-13.064-2.382c-5.215-1.601-9.735-3.987-13.725-6.094L5.03,17.512l0.349-0.665
				l1.071,0.565c3.967,2.094,8.452,4.461,13.595,6.04c3.782,1.16,8.267,2.348,12.852,2.348c0.742,0,1.477-0.032,2.183-0.095
				c4.522-0.408,8.636-2.507,12.613-4.537l1.107-0.563l0.34,0.668l-1.107,0.563c-4.041,2.063-8.22,4.195-12.887,4.615
				C34.415,26.518,33.655,26.551,32.889,26.551z M5.368,17.406l0.849,0.448c3.979,2.101,8.488,4.481,13.682,6.076
				c3.82,1.172,8.352,2.37,12.99,2.37c0.759,0,1.511-0.033,2.235-0.098c4.618-0.416,8.775-2.538,12.795-4.59l0.885-0.45L48.69,20.94
				l-0.885,0.45c-3.998,2.041-8.133,4.151-12.705,4.563c-0.713,0.064-1.455,0.097-2.204,0.097c-4.618,0-9.125-1.192-12.926-2.359
				c-5.164-1.585-9.661-3.958-13.628-6.053l-0.858-0.453L5.368,17.406z"/>
		</g>
	</g>
</g>
</svg>
