<?xml version="1.0" encoding="utf-8"?>
<!-- Generator: Adobe Illustrator 16.0.0, SVG Export Plug-In . SVG Version: 6.00 Build 0)  -->
<!DOCTYPE svg PUBLIC "-//W3C//DTD SVG 1.1//EN" "http://www.w3.org/Graphics/SVG/1.1/DTD/svg11.dtd">
<svg version="1.1" id="Layer_1" xmlns="http://www.w3.org/2000/svg" xmlns:xlink="http://www.w3.org/1999/xlink" x="0px" y="0px"
	 width="50px" height="50px" viewBox="0 0 50 50" enable-background="new 0 0 50 50" xml:space="preserve">
<g>
	<g>
		<path d="M25.085,33.306c-12.844,0-22.904-5.573-22.904-12.689S12.241,7.927,25.085,7.927c12.841,0,22.901,5.573,22.901,12.689
			S37.926,33.306,25.085,33.306z M25.085,10.403c-11.073,0-20.428,4.676-20.428,10.213s9.354,10.215,20.428,10.215
			c11.07,0,20.427-4.678,20.427-10.215S36.155,10.403,25.085,10.403z"/>
	</g>
	<g>
		<path d="M25.071,44.448c-12.615,0-22.879-9.508-22.879-21.193c0-0.627,0.026-1.222,0.109-1.848
			c0.128-1.596,0.476-3.211,1.03-4.739l2.326,0.842c-0.478,1.322-0.778,2.72-0.895,4.158c-0.072,0.578-0.095,1.071-0.095,1.587
			c0,10.319,9.153,18.717,20.402,18.717c11.277,0,20.452-8.397,20.452-18.717c0-0.535-0.021-1.043-0.07-1.577
			c-0.138-1.443-0.441-2.853-0.901-4.186l2.339-0.808c0.523,1.517,0.87,3.119,1.029,4.767c0.053,0.616,0.08,1.196,0.08,1.804
			C48,34.94,37.714,44.448,25.071,44.448z"/>
	</g>
</g>
</svg>
