<?xml version="1.0" encoding="utf-8"?>
<!-- Generator: Adobe Illustrator 16.0.0, SVG Export Plug-In . SVG Version: 6.00 Build 0)  -->
<!DOCTYPE svg PUBLIC "-//W3C//DTD SVG 1.1//EN" "http://www.w3.org/Graphics/SVG/1.1/DTD/svg11.dtd">
<svg version="1.1" id="Layer_1" xmlns="http://www.w3.org/2000/svg" xmlns:xlink="http://www.w3.org/1999/xlink" x="0px" y="0px"
	 width="50px" height="50px" viewBox="0 0 50 50" enable-background="new 0 0 50 50" xml:space="preserve">
<g>
	<g>
		<path d="M19.254,28.244C19.253,28.244,19.253,28.244,19.254,28.244c-1.5,0-2.914-0.629-4.281-1.237l-0.634-0.279
			c-2.495-1.08-5.109-1.955-7.791-2.83c-1.534-0.501-2.89-1.322-3.817-2.313l-0.35-0.372L2.6,20.751
			c1.208-2.551,3.366-2.889,5.454-3.216c0.346-0.054,0.697-0.108,1.05-0.175c1.919-0.359,3.675-1.151,5.533-1.989
			c2.154-0.972,4.383-1.978,6.893-2.252c2.004-0.221,3.554-0.514,5.084-1.295c1.822-0.93,3.82-1.79,6.088-1.79
			c1.022,0,2.063,0.166,3.181,0.509c1.17,0.357,2.337,0.681,3.508,1.005c0.564,0.156,1.13,0.313,1.697,0.474
			c0.074,0.021,7.394,2.18,7.207,5.125c-0.051,0.828-0.813,1.117-1.487,1.372c-0.344,0.13-0.734,0.277-1.095,0.495
			c-1.666,1.004-3.584,1.495-5.439,1.97c-1.653,0.424-3.214,0.823-4.616,1.553c-0.437,0.228-0.864,0.473-1.291,0.718
			c-1.099,0.63-2.234,1.281-3.53,1.647c-1.159,0.327-2.237,0.503-3.28,0.672c-1.994,0.324-3.716,0.604-5.564,1.833
			C21.155,27.962,20.234,28.244,19.254,28.244z M4.209,20.931c0.734,0.645,1.71,1.184,2.805,1.541
			c2.716,0.887,5.366,1.773,7.921,2.879l0.647,0.285c1.225,0.545,2.491,1.108,3.671,1.108h0.001c0.689,0,1.313-0.192,1.906-0.587
			c2.117-1.408,4.078-1.727,6.153-2.064c1.002-0.163,2.037-0.331,3.113-0.635c1.118-0.316,2.125-0.894,3.192-1.505
			c0.444-0.256,0.89-0.511,1.344-0.747c1.556-0.81,3.275-1.25,4.938-1.676c1.831-0.469,3.56-0.911,5.037-1.801
			c0.477-0.288,0.954-0.469,1.338-0.614c0.166-0.063,0.377-0.143,0.507-0.207c-0.252-0.994-3.488-2.702-6.104-3.443
			c-0.565-0.16-1.128-0.316-1.689-0.472c-1.184-0.328-2.363-0.654-3.546-1.016c-3.031-0.931-5.33-0.255-8.148,1.183
			c-1.921,0.98-3.82,1.254-5.602,1.449c-2.273,0.25-4.298,1.162-6.44,2.129c-1.857,0.838-3.777,1.704-5.874,2.097
			c-0.367,0.068-0.732,0.126-1.094,0.183C6.527,19.293,5.105,19.516,4.209,20.931z"/>
	</g>
	<g>
		<path d="M19.336,43.323c-1.533,0-3.112-0.983-4.644-1.937c-0.891-0.554-1.731-1.078-2.412-1.298
			c-0.938-0.305-1.784-0.728-2.603-1.136c-0.979-0.488-1.903-0.949-2.939-1.199c-0.136-0.033-0.311-0.069-0.513-0.111
			c-1.612-0.334-4.05-0.838-4.373-2.453l1.471-0.295c0.059,0.293,0.663,0.753,3.207,1.279c0.222,0.046,0.413,0.086,0.561,0.122
			c1.201,0.289,2.246,0.811,3.257,1.315c0.805,0.401,1.563,0.78,2.396,1.05c0.854,0.277,1.771,0.848,2.742,1.452
			c1.354,0.843,2.887,1.79,4.015,1.703c1.075-0.091,2.312-0.815,3.507-1.518c0.689-0.404,1.342-0.787,1.972-1.056l0.993-0.424
			c2.287-0.979,4.094-1.751,6.595-2.6c1.129-0.383,2.15-0.99,3.231-1.633c0.47-0.279,0.94-0.559,1.42-0.819
			c1.449-0.788,3.125-1.421,5.273-1.991c0.187-0.05,0.428-0.104,0.705-0.164c0.993-0.218,3.631-0.798,3.564-1.729l1.496-0.107
			c0.159,2.227-3.027,2.926-4.738,3.302c-0.253,0.056-0.474,0.104-0.644,0.148c-2.028,0.539-3.599,1.13-4.94,1.86
			c-0.463,0.251-0.917,0.521-1.37,0.791c-1.101,0.653-2.238,1.329-3.516,1.763c-2.446,0.83-4.229,1.593-6.487,2.559l-0.995,0.426
			c-0.542,0.23-1.153,0.589-1.801,0.969c-1.277,0.75-2.726,1.6-4.14,1.718C19.529,43.319,19.433,43.323,19.336,43.323z"/>
	</g>
	<g>
		<path d="M2.368,36.055c-1.21-0.403-0.784-1.89-0.53-2.778c0.062-0.215,0.123-0.401,0.134-0.522
			c0.023-0.45,0.095-0.968,0.169-1.501c0.115-0.83,0.234-1.689,0.16-2.304c-0.112-0.922,0.01-1.791,0.128-2.632
			c0.037-0.263,0.074-0.526,0.104-0.792c0.159-1.435-0.002-4.382-0.004-4.411l1.498-0.084c0.007,0.126,0.169,3.104-0.004,4.661
			c-0.031,0.279-0.069,0.558-0.108,0.834c-0.109,0.779-0.213,1.516-0.125,2.242c0.099,0.809-0.034,1.766-0.163,2.691
			c-0.067,0.488-0.135,0.962-0.156,1.375c-0.012,0.236-0.091,0.51-0.189,0.855c-0.088,0.309-0.271,0.949-0.226,1.146
			c-0.012-0.05-0.086-0.161-0.212-0.203L2.368,36.055z"/>
	</g>
	<g>
		<path d="M18.348,43.164c-0.019-0.069-0.439-1.729,0.006-3.253c0.502-1.721,0.297-3.529,0.115-5.125
			c-0.115-1.017-0.225-1.978-0.157-2.857c0.082-1.065,0.281-1.776,0.44-2.348c0.181-0.645,0.311-1.11,0.233-1.887l1.492-0.148
			c0.105,1.057-0.082,1.729-0.28,2.439c-0.157,0.561-0.319,1.141-0.39,2.059c-0.057,0.737,0.044,1.629,0.151,2.572
			c0.197,1.736,0.421,3.705-0.166,5.715c-0.327,1.121,0.003,2.444,0.007,2.457L18.348,43.164z"/>
	</g>
	<g>
		<path d="M48.059,30.388l-1.248-0.834c0.698-1.045,0.338-2.737,0.021-4.23c-0.098-0.457-0.189-0.892-0.249-1.285
			c-0.147-0.989,0.024-2.1,0.19-3.174c0.271-1.741,0.525-3.386-0.409-4.551l1.17-0.939c1.349,1.682,1.016,3.827,0.722,5.721
			c-0.156,1.007-0.304,1.958-0.188,2.721c0.055,0.366,0.141,0.771,0.231,1.196C48.659,26.706,49.108,28.816,48.059,30.388z"/>
	</g>
</g>
</svg>
