<?xml version="1.0" encoding="utf-8"?>
<!-- Generator: Adobe Illustrator 16.0.0, SVG Export Plug-In . SVG Version: 6.00 Build 0)  -->
<!DOCTYPE svg PUBLIC "-//W3C//DTD SVG 1.1//EN" "http://www.w3.org/Graphics/SVG/1.1/DTD/svg11.dtd">
<svg version="1.1" id="Layer_1" xmlns="http://www.w3.org/2000/svg" xmlns:xlink="http://www.w3.org/1999/xlink" x="0px" y="0px"
	 width="50px" height="50px" viewBox="0 0 50 50" enable-background="new 0 0 50 50" xml:space="preserve">
<g>
	<g>
		<g>
			<path d="M12.93,37.717c-2.732,0-5.176-0.838-7.04-2.447c-2.137-1.843-3.283-4.529-3.228-7.564
				c0.068-3.784,2.237-10.031,7.763-10.687c2.979-0.36,5.652,1.04,8.237,2.39c1.847,0.962,3.757,1.959,5.712,2.261
				c-0.037-0.008,7.633-0.108,14.882-3.916c0.458-0.242,0.598-0.994,0.733-1.72c0.053-0.286,0.105-0.56,0.172-0.801
				c0.215-0.781,0.755-1.442,1.444-1.77c0.589-0.281,1.242-0.294,1.835-0.035c1.604,0.701,1.614,2.252,1.354,3.551
				c0.976,0.307,2.096,0.801,2.446,2.137c0.384,1.461-0.395,2.89-1.853,3.396c-1.108,0.384-1.958-0.014-2.64-0.335
				c-0.407-0.19-0.761-0.358-1.145-0.377c-5.415,1.262-9.716,3.359-14.269,5.579l-1.53,0.743c-1.639,0.792-2.818,2.431-4.068,4.163
				c-1.675,2.323-3.407,4.726-6.435,5.23C14.493,37.65,13.7,37.717,12.93,37.717z M11.376,18.394c-0.259,0-0.52,0.015-0.783,0.045
				c-4.623,0.55-6.44,5.991-6.5,9.293c-0.047,2.602,0.922,4.894,2.731,6.455c2.062,1.779,4.992,2.461,8.243,1.918
				c2.446-0.409,3.934-2.472,5.509-4.656c1.298-1.802,2.64-3.663,4.605-4.614l1.526-0.742c4.653-2.267,9.047-4.409,14.661-5.705
				l0.159-0.019c0.002,0,0.004,0,0.007,0c0.731,0,1.311,0.272,1.824,0.514c0.642,0.3,1.029,0.459,1.56,0.278
				c0.746-0.26,1.133-0.952,0.941-1.682c-0.157-0.597-0.645-0.86-1.426-1.113l-0.004,0.011l-1.375-0.394l0.058-0.201
				c0.493-1.688,0.6-2.674-0.242-3.041c-0.213-0.094-0.433-0.089-0.647,0.014c-0.31,0.148-0.577,0.484-0.68,0.857
				c-0.057,0.207-0.1,0.44-0.145,0.684c-0.178,0.962-0.4,2.16-1.474,2.725c-7.568,3.975-15.326,4.07-15.652,4.072
				c-2.304-0.347-4.32-1.397-6.27-2.415C15.757,19.505,13.624,18.394,11.376,18.394z"/>
			<path d="M12.93,37.967c-2.813,0-5.303-0.867-7.204-2.508c-2.193-1.893-3.371-4.647-3.314-7.759
				c0.07-3.868,2.299-10.256,7.983-10.93c0.324-0.039,0.657-0.06,0.987-0.06c2.653,0,5.052,1.253,7.373,2.464
				c1.855,0.967,3.732,1.943,5.631,2.243l0.026-0.001c1.316-0.048,8.21-0.462,14.728-3.886c0.351-0.185,0.485-0.905,0.604-1.541
				c0.054-0.296,0.108-0.577,0.177-0.824c0.234-0.85,0.824-1.571,1.577-1.929c0.652-0.311,1.385-0.325,2.043-0.039
				c1.33,0.582,1.847,1.796,1.54,3.61c1.018,0.345,2.052,0.904,2.402,2.243c0.418,1.591-0.428,3.146-2.013,3.696
				c-0.329,0.113-0.662,0.171-0.991,0.171c-0.742,0.001-1.349-0.286-1.837-0.516c-0.381-0.179-0.699-0.327-1.018-0.352
				c-5.368,1.255-9.645,3.341-14.172,5.548l-1.538,0.747c-1.578,0.763-2.737,2.369-3.964,4.069c-1.715,2.38-3.478,4.824-6.607,5.347
				C14.528,37.898,13.716,37.967,12.93,37.967z M11.383,17.211c-0.311,0-0.623,0.019-0.928,0.056
				C5.085,17.903,2.979,24.01,2.912,27.71c-0.054,2.96,1.062,5.577,3.141,7.37c1.808,1.562,4.186,2.387,6.877,2.387
				c0.759,0,1.543-0.066,2.332-0.198c2.926-0.487,4.627-2.848,6.273-5.13c1.276-1.769,2.471-3.425,4.162-4.242l1.53-0.742
				c4.571-2.229,8.882-4.33,14.321-5.598l0.034-0.008l0.035,0.001c0.428,0.021,0.814,0.201,1.223,0.393
				c0.483,0.228,1.011,0.478,1.641,0.477c0.277,0,0.547-0.047,0.827-0.144c1.332-0.463,2.043-1.765,1.693-3.097
				c-0.313-1.192-1.28-1.647-2.28-1.962l-0.214-0.067l0.044-0.22c0.344-1.722-0.04-2.762-1.209-3.272
				c-0.525-0.229-1.107-0.217-1.627,0.031c-0.625,0.297-1.115,0.898-1.311,1.61c-0.065,0.235-0.116,0.501-0.167,0.779
				c-0.147,0.787-0.298,1.598-0.863,1.896c-6.365,3.344-13.08,3.858-14.767,3.936l-0.004,0.048l-0.266-0.041
				c-1.989-0.307-3.912-1.309-5.771-2.276C16.257,18.435,13.913,17.211,11.383,17.211z M12.935,36.536
				c-2.466,0-4.635-0.747-6.273-2.16c-1.866-1.611-2.867-3.972-2.818-6.649c0.062-3.385,1.942-8.968,6.721-9.536
				c0.269-0.031,0.542-0.047,0.812-0.047c2.314,0,4.464,1.123,6.74,2.312c1.93,1.007,3.926,2.049,6.191,2.39
				c0.285-0.005,7.976-0.096,15.499-4.047c0.967-0.508,1.167-1.592,1.344-2.549c0.051-0.275,0.094-0.502,0.149-0.704
				c0.124-0.446,0.436-0.835,0.813-1.017c0.28-0.132,0.579-0.139,0.856-0.017c1.102,0.48,0.82,1.831,0.394,3.299l0.91,0.261
				l0.003-0.008l0.233,0.063c0.693,0.225,1.386,0.509,1.591,1.288c0.227,0.862-0.226,1.677-1.101,1.981
				c-0.587,0.2-1.046,0.04-1.748-0.288c-0.489-0.229-1.042-0.49-1.718-0.49l-0.137,0.017c-5.549,1.283-9.924,3.414-14.556,5.67
				l-1.55,0.754c-1.911,0.925-3.233,2.761-4.512,4.536c-1.605,2.227-3.123,4.33-5.67,4.756
				C14.373,36.474,13.641,36.536,12.935,36.536z M11.376,18.644c-0.251,0-0.505,0.015-0.754,0.043
				c-4.463,0.531-6.22,5.833-6.279,9.05c-0.046,2.525,0.893,4.749,2.645,6.261c1.993,1.72,4.878,2.39,8.039,1.86
				c2.345-0.392,3.803-2.414,5.347-4.556c1.315-1.825,2.675-3.713,4.699-4.692l1.525-0.742c4.682-2.281,9.082-4.424,14.714-5.724
				l0.187-0.023c0.002,0,0.005,0,0.007,0c0.82,0,1.424,0.284,1.958,0.535c0.599,0.28,0.937,0.416,1.373,0.269
				c0.616-0.215,0.937-0.783,0.78-1.382c-0.108-0.411-0.4-0.646-1.137-0.897l-0.12-0.028l-1.615-0.462l0.126-0.441
				c0.522-1.79,0.497-2.482-0.102-2.743c-0.146-0.065-0.292-0.061-0.439,0.01c-0.244,0.117-0.464,0.397-0.547,0.698
				c-0.052,0.189-0.091,0.402-0.133,0.624c-0.185,1-0.428,2.317-1.61,2.939c-7.629,4.006-15.438,4.099-15.767,4.101
				c-2.387-0.356-4.42-1.417-6.387-2.443C15.665,19.739,13.568,18.644,11.376,18.644z"/>
		</g>
	</g>
	<g>
		<g>
			<path d="M12.934,37.713c-2.737,0-5.186-0.842-7.053-2.454C3.749,33.413,2.607,30.73,2.667,27.7
				c0.063-3.781,2.223-10.026,7.757-10.679c2.977-0.37,5.65,1.038,8.237,2.39c1.847,0.963,3.757,1.961,5.712,2.265
				c-0.013-0.01,1.523-0.038,3.801-0.381l0.213,1.414c-2.447,0.371-4.044,0.39-4.111,0.39c-2.308-0.348-4.326-1.401-6.277-2.42
				c-2.503-1.308-4.871-2.537-7.406-2.237c-4.629,0.547-6.44,5.985-6.495,9.283c-0.053,2.6,0.913,4.89,2.719,6.45
				c2.065,1.785,4.994,2.466,8.255,1.925c2.442-0.405,3.929-2.468,5.502-4.651c1.297-1.8,2.64-3.663,4.602-4.614l1.204-0.584
				c0.979-0.477,1.948-0.947,2.924-1.404l0.607,1.297c-0.971,0.453-1.934,0.921-2.905,1.394l-1.207,0.586
				c-1.636,0.793-2.816,2.431-4.064,4.163c-1.673,2.323-3.405,4.725-6.429,5.227C14.498,37.646,13.704,37.713,12.934,37.713z"/>
			<path d="M12.934,37.963c-2.815,0-5.311-0.87-7.216-2.515c-2.19-1.896-3.362-4.649-3.3-7.753
				c0.064-3.866,2.287-10.251,7.978-10.922c0.329-0.041,0.667-0.062,1.004-0.062c2.636,0,5.024,1.247,7.333,2.454l-0.053,0.255
				l0.115-0.222c1.815,0.946,3.693,1.925,5.592,2.226c0.033-0.004,0.069-0.005,0.107-0.007c1.18-0.06,2.406-0.184,3.644-0.37
				l0.247-0.037l0.288,1.908l-0.247,0.037c-2.518,0.382-4.133,0.393-4.149,0.393c-2.385-0.356-4.42-1.419-6.388-2.445
				c-2.225-1.162-4.321-2.258-6.517-2.258c-0.251,0-0.503,0.015-0.75,0.044c-4.47,0.528-6.221,5.825-6.274,9.039
				c-0.051,2.524,0.884,4.746,2.632,6.257c1.994,1.724,4.878,2.396,8.051,1.867c2.341-0.388,3.798-2.409,5.34-4.55
				c1.318-1.829,2.678-3.716,4.696-4.693l1.203-0.584c0.979-0.478,1.951-0.948,2.928-1.406l0.227-0.105l0.819,1.75l-0.227,0.105
				c-0.97,0.452-1.931,0.92-2.901,1.392l-1.207,0.586c-1.579,0.766-2.741,2.378-3.971,4.084c-1.703,2.364-3.463,4.809-6.591,5.328
				C14.533,37.895,13.721,37.963,12.934,37.963z M11.399,17.212c-0.316,0-0.634,0.02-0.944,0.058
				c-5.377,0.634-7.477,6.736-7.538,10.435c-0.059,2.954,1.052,5.569,3.127,7.365c1.813,1.566,4.195,2.394,6.889,2.394
				c0.759,0,1.544-0.066,2.332-0.198c2.925-0.485,4.624-2.844,6.268-5.126c1.268-1.76,2.466-3.421,4.158-4.241l1.206-0.586
				c0.897-0.437,1.787-0.869,2.682-1.289l-0.395-0.844c-0.899,0.423-1.793,0.856-2.695,1.296l-1.204,0.584
				c-1.904,0.924-3.227,2.758-4.505,4.532c-1.607,2.23-3.123,4.333-5.667,4.756c-3.321,0.549-6.353-0.161-8.46-1.982
				c-1.863-1.61-2.859-3.971-2.805-6.645c0.056-3.383,1.929-8.961,6.715-9.526c0.265-0.031,0.537-0.048,0.808-0.048
				c2.318,0,4.467,1.123,6.743,2.312c1.937,1.011,3.934,2.054,6.199,2.395c-0.015-0.003,1.457-0.014,3.79-0.354l-0.139-0.92
				c-1.154,0.167-2.296,0.279-3.4,0.337l-0.012,0.041l-0.217-0.033c-1.989-0.309-3.912-1.312-5.771-2.28l-0.063-0.033
				C16.245,18.431,13.912,17.212,11.399,17.212z"/>
		</g>
	</g>
	<g>
		<g>
			<polygon points="30.324,25.754 28.893,25.754 28.893,25.446 28.146,24.598 28.287,23.745 27.819,23.041 27.529,21.958 
				28.911,21.587 29.165,22.534 29.801,23.37 29.669,24.162 30.324,24.903 			"/>
			<path d="M30.574,26.004h-1.932v-0.463l-0.763-0.867l0.145-0.872l-0.447-0.696l-0.354-1.324l1.865-0.501l0.306,1.142l0.671,0.883
				l-0.13,0.781l0.639,0.723V26.004z M29.143,25.504h0.932v-0.506l-0.671-0.76l0.134-0.803l-0.614-0.837l-0.188-0.705l-0.899,0.241
				l0.215,0.802l0.5,0.752l-0.138,0.833l0.731,0.83V25.504z"/>
		</g>
	</g>
</g>
</svg>
