<?xml version="1.0" encoding="utf-8"?>
<!-- Generator: Adobe Illustrator 16.0.0, SVG Export Plug-In . SVG Version: 6.00 Build 0)  -->
<!DOCTYPE svg PUBLIC "-//W3C//DTD SVG 1.1//EN" "http://www.w3.org/Graphics/SVG/1.1/DTD/svg11.dtd">
<svg version="1.1" id="Layer_1" xmlns="http://www.w3.org/2000/svg" xmlns:xlink="http://www.w3.org/1999/xlink" x="0px" y="0px"
	 width="50px" height="50px" viewBox="0 0 50 50" enable-background="new 0 0 50 50" xml:space="preserve">
<g>
	<g>
		<g>
			<path d="M22.115,36.98c-10.366,0-15.447-4.588-16.202-5.331c-2.185-0.746-3.528-1.864-3.992-3.325
				c-0.662-2.083,0.747-4.026,0.807-4.107c3.181-4.707,7.863-5.667,9.072-5.84c1.619-3.203,3.762-5.26,6.372-6.117
				c3.599-1.182,6.983,0.257,8.271,0.931l-0.464,0.886c-0.917-0.479-4.165-1.96-7.495-0.866c-2.41,0.791-4.397,2.759-5.907,5.85
				l-0.124,0.254l-0.282,0.025c-0.052,0.005-5.29,0.519-8.626,5.455c-0.023,0.032-1.179,1.641-0.668,3.234
				c0.372,1.161,1.538,2.073,3.466,2.711l0.118,0.039l0.087,0.091c0.061,0.064,6.236,6.354,19.608,4.885l0.109,0.994
				C24.798,36.908,23.415,36.98,22.115,36.98z"/>
		</g>
		<g>
			<path d="M28.77,37.006c-1.41,0-2.933-0.08-4.574-0.259l0.109-0.994c13.351,1.466,18.625-4.026,18.678-4.082l0.087-0.094
				l0.123-0.042c1.91-0.632,3.168-1.617,3.741-2.928c0.83-1.9-0.047-3.868-0.057-3.887c-3.318-4.897-6.146-5.382-6.174-5.386
				l-0.259-0.04l-0.115-0.235c-3.349-6.859-13.409-8.773-20.168-5.904l-0.391-0.92c7.1-3.018,17.662-1.003,21.351,6.172
				c0.849,0.238,3.578,1.317,6.625,5.826c0.085,0.169,1.11,2.47,0.104,4.775c-0.679,1.554-2.101,2.71-4.226,3.438
				C42.929,33.137,38.599,37.006,28.77,37.006z"/>
		</g>
	</g>
	<g opacity="0.1">
		<path d="M23.231,23.02c-2.875,0-5.087-0.42-6.62-1.261l0.12-0.219c2.214,1.213,7.268,2.131,18.78-0.391
			c0.81-0.178,0.812-0.178,0.853-0.061L36.29,21.25l-0.045-0.09l-0.005,0.092c-0.047,0.003-0.324,0.063-0.675,0.141
			C30.617,22.477,26.497,23.02,23.231,23.02z"/>
	</g>
	<g opacity="0.1">
		<path d="M19.634,18.343l-0.224-0.112c0.829-1.654,4.008-2.864,4.143-2.915l0.088,0.234C23.609,15.562,20.418,16.776,19.634,18.343
			z"/>
	</g>
</g>
</svg>
