<?xml version="1.0" encoding="utf-8"?>
<!-- Generator: Adobe Illustrator 16.0.0, SVG Export Plug-In . SVG Version: 6.00 Build 0)  -->
<!DOCTYPE svg PUBLIC "-//W3C//DTD SVG 1.1//EN" "http://www.w3.org/Graphics/SVG/1.1/DTD/svg11.dtd">
<svg version="1.1" id="Layer_1" xmlns="http://www.w3.org/2000/svg" xmlns:xlink="http://www.w3.org/1999/xlink" x="0px" y="0px"
	 width="50px" height="50px" viewBox="0 0 50 50" enable-background="new 0 0 50 50" xml:space="preserve">
<g>
	<g>
		<path d="M25.708,38.177c-3.029,0-5.987-1.349-7.915-3.608c-1.386-1.626-2.895-4.47-2.204-8.783
			c1.226-7.66,5.008-12.233,10.119-12.233c5.346,0,9.225,4.695,10.122,12.254c0.414,3.485-0.485,6.673-2.53,8.975
			C31.382,36.938,28.615,38.177,25.708,38.177z M25.708,14.552c-4.645,0-7.973,4.152-9.131,11.392
			c-0.63,3.937,0.728,6.51,1.978,7.976c1.739,2.04,4.414,3.258,7.153,3.258c2.622,0,5.117-1.115,6.844-3.061
			c1.311-1.475,2.771-4.094,2.284-8.193C33.992,18.803,30.579,14.552,25.708,14.552z"/>
		<path d="M25.708,38.427c-3.101,0-6.131-1.382-8.105-3.696c-1.42-1.666-2.966-4.578-2.261-8.984
			c1.247-7.792,5.122-12.444,10.366-12.444c5.483,0,9.457,4.78,10.37,12.475c0.422,3.558-0.498,6.814-2.591,9.17
			C31.521,37.158,28.687,38.427,25.708,38.427z M25.708,13.802c-4.977,0-8.667,4.494-9.872,12.022
			c-0.675,4.219,0.795,6.996,2.147,8.582c1.88,2.204,4.768,3.521,7.724,3.521c2.835,0,5.535-1.207,7.405-3.313
			c1.997-2.248,2.874-5.365,2.469-8.779C34.701,18.413,30.917,13.802,25.708,13.802z M25.708,37.427
			c-2.813,0-5.558-1.251-7.344-3.346c-1.284-1.506-2.679-4.146-2.035-8.177c1.18-7.374,4.599-11.603,9.378-11.603
			c5.01,0,8.516,4.333,9.376,11.592c0.498,4.192-1.001,6.876-2.345,8.389C30.964,36.28,28.402,37.427,25.708,37.427z M25.708,14.802
			c-4.509,0-7.747,4.075-8.884,11.181c-0.615,3.843,0.706,6.349,1.921,7.774c1.692,1.985,4.295,3.17,6.963,3.17
			c2.551,0,4.978-1.085,6.657-2.977c1.277-1.437,2.698-3.99,2.223-7.998C33.76,18.97,30.44,14.802,25.708,14.802z"/>
	</g>
</g>
</svg>
