<?xml version="1.0" encoding="utf-8"?>
<!-- Generator: Adobe Illustrator 16.0.0, SVG Export Plug-In . SVG Version: 6.00 Build 0)  -->
<!DOCTYPE svg PUBLIC "-//W3C//DTD SVG 1.1//EN" "http://www.w3.org/Graphics/SVG/1.1/DTD/svg11.dtd">
<svg version="1.1" id="Layer_1" xmlns="http://www.w3.org/2000/svg" xmlns:xlink="http://www.w3.org/1999/xlink" x="0px" y="0px"
	 width="50px" height="50px" viewBox="0 0 50 50" enable-background="new 0 0 50 50" xml:space="preserve">
<g>
	<g>
		<path d="M28.26,26.276c-0.99-0.92-1.99-1.59-2.95-2.06c-0.079,0.33-0.159,0.66-0.229,1c0.81,0.43,1.65,1.01,2.5,1.79
			c0.52,0.479,1,0.97,1.439,1.45c0.12-0.391,0.211-0.78,0.271-1.181C28.96,26.937,28.62,26.606,28.26,26.276z M28.26,26.276
			c-0.99-0.92-1.99-1.59-2.95-2.06c-0.079,0.33-0.159,0.66-0.229,1c0.81,0.43,1.65,1.01,2.5,1.79c0.52,0.479,1,0.97,1.439,1.45
			c0.12-0.391,0.211-0.78,0.271-1.181C28.96,26.937,28.62,26.606,28.26,26.276z M30.13,28.177c-0.27-0.3-0.55-0.6-0.84-0.9
			c-0.33-0.34-0.67-0.67-1.03-1c-0.99-0.92-1.99-1.59-2.95-2.06c-0.31-0.16-0.619-0.29-0.92-0.41
			c-1.779-0.67-3.409-0.729-4.659-0.58c-2.95,0.351-5.721,2.061-7.4,4.58c-1.11,1.66-1.7,3.58-1.72,5.53c0,0.38,0.02,0.76,0.05,1.13
			c0.05,0.52,0.149,1.03,0.28,1.54c0.779,2.979,2.93,5.49,6.06,7.09c6.78,3.45,12.84,2.83,15.81-1.61
			c0.49-0.729,0.841-1.5,1.061-2.31c0.1-0.33,0.17-0.66,0.21-1.01C34.51,35.087,33.15,31.587,30.13,28.177z M32.85,39.117
			c-0.189,0.63-0.479,1.229-0.869,1.81c-2.711,4.05-8.141,4.53-14.53,1.28c-3.681-1.88-5.05-4.55-5.54-6.46
			c-0.07-0.261-0.13-0.521-0.17-0.79c-0.061-0.36-0.101-0.73-0.12-1.09c-0.08-1.931,0.45-3.87,1.54-5.511
			c1.53-2.279,4.02-3.819,6.689-4.13c1.15-0.14,2.65-0.08,4.311,0.57c0.3,0.12,0.609,0.26,0.92,0.42c0.81,0.43,1.65,1.01,2.5,1.79
			c0.52,0.479,1,0.97,1.439,1.45c0.28,0.29,0.53,0.569,0.771,0.859c2.6,3.08,3.74,6.12,3.3,8.811
			C33.04,38.467,32.96,38.797,32.85,39.117z M28.26,26.276c-0.99-0.92-1.99-1.59-2.95-2.06c-0.079,0.33-0.159,0.66-0.229,1
			c0.81,0.43,1.65,1.01,2.5,1.79c0.52,0.479,1,0.97,1.439,1.45c0.12-0.391,0.211-0.78,0.271-1.181
			C28.96,26.937,28.62,26.606,28.26,26.276z"/>
		<path d="M25.15,45.56C25.15,45.56,25.15,45.56,25.15,45.56c-2.527,0-5.384-0.774-8.264-2.24c-3.195-1.633-5.393-4.207-6.188-7.249
			c-0.146-0.569-0.239-1.085-0.287-1.58c-0.034-0.42-0.051-0.796-0.051-1.153c0.021-2.017,0.63-3.976,1.762-5.669
			c1.718-2.577,4.551-4.33,7.579-4.689c1.587-0.19,3.232,0.013,4.776,0.594c0.285,0.114,0.616,0.252,0.944,0.421
			c1.049,0.514,2.062,1.221,3.008,2.1c0.236,0.217,0.464,0.433,0.687,0.653l0.001-0.009l0.353,0.365
			c0.292,0.303,0.574,0.605,0.846,0.907c3.072,3.468,4.459,6.991,4.013,10.191c-0.04,0.35-0.112,0.694-0.219,1.048
			c-0.227,0.834-0.595,1.636-1.093,2.377C31.296,44.199,28.575,45.56,25.15,45.56z M20.871,23.409c-0.372,0-0.746,0.022-1.111,0.065
			c-2.884,0.343-5.584,2.015-7.222,4.471c-1.078,1.612-1.658,3.478-1.678,5.395c0,0.341,0.016,0.703,0.049,1.106
			c0.045,0.465,0.134,0.956,0.273,1.498c0.759,2.901,2.865,5.363,5.931,6.93c2.81,1.43,5.589,2.186,8.036,2.186h0.001
			c3.251,0,5.827-1.283,7.451-3.712c0.468-0.696,0.813-1.448,1.027-2.236c0.1-0.331,0.165-0.647,0.203-0.973
			c0.42-3.014-0.961-6.49-3.89-9.796c-0.16-0.179-0.325-0.358-0.494-0.538c-0.041,0.193-0.091,0.388-0.147,0.585
			c0.241,0.254,0.466,0.506,0.682,0.768c2.646,3.134,3.806,6.25,3.354,9.01c-0.052,0.35-0.136,0.698-0.251,1.031
			c-0.193,0.644-0.488,1.258-0.897,1.868c-1.545,2.308-3.971,3.527-7.015,3.527c-2.377,0-5.014-0.728-7.837-2.164
			c-3.776-1.929-5.167-4.665-5.669-6.62c-0.082-0.303-0.138-0.563-0.175-0.815c-0.061-0.36-0.103-0.736-0.123-1.113
			c-0.082-1.993,0.479-4.003,1.582-5.663c1.569-2.337,4.137-3.922,6.868-4.239c1.468-0.177,2.989,0.021,4.431,0.586
			c0.222,0.088,0.439,0.184,0.652,0.286c0.038-0.168,0.077-0.334,0.117-0.499c-0.249-0.12-0.493-0.221-0.724-0.313
			C23.188,23.621,22.034,23.409,20.871,23.409z M20.877,24.415c-0.333,0-0.669,0.02-0.997,0.06c-2.59,0.302-5.024,1.805-6.512,4.021
			c-1.044,1.571-1.576,3.476-1.498,5.36c0.02,0.355,0.059,0.713,0.116,1.06c0.036,0.237,0.088,0.479,0.165,0.766
			c0.478,1.859,1.803,4.459,5.412,6.303c2.753,1.399,5.313,2.109,7.61,2.109c2.869,0,5.151-1.143,6.599-3.306
			c0.382-0.569,0.656-1.139,0.838-1.743c0.107-0.313,0.185-0.631,0.232-0.954c0.428-2.615-0.694-5.592-3.244-8.613
			c-0.15-0.182-0.305-0.359-0.467-0.536l-0.002,0.007l-0.393-0.424l0.001-0.004c-0.438-0.474-0.884-0.921-1.328-1.33
			c-0.775-0.713-1.599-1.303-2.445-1.752c-0.289-0.148-0.591-0.287-0.897-0.409C23.027,24.622,21.953,24.415,20.877,24.415z
			 M25.363,25.086c0.826,0.457,1.628,1.041,2.386,1.736c0.384,0.354,0.77,0.736,1.149,1.138c0.051-0.2,0.092-0.399,0.125-0.599
			c-0.302-0.308-0.607-0.603-0.933-0.9c-0.828-0.77-1.705-1.399-2.612-1.878C25.439,24.75,25.4,24.917,25.363,25.086z"/>
	</g>
</g>
<g>
	<g>
		<path d="M43.99,26.557c-1.08-7.54-5.07-12.13-10.42-12c-2.62,0.061-4.86,1.32-6.551,3.561c-0.199,0.26-0.39,0.54-0.579,0.829
			c-0.86,1.341-1.551,2.971-2.051,4.86c-0.08,0.32-0.159,0.65-0.229,0.99c0.3,0.12,0.609,0.26,0.92,0.42
			c0.07-0.34,0.15-0.67,0.229-1c0.45-1.78,1.061-3.31,1.83-4.56c0.181-0.301,0.37-0.591,0.57-0.86c1.521-2.061,3.521-3.18,5.89-3.24
			c4.87-0.12,8.381,4.04,9.4,11.14c0.59,4.091-0.81,6.74-2.08,8.25c-1.68,1.98-4.15,3.16-6.77,3.221h-0.07
			c-0.33,0.01-0.66,0-0.99-0.04c-0.05,0.34-0.13,0.67-0.24,0.99c0.341,0.04,0.681,0.06,1.021,0.06h0.31
			c2.9-0.08,5.641-1.38,7.5-3.59C43.67,33.236,44.49,30.026,43.99,26.557z"/>
		<path d="M34.184,39.427H33.87c-0.351,0-0.703-0.021-1.05-0.062l-0.309-0.036l0.102-0.293c0.104-0.305,0.182-0.622,0.229-0.945
			l0.035-0.241l0.242,0.029c0.299,0.036,0.623,0.045,0.952,0.038h0.078c2.54-0.059,4.94-1.2,6.579-3.133
			c1.239-1.473,2.598-4.066,2.023-8.052c-0.983-6.843-4.328-10.929-8.948-10.929l-0.199,0.003c-2.284,0.059-4.2,1.114-5.694,3.139
			c-0.184,0.247-0.366,0.522-0.558,0.841c-0.75,1.219-1.355,2.729-1.802,4.492l-0.017,0.069c-0.072,0.304-0.146,0.607-0.21,0.92
			l-0.067,0.322l-0.292-0.15c-0.289-0.149-0.592-0.287-0.898-0.41l-0.194-0.078l0.042-0.205c0.071-0.343,0.151-0.677,0.232-1
			c0.505-1.908,1.205-3.567,2.083-4.935c0.193-0.297,0.388-0.582,0.591-0.847c1.759-2.331,4.092-3.597,6.743-3.658l0.227-0.003
			c5.364,0,9.367,4.682,10.446,12.218c0.511,3.544-0.329,6.821-2.367,9.227c-1.896,2.255-4.697,3.596-7.684,3.679H34.184z
			 M33.18,38.898c0.229,0.019,0.461,0.028,0.69,0.028h0.307c2.842-0.079,5.507-1.355,7.312-3.501
			c1.944-2.296,2.744-5.433,2.255-8.833c-1.042-7.271-4.855-11.789-9.952-11.789l-0.215,0.003c-2.494,0.058-4.692,1.255-6.357,3.461
			c-0.196,0.257-0.383,0.532-0.569,0.815c-0.848,1.322-1.527,2.934-2.019,4.787c-0.063,0.251-0.125,0.51-0.183,0.775
			c0.153,0.064,0.306,0.133,0.455,0.205c0.047-0.209,0.097-0.414,0.146-0.619l0.018-0.073c0.459-1.814,1.085-3.372,1.86-4.632
			c0.198-0.33,0.39-0.618,0.582-0.879c1.567-2.123,3.672-3.279,6.084-3.341l0.212-0.003c4.892,0,8.422,4.246,9.442,11.357
			c0.602,4.168-0.829,6.894-2.136,8.446c-1.731,2.041-4.267,3.247-6.955,3.31H34.08c-0.245,0.007-0.531,0.002-0.782-0.018
			C33.266,38.567,33.227,38.734,33.18,38.898z"/>
	</g>
</g>
<g>
	<g>
		<path d="M29.29,27.276c-0.06,0.4-0.15,0.79-0.271,1.181c0.28,0.29,0.53,0.569,0.771,0.859c0.14-0.37,0.25-0.75,0.34-1.14
			C29.86,27.877,29.58,27.577,29.29,27.276z M25.21,16.827c-2.68-1.5-5.99-1.69-9.3-0.53c-7.19,2.51-10.94,7.31-9.79,12.53
			c0.55,2.479,2.13,4.399,4.54,5.64c0.34,0.18,0.7,0.34,1.08,0.49c-0.061-0.36-0.101-0.73-0.12-1.09
			c-0.36-0.171-0.7-0.341-1.01-0.53c-1.86-1.101-3.061-2.69-3.511-4.73c-1.05-4.76,2.37-9,9.131-11.37
			c3.899-1.359,6.779-0.489,8.5,0.471c0.619,0.35,1.189,0.76,1.71,1.239c0.25,0.221,0.479,0.461,0.699,0.711
			c0.181-0.301,0.37-0.591,0.57-0.86c-0.22-0.24-0.45-0.47-0.69-0.68C26.47,17.617,25.87,17.187,25.21,16.827z"/>
		<path d="M12.061,35.353l-0.412-0.163c-0.418-0.165-0.779-0.329-1.105-0.502c-2.494-1.283-4.109-3.292-4.667-5.807
			c-1.18-5.354,2.634-10.266,9.952-12.82c1.447-0.507,2.902-0.765,4.324-0.765c1.881,0,3.623,0.442,5.18,1.313
			c0.661,0.359,1.287,0.806,1.855,1.323c0.23,0.201,0.47,0.437,0.707,0.695l0.139,0.152l-0.122,0.166
			c-0.184,0.246-0.366,0.521-0.558,0.84l-0.176,0.293l-0.226-0.257c-0.244-0.277-0.459-0.496-0.677-0.688
			c-0.5-0.46-1.06-0.865-1.668-1.209c-2.392-1.334-5.274-1.506-8.295-0.452c-6.633,2.325-9.986,6.468-8.969,11.08
			c0.432,1.955,1.573,3.492,3.394,4.569c0.322,0.196,0.681,0.373,0.99,0.52l0.134,0.063l0.009,0.148
			c0.02,0.358,0.059,0.716,0.116,1.063L12.061,35.353z M20.152,15.796c-1.365,0-2.765,0.248-4.159,0.737
			c-7.061,2.464-10.75,7.154-9.629,12.24c0.524,2.364,2.05,4.256,4.41,5.471c0.202,0.107,0.419,0.211,0.655,0.313
			c-0.021-0.175-0.038-0.352-0.05-0.528c-0.288-0.139-0.607-0.3-0.9-0.479c-1.941-1.148-3.161-2.794-3.624-4.89
			C5.778,23.776,9.252,19.418,16.147,17c3.156-1.099,6.185-0.917,8.705,0.488c0.643,0.363,1.233,0.792,1.757,1.274
			c0.162,0.142,0.322,0.299,0.492,0.48c0.096-0.151,0.19-0.292,0.285-0.426c-0.179-0.188-0.356-0.359-0.531-0.512
			c-0.544-0.494-1.136-0.917-1.765-1.259C23.607,16.217,21.946,15.796,20.152,15.796z M29.872,29.808l-0.274-0.332
			c-0.238-0.287-0.485-0.563-0.758-0.845l-0.103-0.106l0.043-0.141c0.12-0.391,0.206-0.765,0.263-1.145l0.074-0.502l0.353,0.365
			c0.292,0.303,0.574,0.605,0.846,0.907l0.087,0.097l-0.029,0.127c-0.098,0.424-0.212,0.808-0.349,1.171L29.872,29.808z
			 M29.301,28.39c0.137,0.144,0.269,0.287,0.396,0.433c0.059-0.184,0.111-0.375,0.16-0.575c-0.134-0.147-0.27-0.295-0.408-0.442
			C29.407,27.998,29.357,28.192,29.301,28.39z"/>
	</g>
</g>
</svg>
