<?xml version="1.0" encoding="utf-8"?>
<!-- Generator: Adobe Illustrator 16.0.0, SVG Export Plug-In . SVG Version: 6.00 Build 0)  -->
<!DOCTYPE svg PUBLIC "-//W3C//DTD SVG 1.1//EN" "http://www.w3.org/Graphics/SVG/1.1/DTD/svg11.dtd">
<svg version="1.1" id="Layer_1" xmlns="http://www.w3.org/2000/svg" xmlns:xlink="http://www.w3.org/1999/xlink" x="0px" y="0px"
	 width="50px" height="50px" viewBox="0 0 50 50" enable-background="new 0 0 50 50" xml:space="preserve">
<g>
	<g>
		<g>
			<g>
				<path d="M40.311,1.546c-0.416-0.496-1.12-0.783-1.923-0.783c-0.893,0-1.716,0.357-2.19,0.961
					c-0.725,0.922-0.923,2.132-1.11,3.302c-0.109,0.724-0.219,1.397-0.437,2.022c-0.892,2.478-0.962,1.894-1.983,4.292l-0.347,0.813
					c-0.1,0.197-9.725,20.271-9.774,20.371c-0.386,0.813-1.09,1.239-1.833,1.686c-0.348,0.218-0.704,0.426-1.031,0.693
					c-0.238,0.198-0.456,0.535-0.645,0.833c-0.07,0.118-0.139,0.218-0.208,0.316c-0.417,0.605-0.734,1.26-1.031,1.903l-0.01,0.011
					c-0.258,0.555-0.535,1.13-0.862,1.655c-0.725,1.13-2.035,2.074-3.006,3.035l-0.189,0.198c-1.772,1.558-1.829,1.527-3.089,2.538
					c-0.258,0.208,2.067-1.249,3.218-2.398l0.198-0.198c0.942-0.933,2.293-1.926,3.026-3.066c0.347-0.535,0.615-1.12,0.882-1.675
					c0.309-0.645,0.615-1.299,1.031-1.894c0.061-0.089,0.129-0.208,0.208-0.317c0.18-0.287,0.388-0.614,0.605-0.793
					c0.307-0.247,0.664-0.466,1.001-0.674c0.743-0.446,1.496-0.902,1.913-1.765c0.039-0.069,9.377-19.548,9.774-20.381l0.347-0.823
					c1.031-2.389,1.101-1.804,1.982-4.303c0.229-0.634,0.348-1.348,0.456-2.052c0.179-1.14,0.367-2.33,1.061-3.212
					c0.446-0.555,1.21-0.893,2.043-0.893c0.743,0,1.388,0.269,1.774,0.725c0.326,0.396,0.436,0.922,0.316,1.526
					c-0.198,1.09-1.06,1.794-1.894,2.479c-0.396,0.317-0.803,0.654-1.13,1.021c-1.12,1.239-1.714,2.824-2.289,4.361l-0.109,0.287
					c-0.327,0.872-0.674,1.734-1.021,2.558c-2.051,4.927-3.608,6.672-6.066,11.32l-0.277,0.536
					c-0.338,0.635-0.724,1.269-1.101,1.884c-0.575,0.951-1.181,1.933-1.616,2.983c-0.565,1.349-0.792,2.429-0.138,3.668
					c0.505,0.981,1.04,2.131,1.06,3.291c0.021,1.011-1.576,3.768-1.596,3.787c-2.399,4.005-6.801,5.947-9.061,6.721h-0.01
					c-0.149,0.05-0.288,0.099-0.416,0.139c0.109-0.059,0.208-0.108,0.317-0.168l-0.259-0.08h-0.01
					c-0.337,0.18-0.684,0.357-1.05,0.535l-0.744,0.357l0.803-0.178c0.021,0,0.685-0.149,1.695-0.517h0.01
					c2.35-0.832,6.563-2.805,8.893-6.71c0.068-0.109,1.645-2.826,1.625-3.887c-0.029-1.2-0.565-2.389-1.09-3.38
					c-0.604-1.171-0.396-2.211,0.148-3.5c0.437-1.04,1.031-2.013,1.605-2.954c0.377-0.625,0.765-1.259,1.11-1.903l0.278-0.524
					c2.458-4.66,4.015-6.415,6.067-11.342c0.346-0.832,0.692-1.694,1.03-2.567l0.108-0.287c0.565-1.517,1.15-3.093,2.24-4.302
					c0.317-0.357,0.704-0.664,1.11-1.001c0.862-0.705,1.755-1.438,1.974-2.588C40.796,2.577,40.678,1.992,40.311,1.546z"/>
				<path d="M11.009,49.593l2.696-1.295c0.362-0.176,0.706-0.352,1.041-0.53l0.155-0.029l0.328,0.099
					c2.348-0.813,6.547-2.733,8.856-6.589c0.232-0.363,1.577-2.822,1.561-3.653c-0.018-1.068-0.507-2.16-1.032-3.182
					c-0.694-1.315-0.465-2.46,0.13-3.879c0.419-1.012,0.989-1.953,1.54-2.863l0.093-0.152c0.406-0.664,0.769-1.262,1.094-1.872
					l0.276-0.534c0.916-1.733,1.693-3.039,2.444-4.302c1.25-2.103,2.33-3.919,3.613-6.999c0.367-0.871,0.71-1.729,1.018-2.55
					l0.11-0.288c0.582-1.555,1.184-3.164,2.337-4.44c0.343-0.385,0.761-0.729,1.159-1.049c0.801-0.657,1.623-1.332,1.804-2.328
					c0.104-0.53,0.014-0.986-0.264-1.322C39.629,1.432,39.052,1.2,38.388,1.2c-0.755,0-1.445,0.299-1.849,0.799
					c-0.653,0.832-0.833,1.982-1.008,3.095c-0.113,0.735-0.234,1.45-0.468,2.098c-0.505,1.432-0.748,1.864-1.055,2.413
					c-0.229,0.411-0.49,0.878-0.934,1.903l-0.346,0.821c-0.1,0.209-9.736,20.317-9.787,20.407c-0.445,0.921-1.272,1.418-2.002,1.855
					c-0.354,0.219-0.688,0.425-0.973,0.654c-0.191,0.157-0.399,0.489-0.551,0.731c-0.054,0.075-0.094,0.14-0.132,0.199l-0.081,0.126
					c-0.388,0.554-0.684,1.173-0.971,1.772l-0.13,0.271c-0.242,0.506-0.492,1.029-0.81,1.52c-0.529,0.823-1.343,1.549-2.129,2.25
					c-0.329,0.293-0.648,0.578-0.932,0.858l-0.197,0.197c-0.92,0.919-3.172,2.491-3.413,2.491h-0.177l-0.119-0.334l0.157-0.13
					c0.372-0.298,0.639-0.506,0.876-0.69c0.557-0.433,0.958-0.745,2.205-1.841l0.174-0.184c0.31-0.307,0.647-0.606,0.99-0.911
					c0.74-0.657,1.505-1.337,1.986-2.086c0.328-0.528,0.608-1.116,0.846-1.626l0.042-0.063c0.246-0.552,0.58-1.25,1.02-1.888
					c0.067-0.096,0.133-0.19,0.199-0.303c0.224-0.354,0.442-0.684,0.699-0.897c0.288-0.235,0.594-0.425,0.889-0.607l0.17-0.105
					c0.714-0.429,1.385-0.831,1.74-1.581c0.034-0.069,1.501-3.128,3.289-6.855c2.862-5.97,6.426-13.398,6.487-13.521l0.34-0.799
					c0.461-1.082,0.73-1.563,0.969-1.989c0.292-0.523,0.522-0.936,1.01-2.29c0.206-0.59,0.314-1.244,0.425-1.975
					c0.184-1.145,0.391-2.439,1.161-3.419c0.52-0.662,1.412-1.057,2.387-1.057c0.879,0,1.649,0.318,2.114,0.873
					c0.409,0.497,0.555,1.153,0.422,1.899c-0.237,1.246-1.206,2.038-2.062,2.737l-0.14,0.115c-0.347,0.286-0.674,0.557-0.942,0.858
					c-1.055,1.17-1.629,2.713-2.186,4.204l-0.116,0.307c-0.339,0.877-0.687,1.741-1.033,2.575c-1.295,3.109-2.382,4.941-3.64,7.063
					c-0.75,1.264-1.524,2.57-2.438,4.3L28.09,25.97c-0.314,0.586-0.664,1.166-1.003,1.727l-0.114,0.188
					c-0.578,0.948-1.163,1.907-1.589,2.922c-0.516,1.22-0.722,2.195-0.157,3.289c0.504,0.951,1.087,2.209,1.118,3.488
					c0.021,1.164-1.646,3.998-1.663,4.025c-2.381,3.991-6.674,5.981-9.021,6.813l-0.049,0.015c-0.94,0.339-1.659,0.517-1.739,0.517
					L11.009,49.593z"/>
			</g>
			<g>
				<path stroke="#000000" stroke-width="0.5" stroke-miterlimit="10" d="M40.399,1.467c-0.436-0.526-1.17-0.833-2.012-0.833
					c-0.933,0-1.785,0.377-2.29,1.011c-0.744,0.942-0.942,2.172-1.13,3.361c-0.109,0.684-0.218,1.378-0.437,1.992
					c-0.496,1.378-0.724,1.805-1.021,2.329c-0.238,0.416-0.507,0.902-0.963,1.964l-0.337,0.802
					c-0.148,0.309-9.734,20.292-9.774,20.382c-0.376,0.773-1.06,1.189-1.794,1.636c-0.347,0.208-0.703,0.427-1.03,0.694
					c-0.268,0.208-0.486,0.555-0.685,0.862c-0.06,0.119-0.129,0.218-0.198,0.317c-0.427,0.604-0.733,1.269-1.041,1.923l0.109,0.049
					l-0.129-0.02c-0.258,0.546-0.525,1.11-0.853,1.616c-0.714,1.12-2.015,2.055-2.977,3.016l-0.198,0.198
					c-1.507,1.508-4.366,3.605-4.061,3.408c-0.595,0.406-1.668,1.076-1.976,1.452l-0.219,0.278l0.04,0.01
					c0,0,3.076-2.155,3.345-2.373c1.259-1.021,1.938-1.397,3.088-2.547l0.198-0.198c0.942-0.933,2.293-1.926,3.026-3.066
					c0.347-0.535,0.615-1.12,0.882-1.675c0.309-0.645,0.615-1.299,1.031-1.894c0.061-0.089,0.129-0.208,0.208-0.317
					c0.18-0.287,0.388-0.614,0.605-0.793c0.307-0.247,0.664-0.466,1.001-0.674c0.743-0.446,1.496-0.902,1.913-1.765
					c0.039-0.069,9.377-19.548,9.774-20.381l0.347-0.823c1.031-2.389,1.101-1.804,1.982-4.303c0.229-0.634,0.348-1.348,0.456-2.052
					c0.179-1.14,0.367-2.33,1.061-3.212c0.446-0.555,1.21-0.893,2.043-0.893c0.743,0,1.388,0.269,1.774,0.725
					c0.326,0.396,0.436,0.922,0.316,1.526c-0.198,1.09-1.06,1.794-1.894,2.479c-0.396,0.317-0.803,0.654-1.13,1.021
					c-1.12,1.239-1.714,2.824-2.289,4.361l-0.109,0.287c-0.327,0.872-0.674,1.734-1.021,2.558c-2.051,4.927-3.608,6.672-6.066,11.32
					l-0.277,0.536c-0.338,0.635-0.724,1.269-1.101,1.884c-0.575,0.951-1.181,1.933-1.616,2.983
					c-0.565,1.349-0.792,2.429-0.138,3.668c0.505,0.981,1.04,2.131,1.06,3.291c0.021,1.011-1.576,3.768-1.596,3.787
					c-2.399,4.005-6.801,5.947-9.061,6.721h-0.01l-0.089-0.029h-0.01l-0.259-0.08h-0.01l-0.168-0.059
					c-0.298,0.158-0.615,0.316-0.942,0.475l-1.675,0.823l1.824-0.406c0.089-0.02,0.812-0.188,1.873-0.575
					c2.398-0.861,6.493-2.845,8.803-6.701c0.069-0.119,1.655-2.845,1.636-3.955c-0.021-1.229-0.565-2.429-1.101-3.44
					c-0.585-1.12-0.376-2.13,0.159-3.399c0.426-1.021,1.021-1.992,1.605-2.955c0.377-0.614,0.754-1.238,1.101-1.883l0.277-0.535
					c0.912-1.725,1.686-3.034,2.438-4.292c1.26-2.121,2.34-3.946,3.638-7.059c0.338-0.803,0.685-1.665,1.021-2.558l0.109-0.297
					c0.564-1.508,1.15-3.063,2.23-4.253c0.308-0.357,0.684-0.664,1.09-0.991c0.884-0.725,1.784-1.468,2.013-2.667
					C40.925,2.557,40.796,1.941,40.399,1.467z M14.08,48.523c0.238-0.119,0.466-0.228,0.694-0.346l0.05,0.128
					C14.506,48.415,14.249,48.484,14.08,48.523z"/>
			</g>
		</g>
	</g>
	<g>
		<g>
			<g>
				<path d="M20.611,42.075c-0.061-0.099-0.159-0.158-0.278-0.158c-0.178,0-0.347,0.119-0.367,0.139l-0.029,0.02
					c-2.657,3.946-6.761,5.779-8.356,6.364c1.238-0.852,1.982-1.318,2.498-1.645c0.901-0.575,1.209-0.773,2.418-1.854
					c0.863-0.773,1.943-1.814,2.607-3.074l0.011-0.029c0.01-0.129-0.011-0.229-0.06-0.287c-0.03-0.03-0.08-0.06-0.148-0.06
					c-0.229,0-0.556,0.308-0.635,0.376c-3.133,3.866-6.741,5.522-8.148,6.048l1.784-1.299c4.48-3.083,5.452-4.729,5.491-4.817
					c0.07-0.179,0.07-0.298,0.021-0.377c-0.039-0.049-0.1-0.079-0.169-0.079c-0.218,0-0.595,0.297-0.684,0.376
					c-1.239,1.518-7.117,6.047-8.932,6.067c0.108-0.109,0.237-0.219,0.387-0.327l-0.734,0.426l-0.029,0.04l0.158,0.039
					c0.06,0.01,0.129,0.02,0.208,0.02c1.894,0,7.802-4.56,9.071-6.126c0.168-0.139,0.446-0.316,0.555-0.326
					c0.011,0,0.021,0.039-0.029,0.197c-0.011,0.021-0.991,1.675-5.433,4.729L9.052,48.45l0.516-0.14
					c0.05-0.019,4.848-1.367,8.853-6.314c0.129-0.129,0.377-0.316,0.486-0.316c0,0,0.02,0.029,0.01,0.119
					c-0.645,1.219-1.706,2.24-2.548,2.993c-1.2,1.07-1.507,1.27-2.399,1.833c-0.585,0.378-1.478,0.942-3.072,2.053l-0.477,0.327
					l0.556-0.149c0.06-0.019,5.739-1.655,9.109-6.651c0.07-0.049,0.269-0.129,0.337-0.049c-0.059,0.327-0.684,3.073-7.019,6.403
					c-0.337,0.18-0.693,0.357-1.06,0.535L11.6,49.451l0.803-0.178c0.021,0,0.685-0.149,1.695-0.517l-0.327-0.089
					c-0.148,0.05-0.297,0.099-0.426,0.139c0.109-0.06,0.218-0.119,0.327-0.169c6.661-3.539,6.939-6.373,6.948-6.502v-0.03
					L20.611,42.075z"/>
			</g>
			<g>
				<path d="M8.953,46.805c-0.308,0.208-0.625,0.416-0.893,0.624l0.942-0.545L8.953,46.805z M9.031,46.863l0.03,0.021
					c0.149-0.1,0.288-0.198,0.427-0.287L9.031,46.863z M20.611,42.075c-0.061-0.099-0.159-0.158-0.278-0.158
					c-0.178,0-0.347,0.119-0.367,0.139l-0.029,0.02c-2.657,3.946-6.761,5.779-8.356,6.364c1.238-0.852,1.982-1.318,2.498-1.645
					c0.901-0.575,1.209-0.773,2.418-1.854c0.863-0.773,1.943-1.814,2.607-3.074l0.011-0.029c0.01-0.129-0.011-0.229-0.06-0.287
					c-0.03-0.03-0.08-0.06-0.148-0.06c-0.229,0-0.556,0.308-0.635,0.376c-3.133,3.866-6.741,5.522-8.148,6.048l1.784-1.299
					c4.48-3.083,5.452-4.729,5.491-4.817c0.07-0.179,0.07-0.298,0.021-0.377c-0.039-0.049-0.1-0.079-0.169-0.079
					c-0.218,0-0.595,0.297-0.684,0.376c-1.239,1.518-7.117,6.047-8.932,6.067c0.108-0.109,0.237-0.219,0.387-0.327l-0.734,0.426
					l-0.208,0.129l0.308,0.069c0.069,0.02,0.148,0.02,0.237,0.02c1.924,0,7.881-4.579,9.15-6.155
					c0.099-0.069,0.208-0.148,0.287-0.198c-0.237,0.387-1.477,1.942-5.343,4.609l-3.281,2.389l1.169-0.317
					c0.199-0.059,4.938-1.447,8.894-6.344c0.068-0.06,0.147-0.119,0.218-0.169c-0.655,1.121-1.637,2.072-2.43,2.786
					c-1.199,1.061-1.496,1.258-2.378,1.823c-0.546,0.337-1.458,0.922-3.084,2.053l-1.08,0.753l1.259-0.357
					c0.06-0.019,5.779-1.684,9.169-6.681c0.03-0.011,0.07-0.029,0.101-0.039c-0.159,0.634-1.16,3.182-7.049,6.245
					c-0.297,0.158-0.615,0.316-0.942,0.475l-1.675,0.823l1.824-0.406c0.089-0.02,0.813-0.188,1.873-0.575l-0.208-0.06l-0.327-0.089
					l-0.099-0.03c6.661-3.539,6.939-6.373,6.948-6.502v-0.03L20.611,42.075z M13.305,48.747l0.05,0.129
					c-0.317,0.109-0.575,0.179-0.744,0.218C12.849,48.975,13.076,48.866,13.305,48.747z"/>
			</g>
		</g>
	</g>
</g>
<g>
	<polyline fill="none" points="12.633,45.045 11.047,45.966 10.849,45.856 10.125,46.168 9.75,46.452 9.53,46.858 9.49,46.889 
		8.767,47.314 8.757,47.314 8.549,47.443 7.835,47.859 	"/>
</g>
<g>
	<polyline fill="none" points="17.917,48.881 15.775,48.246 15.577,48.187 15.567,48.187 15.24,48.098 15.23,48.098 15.142,48.068 
		15.132,48.068 14.873,47.988 14.863,47.988 14.695,47.93 14.447,47.859 	"/>
</g>
</svg>
