<?xml version="1.0" encoding="utf-8"?>
<!-- Generator: Adobe Illustrator 16.0.0, SVG Export Plug-In . SVG Version: 6.00 Build 0)  -->
<!DOCTYPE svg PUBLIC "-//W3C//DTD SVG 1.1//EN" "http://www.w3.org/Graphics/SVG/1.1/DTD/svg11.dtd">
<svg version="1.1" id="Layer_1" xmlns="http://www.w3.org/2000/svg" xmlns:xlink="http://www.w3.org/1999/xlink" x="0px" y="0px"
	 width="50px" height="50px" viewBox="0 0 50 50" enable-background="new 0 0 50 50" xml:space="preserve">
<g>
	<g>
		<g>
			<path d="M23.671,46.271l-9.996-6.952V15.997l0.132-0.178c0.1-0.138,2.486-6.366,5.062-8.479l0.655-0.538L19.9,7.562
				c0.387,0.773,3.771,10.622,3.771,12.525V46.271z M15.024,38.613l7.297,5.073v-23.6c0-1.092-1.854-8.278-3.245-11.143
				c-1.871,1.693-3.576,6.875-4.052,7.499V38.613z"/>
			<path d="M23.921,46.749l-10.496-7.3V15.914l0.181-0.244c0.005-0.014,0.055-0.132,0.132-0.313c1.79-4.209,3.463-6.971,4.973-8.209
				l0.897-0.737l0.517,1.04c0.345,0.688,3.797,10.659,3.797,12.637V46.749z M13.925,39.188l9.496,6.604V20.087
				c0-1.829-3.375-11.675-3.744-12.414l-0.237-0.478l-0.413,0.339c-1.445,1.187-3.07,3.884-4.829,8.018
				c-0.141,0.33-0.159,0.374-0.188,0.414l-0.084,0.114V39.188z M22.571,44.165l-7.797-5.421V16.359l0.051-0.067
				c0.124-0.162,0.391-0.79,0.699-1.518c0.81-1.908,2.032-4.792,3.384-6.016l0.247-0.224l0.146,0.3
				c1.379,2.84,3.271,10.074,3.271,11.252V44.165z M15.274,38.482l6.797,4.726V20.087c0-0.955-1.701-7.668-3.071-10.715
				c-1.184,1.278-2.319,3.955-3.016,5.598c-0.353,0.83-0.56,1.313-0.71,1.551V38.482z"/>
		</g>
	</g>
	<g>
		<g>
			<path d="M39.333,42.334l-1.6-0.872l0.243-0.443l-0.14-24.607c0-1.708-3.576-9.705-4.581-11.496l1.179-0.658
				c0.386,0.689,4.753,9.787,4.753,12.15L39.333,42.334z"/>
			<path d="M39.585,42.756l-2.191-1.194l0.333-0.606l-0.14-24.543c0-1.646-3.56-9.611-4.549-11.375l-0.123-0.218l1.616-0.902
				l0.121,0.218c0.257,0.459,4.785,9.793,4.785,12.272L39.585,42.756z M38.073,41.362l1.008,0.55l-0.144-25.504
				c0-2.129-3.796-10.214-4.605-11.808l-0.738,0.412c1.164,2.186,4.493,9.71,4.493,11.398l0.14,24.671L38.073,41.362z"/>
		</g>
	</g>
	<g>
		<g>
			<rect x="30.523" y="35.58" transform="matrix(0.2504 0.9682 -0.9682 0.2504 65.6028 2.4827)" width="1.35" height="16.048"/>
			<path d="M23.42,46.575l-0.463-1.791l16.02-4.151l0.463,1.793L23.42,46.575z M23.566,45.144l0.213,0.822l15.051-3.899
				l-0.213-0.824L23.566,45.144z"/>
		</g>
	</g>
	<g>
		<g>
			<path d="M18.622,8.683V5.027l15.787-3.233l0.132,3.591L18.622,8.683z M19.973,5.563v1.478l13.176-2.759l-0.031-1.438
				L19.973,5.563z"/>
			<path d="M18.372,8.989V4.823L34.648,1.49l0.15,4.097L18.372,8.989z M18.872,5.231v3.145l15.411-3.193L34.17,2.098L18.872,5.231z
				 M19.723,7.349V5.36l0.199-0.042l13.438-2.78l0.043,1.946L19.723,7.349z M20.223,5.767v0.967L32.894,4.08l-0.02-0.931
				L20.223,5.767z"/>
		</g>
	</g>
	<g>
		<g>
			<polygon points="22.923,20.793 14.074,16.834 14.626,15.604 23.068,19.381 38.371,15.995 38.663,17.313 			"/>
			<path d="M22.896,21.055l-0.076-0.033l-9.076-4.062l0.756-1.687l8.595,3.846l15.467-3.422l0.399,1.807L22.896,21.055z
				 M14.404,16.708l8.545,3.823l15.416-3.408l-0.185-0.83l-15.139,3.35l-0.076-0.033l-8.214-3.676L14.404,16.708z"/>
		</g>
	</g>
	<g>
		<g>
			<polygon points="14.696,16.594 14.352,15.289 14.405,15.276 20.951,13.974 21.216,15.298 			"/>
			<path d="M14.515,16.885l-0.471-1.78l0.313-0.073l6.791-1.352l0.362,1.814L14.515,16.885z M14.661,15.48l0.217,0.822l6.044-1.201
				l-0.167-0.834L14.661,15.48z"/>
		</g>
	</g>
	<g>
		<g>
			<g>
				<path d="M36.043,40.603c-0.648,0-1.176-0.528-1.176-1.176s0.527-1.175,1.176-1.175c0.646,0,1.175,0.527,1.175,1.175
					S36.689,40.603,36.043,40.603z M36.043,38.59c-0.462,0-0.838,0.375-0.838,0.837s0.376,0.838,0.838,0.838
					s0.837-0.376,0.837-0.838S36.505,38.59,36.043,38.59z"/>
			</g>
		</g>
		<g>
			<g>
				<path d="M36.043,40.118c-0.381,0-0.691-0.312-0.691-0.691c0-0.381,0.311-0.691,0.691-0.691c0.38,0,0.689,0.311,0.689,0.691
					C36.732,39.807,36.423,40.118,36.043,40.118z M36.043,39.073c-0.194,0-0.354,0.158-0.354,0.354s0.16,0.354,0.354,0.354
					c0.195,0,0.352-0.159,0.352-0.354S36.238,39.073,36.043,39.073z"/>
			</g>
		</g>
	</g>
	<g>
		<g>
			<path d="M27.553,27.759l0.021-8.688l-2.396-6.595l0.258-0.153c0.115-0.067,2.873-1.689,5.601-1.689
				c0.69,0,1.325,0.107,1.888,0.316l0.133,0.048l2.316,6.417l0.234,9.088l-0.477-0.195c-0.011-0.003-0.963-0.386-2.377-0.386
				c-1.651,0-3.224,0.497-4.674,1.479L27.553,27.759z M26.041,12.76L28.249,19l-0.02,7.508c1.415-0.837,2.936-1.262,4.524-1.262
				c0.945,0,1.7,0.157,2.153,0.281L34.7,17.501l-2.142-5.965c-0.456-0.15-0.968-0.227-1.522-0.227
				C28.958,11.31,26.779,12.367,26.041,12.76z"/>
			<path d="M27.302,28.231l0.021-9.116l-2.451-6.748l0.436-0.259c0.305-0.179,3.025-1.725,5.729-1.725
				c0.718,0,1.382,0.111,1.975,0.332l0.241,0.087l2.371,6.605l0.244,9.472l-0.831-0.341c-0.163-0.062-1.038-0.367-2.282-0.367
				c-1.601,0-3.126,0.483-4.534,1.436L27.302,28.231z M25.483,12.586l2.34,6.486l-0.02,8.214l0.136-0.093
				c1.492-1.01,3.112-1.521,4.814-1.521c1.33,0,2.281,0.333,2.458,0.399l0.136,0.056l-0.224-8.665l-2.285-6.276
				c-0.539-0.2-1.146-0.302-1.803-0.302c-2.571,0-5.183,1.484-5.473,1.654L25.483,12.586z M27.979,26.947l0.021-7.904l-2.266-6.402
				l0.19-0.102c0.836-0.445,3.009-1.479,5.112-1.479c0.581,0,1.119,0.08,1.601,0.239l0.116,0.038l2.197,6.157l0.216,8.363
				l-0.325-0.089c-0.453-0.124-1.185-0.272-2.087-0.272c-1.541,0-3.021,0.413-4.397,1.227L27.979,26.947z M26.35,12.881l2.149,6.12
				L28.48,26.08c1.347-0.72,2.782-1.084,4.273-1.084c0.767,0,1.418,0.101,1.895,0.209l-0.197-7.657l-2.086-5.811
				c-0.401-0.118-0.848-0.178-1.329-0.178C29.188,11.56,27.258,12.417,26.35,12.881z"/>
		</g>
	</g>
</g>
</svg>
