<?xml version="1.0" encoding="utf-8"?>
<!-- Generator: Adobe Illustrator 16.0.0, SVG Export Plug-In . SVG Version: 6.00 Build 0)  -->
<!DOCTYPE svg PUBLIC "-//W3C//DTD SVG 1.1//EN" "http://www.w3.org/Graphics/SVG/1.1/DTD/svg11.dtd">
<svg version="1.1" id="Layer_1" xmlns="http://www.w3.org/2000/svg" xmlns:xlink="http://www.w3.org/1999/xlink" x="0px" y="0px"
	 width="50px" height="50px" viewBox="0 0 50 50" enable-background="new 0 0 50 50" xml:space="preserve">
<path fill="none" stroke="#000000" stroke-width="0.25" stroke-miterlimit="10" d="M24.606,31.816"/>
<path d="M24.734,26.354c-0.081,0-0.153-0.035-0.192-0.095c-0.067-0.063-0.109-0.152-0.109-0.245
	c-0.009-0.046-0.009-0.11-0.009-0.176c0.025-1.099,7.245-16.868,8.218-17.953c0.35-0.382,0.781-0.735,1.127-1.02
	c0.769-0.626,1.64-1.335,1.831-2.367c0.108-0.56,0.005-1.047-0.296-1.41C34.958,2.669,34.36,2.43,33.662,2.43
	c-0.918,0-1.654,0.256-2.019,0.701l-0.03,0.026c-0.646,0.405-0.721,1.379-0.793,2.32c-0.024,0.313-0.047,0.61-0.09,0.889
	c-0.112,0.717-0.231,1.412-0.455,2.044c-0.872,2.46-7.985,17.009-8.053,17.145l-0.063,0.12c-0.028,0.054-0.056,0.107-0.084,0.159
	l-0.052,0.095l-0.435-0.163l0.087-0.131c0.038-0.056,0.07-0.121,0.102-0.183l0.049-0.092C21.889,25.232,29,10.654,29.864,8.258
	c0.205-0.58,0.309-1.208,0.423-1.969c0.047-0.287,0.067-0.607,0.089-0.947c0.063-0.979,0.133-2.088,0.915-2.593
	c0.419-0.508,1.216-0.765,2.371-0.765c0.833,0,1.558,0.301,1.991,0.826c0.38,0.452,0.514,1.065,0.388,1.771
	c-0.224,1.185-1.161,1.949-1.987,2.624c-0.409,0.328-0.777,0.623-1.079,0.971c-0.957,1.053-8.017,16.646-8.038,17.752
	c-0.01,0.054-0.01,0.093-0.01,0.124h-0.229c0.01,0.02,0.024,0.035,0.037,0.048V26.354z M24.984,26.604h-0.25
	c-0.165,0-0.315-0.077-0.401-0.206c-0.083-0.069-0.151-0.225-0.151-0.384c-0.007-0.011-0.009-0.093-0.009-0.176
	c0.027-1.197,7.226-16.942,8.282-18.12c0.362-0.396,0.799-0.754,1.15-1.042c0.741-0.604,1.574-1.282,1.748-2.224
	c0.093-0.484,0.009-0.9-0.243-1.205c-0.297-0.36-0.826-0.567-1.449-0.567c-0.83,0-1.513,0.228-1.825,0.609l-0.06,0.057
	c-0.57,0.361-0.64,1.27-0.708,2.148c-0.026,0.34-0.05,0.634-0.093,0.911c-0.114,0.728-0.235,1.436-0.466,2.089
	c-0.876,2.47-7.997,17.036-8.065,17.172l-0.308,0.573l-0.933-0.351l0.262-0.393c0.03-0.044,0.054-0.094,0.079-0.141l0.06-0.112
	c0.064-0.13,7.16-14.673,8.024-17.07c0.198-0.559,0.299-1.175,0.412-1.921c0.045-0.28,0.065-0.594,0.086-0.926
	c0.065-1.026,0.14-2.186,0.997-2.766c0.474-0.548,1.328-0.826,2.539-0.826c0.908,0,1.704,0.334,2.184,0.917
	c0.428,0.51,0.581,1.193,0.441,1.975c-0.241,1.276-1.215,2.071-2.074,2.773c-0.412,0.33-0.763,0.611-1.048,0.941
	c-0.878,0.967-7.958,16.583-7.977,17.593c-0.011,0.075-0.01,0.1-0.01,0.119v0.25h-0.192V26.604z M24.677,25.803H24.7
	c0.038-0.23,0.202-0.721,0.46-1.397C24.879,25.113,24.704,25.609,24.677,25.803z M32.183,2.445
	c-0.303,0.111-0.536,0.266-0.699,0.463l-0.057,0.051c-0.243,0.156-0.406,0.391-0.52,0.669c0.127-0.28,0.309-0.517,0.574-0.683
	C31.644,2.742,31.884,2.573,32.183,2.445z M24.976,24.935c-0.192,0.498-0.301,0.819-0.303,0.906c0,0.044,0,0.09,0.005,0.136
	c0.002-0.026,0.005-0.055,0.012-0.081C24.693,25.766,24.796,25.43,24.976,24.935z M24.606,25.971l0.073,0.006l0.248-0.031
	c-0.002-0.015-0.003-0.028-0.003-0.041l0.017-0.004c0-0.034,0.022-0.198,0.27-0.88l-0.468-0.176
	c-0.315,0.819-0.318,0.931-0.319,1.005c0,0.052,0,0.105,0.007,0.158L24.606,25.971z M32.223,2.432
	c-0.329,0.114-0.58,0.277-0.75,0.49L31.441,2.95c-0.276,0.172-0.452,0.436-0.567,0.753C31,3.396,31.185,3.137,31.463,2.957
	C31.647,2.738,31.906,2.561,32.223,2.432z M31.599,3.167l0.056-0.049c0.157-0.188,0.38-0.34,0.663-0.455l-0.176-0.468
	c-0.374,0.13-0.665,0.322-0.832,0.543c-0.304,0.189-0.523,0.477-0.67,0.879l0.466,0.181C31.223,3.512,31.384,3.306,31.599,3.167z
	 M11.209,48.016c-0.266,0-0.502-0.041-0.701-0.123C10,47.687,9.877,47.292,9.872,47.275L9.84,47.173l0.054-0.097l5.881-10.402
	l6.167-11.632l0.453,0.24l-6.17,11.638L10.41,47.206c0.047,0.063,0.139,0.151,0.302,0.216c0.141,0.056,0.312,0.084,0.507,0.084
	c0.66,0,1.567-0.312,2.696-0.927c0.576-0.7,9.733-11.913,11.001-18.603c0.005-0.018,0.188-0.72-0.396-1.608l-0.069-0.104l0.43-0.28
	l0.068,0.104c0.716,1.091,0.477,1.97,0.466,2.007C24.108,34.99,14.68,46.457,14.279,46.942l-0.055,0.048
	C12.983,47.675,11.976,48.016,11.209,48.016z M11.209,48.266c-0.3,0-0.568-0.048-0.796-0.142c-0.609-0.248-0.765-0.725-0.78-0.778
	l-0.063-0.201l5.988-10.594l6.282-11.847l0.894,0.475l-6.288,11.858l-5.718,10.116c0.022,0.013,0.047,0.024,0.077,0.036
	c0.112,0.044,0.251,0.066,0.416,0.066c0.61,0,1.462-0.294,2.534-0.873c0.704-0.86,9.681-11.928,10.917-18.453
	c0.011-0.043,0.155-0.641-0.36-1.424l-0.207-0.314l0.85-0.554l0.205,0.313c0.781,1.188,0.509,2.172,0.498,2.213
	c-1.307,6.904-10.78,18.449-11.183,18.938l-0.083,0.077C13.074,47.91,12.019,48.266,11.209,48.266z M10.132,47.251
	c0.045,0.093,0.172,0.289,0.47,0.41c0.691,0.284,1.919-0.018,3.502-0.89l0.011-0.018c0.371-0.455,9.766-11.903,11.055-18.706
	c0.014-0.053,0.208-0.775-0.363-1.718l-0.011,0.007c0.566,0.937,0.371,1.675,0.361,1.707c-1.257,6.637-10.05,17.479-11.049,18.694
	l-0.073,0.061c-1.542,0.84-2.714,1.133-3.415,0.855c-0.22-0.087-0.344-0.21-0.41-0.299L10.132,47.251z M10.111,47.201
	c0,0.002,0.002,0.008,0.006,0.016l5.89-10.42l6.05-11.411l-0.011-0.006l-6.05,11.411L10.111,47.201z M10.11,47.2l0,0.002
	c0.004,0.013,0.097,0.299,0.491,0.459c0.169,0.069,0.374,0.104,0.607,0.104c0.724,0,1.691-0.33,2.875-0.98l0.018-0.018
	c0.383-0.468,9.773-11.887,11.07-18.73c0.012-0.042,0.208-0.762-0.366-1.707l-0.011,0.007c0.571,0.945,0.366,1.69,0.364,1.698
	c-1.291,6.81-10.668,18.238-11.067,18.721l-0.036,0.03c-1.555,0.851-2.739,1.145-3.436,0.868c-0.287-0.112-0.416-0.29-0.467-0.386
	l-0.032-0.061L16.005,36.8l6.052-11.414l-0.011-0.006l-6.052,11.414L10.11,47.2z M14.205,47.004l0.099-0.088
	c1.004-1.226,9.85-12.163,11.108-18.812c0.024-0.088,0.222-0.89-0.393-1.904l-0.143-0.211l-0.422,0.268l0.126,0.209
	c0.504,0.835,0.343,1.479,0.332,1.522c-1.286,6.784-10.617,18.129-10.978,18.578c-1.45,0.795-2.607,1.098-3.224,0.855
	c-0.164-0.064-0.254-0.152-0.302-0.216l5.816-10.289l6.052-11.414l0.107-0.229l-0.443-0.231l-6.165,11.628L9.893,47.077
	l-0.054,0.101l0.005,0.015l-0.007,0.012l0.038,0.079c0.023,0.068,0.163,0.418,0.633,0.609c0.2,0.082,0.436,0.123,0.702,0.123
	C11.975,48.016,12.983,47.676,14.205,47.004z"/>
</svg>
