<?xml version="1.0" encoding="utf-8"?>
<!-- Generator: Adobe Illustrator 16.0.0, SVG Export Plug-In . SVG Version: 6.00 Build 0)  -->
<!DOCTYPE svg PUBLIC "-//W3C//DTD SVG 1.1//EN" "http://www.w3.org/Graphics/SVG/1.1/DTD/svg11.dtd">
<svg version="1.1" id="Layer_1" xmlns="http://www.w3.org/2000/svg" xmlns:xlink="http://www.w3.org/1999/xlink" x="0px" y="0px"
	 width="50px" height="50px" viewBox="0 0 50 50" enable-background="new 0 0 50 50" xml:space="preserve">
<g>
	<path d="M24.594,15.009c-6.665,0-12.079-2.476-12.881-5.887l-0.032-0.129c-0.049-0.221-0.073-0.466-0.073-0.729
		c0-3.781,5.704-6.743,12.986-6.743c7.29,0,13.001,2.962,13.001,6.743l-0.088,0.768C36.719,12.526,31.293,15.009,24.594,15.009z
		 M13.183,8.82c0.59,2.313,4.994,4.688,11.411,4.688c6.488,0,10.91-2.406,11.437-4.733L36.1,8.174
		c-0.005-2.751-5.272-5.152-11.506-5.152c-6.226,0-11.486,2.401-11.486,5.243c0,0.164,0.015,0.313,0.043,0.429L13.183,8.82z"/>
</g>
<g>
	<path d="M24.593,49.683c-0.93,0-1.857-0.079-2.688-0.229l-0.078-0.013c-2.981-0.551-5.057-1.946-5.417-3.642
		c-0.033-0.142-0.067-0.314-0.067-0.526L11.609,8.361l1.487-0.197l0.09,0.68l4.65,36.334c0.006,0.146,0.014,0.196,0.037,0.295
		c0.226,1.062,1.893,2.049,4.161,2.48l0.076,0.013c1.527,0.285,3.423,0.285,4.976,0c2.468-0.442,4.256-1.575,4.256-2.693
		l4.755-37.097l1.49,0.174l-0.08,0.68l-4.672,36.339c0.006,1.84-2.147,3.476-5.481,4.073C26.489,49.602,25.558,49.683,24.593,49.683
		z"/>
</g>
<g>
	<polygon points="27.911,49.453 21.616,49.453 21.103,48.82 21.085,48.587 18.435,13.699 19.183,13.633 19.933,13.633 
		22.542,47.953 26.536,47.953 29.525,13.232 29.795,13.031 30.449,13.65 30.99,13.697 	"/>
</g>
</svg>
