<?xml version="1.0" encoding="utf-8"?>
<!-- Generator: Adobe Illustrator 16.0.0, SVG Export Plug-In . SVG Version: 6.00 Build 0)  -->
<!DOCTYPE svg PUBLIC "-//W3C//DTD SVG 1.1//EN" "http://www.w3.org/Graphics/SVG/1.1/DTD/svg11.dtd">
<svg version="1.1" id="Layer_1" xmlns="http://www.w3.org/2000/svg" xmlns:xlink="http://www.w3.org/1999/xlink" x="0px" y="0px"
	 width="50px" height="50px" viewBox="0 0 50 50" enable-background="new 0 0 50 50" xml:space="preserve">
<g>
	<g>
		<path d="M23.978,22.631l-0.189-0.033c-0.095-0.016-0.186-0.031-0.272-0.05l-0.184-0.03c-0.158-0.027-0.308-0.053-0.452-0.073
			c-0.21-0.039-0.359-0.065-0.502-0.09l0.012-0.505l0.086-0.493L22.39,21.85l0.16-0.479c0.153,0.026,0.314,0.055,0.483,0.09v0.001
			c0.188,0.023,0.324,0.046,0.467,0.071l0.202,0.034c0.095,0.02,0.171,0.032,0.25,0.045l0.211,0.037L23.978,22.631z"/>
	</g>
	<g>
		<path d="M5.209,36.635l-0.639-0.77c0.095-0.079,0.166-0.15,0.217-0.22c0.605-0.745,0.465-1.872,0.33-2.962
			c-0.032-0.256-0.063-0.507-0.085-0.749c-0.209-2.323-0.244-4.753,1.774-6.667c0.931-0.883,2.081-1.172,3.194-1.453
			c0.388-0.098,0.776-0.195,1.151-0.319c1.066-0.355,1.826-1.061,2.561-1.744c0.331-0.308,0.675-0.627,1.034-0.9l0.666,0.742
			l-0.01,0.01c-0.379,0.293-0.689,0.583-1.01,0.881c-0.774,0.72-1.653,1.536-2.926,1.96c-0.399,0.132-0.811,0.236-1.223,0.34
			c-1.033,0.26-2.01,0.506-2.751,1.208c-1.535,1.457-1.7,3.25-1.466,5.852c0.021,0.231,0.051,0.472,0.081,0.716
			c0.153,1.237,0.328,2.641-0.531,3.695C5.494,36.372,5.368,36.503,5.209,36.635z"/>
	</g>
	<g>
		<path d="M14.966,41.431c-1.784,0-3.691-1.436-5.276-2.628c-0.422-0.317-0.826-0.621-1.203-0.881
			c-0.195-0.134-0.396-0.282-0.602-0.434c-0.843-0.625-1.72-1.269-2.577-1.062c-0.112,0.019-0.206,0.05-0.307,0.097l-0.422-0.906
			c0.19-0.089,0.371-0.146,0.537-0.171c1.272-0.309,2.385,0.512,3.363,1.238c0.194,0.144,0.385,0.284,0.572,0.412
			c0.39,0.269,0.805,0.581,1.238,0.907c1.712,1.287,3.838,2.888,5.392,2.299c0.931-0.359,1.595-1.146,2.298-1.978
			c0.281-0.333,0.563-0.666,0.862-0.974c0.965-0.993,2.077-1.427,3.059-1.811c0.508-0.198,0.987-0.386,1.405-0.632l0.508,0.861
			c-0.487,0.287-1.004,0.488-1.55,0.702c-0.93,0.363-1.892,0.738-2.705,1.576c-0.283,0.291-0.549,0.606-0.815,0.922
			c-0.753,0.892-1.532,1.813-2.703,2.266C15.689,41.37,15.33,41.431,14.966,41.431z"/>
	</g>
	<g>
		<g>
			<path d="M6.354,35.262l-0.146-0.203C6.228,35.044,8.26,33.586,11,31.736l0.141,0.207C8.403,33.791,6.373,35.247,6.354,35.262z"/>
		</g>
		<g>
			<path d="M21.31,33.84l-0.239,0.08c-0.21-0.6-0.37-1.81-0.48-2.95l-0.01-0.01c-0.04-0.46-0.08-0.89-0.11-1.28
				c-0.04-0.42-0.06-0.779-0.069-1.02c-0.011,0-0.011-0.01-0.011-0.01c0-0.12-0.01-0.2-0.01-0.25v-0.04l0.25-0.011
				c0,0,0,0.051,0.01,0.131c0,0.13,0.021,0.329,0.03,0.59c0.03,0.29,0.05,0.66,0.08,1.069c0.01,0,0.01,0.011,0.01,0.011v0.02
				c0.101,1.16,0.26,2.6,0.471,3.4c0.01,0.029,0.02,0.06,0.029,0.09C21.27,33.73,21.29,33.79,21.31,33.84z"/>
		</g>
		<g>
			<path d="M16.832,36.832c-0.291-0.827-0.491-2.872-0.607-4.443l0.25-0.018c0.162,2.198,0.373,3.753,0.594,4.377L16.832,36.832z"/>
		</g>
		<g>
			<path d="M14.022,25.184c-0.44-0.063-1.055-0.172-1.478-0.337l0.09-0.233c0.317,0.124,0.81,0.235,1.423,0.323L14.022,25.184z"/>
		</g>
		<g>
			<path d="M12.322,28.874c-1.284-0.183-2.983-0.469-3.789-0.799l0.094-0.23c0.782,0.319,2.461,0.602,3.73,0.781L12.322,28.874z"/>
		</g>
	</g>
</g>
<g>
	<g>
		<path fill="#FFFFFF" d="M34.25,24.68c-0.11,0.05-0.25,0.09-0.4,0.14l-0.159-0.23c0.17-0.04,0.329-0.09,0.46-0.15L34.25,24.68z"/>
		<path fill="#FFFFFF" d="M38.26,27.91c-0.43,0.18-1.12,0.35-1.85,0.479l-0.16-0.22c0.76-0.14,1.48-0.31,1.92-0.49L38.26,27.91z"/>
		<path fill="#FFFFFF" d="M41.27,31.72c-0.1,1.11-0.409,2.431,0,3.46l-0.699-0.97c-0.03-0.6,0.04-1.22,0.12-1.81
			c0.029-0.24,0.06-0.49,0.079-0.721C41,29,40.84,27.28,39.3,25.83c-0.74-0.7-1.71-0.94-2.729-1.21c-0.42-0.1-0.84-0.21-1.24-0.35
			c-1.29-0.43-2.18-1.26-2.96-1.99c-0.24-0.22-0.47-0.44-0.71-0.63c0.03,0.07,0.05,0.14,0.07,0.2l-0.25-0.35
			c0-0.01,0-0.01-0.011-0.01l-0.729-1.02c0.22,0.09,0.439,0.2,0.64,0.34c1.28,0.83,2.24,2.37,4.11,2.99c1.42,0.48,3,0.58,4.149,1.67
			C41.4,27.12,41.49,29.16,41.27,31.72z"/>
		<path fill="#FFFFFF" d="M41.91,36.08c-0.12-0.1-0.22-0.2-0.3-0.311L41.6,35.76c-0.14-0.17-0.239-0.35-0.319-0.54
			c-0.011-0.01-0.011-0.029-0.011-0.04l0.021,0.04l0.42,0.58L41.91,36.08z"/>
		<path d="M42.23,35.7l-0.29,0.34l-0.03,0.04l-0.21,0.25l-0.11,0.13c-0.09-0.07-0.16-0.14-0.22-0.22
			c-0.07-0.061-0.11-0.12-0.16-0.181c-0.09-0.109-0.17-0.22-0.229-0.329c-0.051-0.08-0.091-0.15-0.12-0.23
			c-0.04-0.08-0.08-0.17-0.11-0.26c-0.11-0.32-0.17-0.67-0.18-1.03c-0.03-0.6,0.04-1.22,0.12-1.81c0.029-0.24,0.06-0.49,0.079-0.721
			C41,29,40.84,27.28,39.3,25.83c-0.74-0.7-1.71-0.94-2.729-1.21c-0.42-0.1-0.84-0.21-1.24-0.35c-1.29-0.43-2.18-1.26-2.96-1.99
			c-0.24-0.22-0.47-0.44-0.71-0.63c-0.061-0.06-0.12-0.11-0.18-0.15c0-0.01,0-0.01-0.011-0.01c-0.29-0.23-0.59-0.43-0.92-0.56
			l0.19-0.46l0.189-0.46c0.07,0.03,0.141,0.06,0.21,0.1c0.721,0.33,1.301,0.87,1.91,1.44c0.74,0.7,1.51,1.41,2.601,1.78
			c0.38,0.13,0.77,0.23,1.17,0.33c1.1,0.28,2.239,0.57,3.16,1.45c2.02,1.89,2,4.22,1.789,6.65c-0.02,0.25-0.06,0.51-0.09,0.771
			c-0.13,1.029-0.27,2.1,0.24,2.819c0.03,0.04,0.05,0.07,0.08,0.101c0.04,0.06,0.08,0.109,0.13,0.149
			C42.16,35.64,42.19,35.67,42.23,35.7z"/>
	</g>
	<g>
		<path d="M22.511,22.523l-0.162-0.986l0.116-0.02c0.143-0.024,0.277-0.046,0.398-0.063l0.703-0.126l0.188,0.982L22.93,22.45
			c-0.045,0.011-0.169,0.031-0.3,0.053L22.511,22.523z"/>
	</g>
	<g>
		<path fill="#FFFFFF" d="M25.73,33.76l-0.24-0.09c0.229-0.64,0.399-2.08,0.51-3.32l0.25,0.08C26.13,31.68,25.96,33.1,25.73,33.76z"
			/>
		<path fill="#FFFFFF" d="M34.81,33.4L31.22,34.6h-0.08c-0.12,0-0.39-0.04-0.75-0.33c-0.109,0.961-0.26,1.9-0.43,2.4l-0.24-0.09
			c0.181-0.51,0.33-1.51,0.44-2.53c-0.26-0.28-0.54-0.689-0.83-1.31c-0.21-0.45-0.55-0.99-0.96-1.57l1.53,0.53l0.449,0.16l0.25,0.08
			c-0.029,0.27-0.05,0.59-0.08,0.939c0.29,0.47,0.511,0.64,0.62,0.7l2.13-0.71L34.81,33.4z"/>
		<path fill="#FFFFFF" d="M41.61,35.77c-0.21-0.05-0.431-0.06-0.63-0.039c-1.07,0.09-2.051,1-2.95,1.619
			c-2.061,1.4-4.88,4.11-7.09,3.261c-1.46-0.561-2.28-1.98-3.341-3.08c-1.25-1.29-2.79-1.561-4.04-2.19
			c-0.18-0.09-0.35-0.18-0.51-0.29c-0.87-0.56-1.53-1.43-1.729-3.22c-0.07-0.62-0.28-1.17-0.561-1.66v-0.02c0,0,0-0.011-0.01-0.011
			c-0.03-0.09-0.08-0.14-0.13-0.22s-0.101-0.16-0.15-0.24c-0.239-0.39-0.51-0.76-0.729-1.14c-0.101-0.15-0.19-0.3-0.271-0.46
			l0.5,0.17l0.21,0.08l0.011,0.01L20.38,28.4l0.26,0.08c0,0.13,0.021,0.329,0.03,0.59c0.13,0.189,0.26,0.39,0.38,0.6
			c0.45,0.73,0.69,1.4,0.771,2.11c0.21,1.89,0.939,2.609,1.96,3.109c0.359,0.181,0.739,0.33,1.13,0.48
			c0.979,0.39,2.09,0.82,3.05,1.81c0.3,0.311,0.58,0.641,0.85,0.971c0.7,0.84,1.37,1.63,2.311,1.989c1.52,0.591,3.64-1,5.34-2.27
			c0.45-0.34,0.89-0.66,1.29-0.93c0.19-0.131,0.38-0.28,0.58-0.421c0.62-0.46,1.29-0.96,2.03-1.189c0.01,0,0.01,0,0.01,0l0.49,0.17
			l0.739,0.26L41.61,35.77z"/>
		<path fill="#FFFFFF" d="M42,35.9L41.72,35.8c0.04,0.01,0.07,0.021,0.11,0.03L42,35.9z"/>
		<path d="M42.19,35.44L42.13,35.6L42,35.9l-0.06,0.14l-0.131,0.32L41.7,36.33l-0.17-0.061c-0.05-0.01-0.101-0.02-0.16-0.029
			c-0.84-0.12-1.65,0.49-2.44,1.08c-0.21,0.149-0.42,0.3-0.62,0.439c-0.39,0.271-0.81,0.58-1.25,0.91
			c-1.64,1.24-3.47,2.61-5.21,2.61c-0.369,0-0.729-0.07-1.09-0.2c-1.18-0.46-1.96-1.39-2.71-2.28c-0.27-0.319-0.53-0.63-0.81-0.92
			c-0.811-0.83-1.771-1.21-2.7-1.58c-0.33-0.13-0.66-0.25-0.97-0.399c-0.08-0.03-0.16-0.07-0.24-0.11c-0.271-0.14-0.55-0.3-0.82-0.5
			c-0.479-0.36-0.93-0.86-1.25-1.63c-0.01-0.03-0.02-0.061-0.029-0.09c-0.2-0.46-0.33-1.011-0.41-1.681
			c-0.03-0.31-0.11-0.609-0.23-0.92l-0.01-0.01c-0.09-0.25-0.22-0.5-0.39-0.78c-0.16-0.279-0.33-0.529-0.5-0.79
			c-0.101-0.149-0.2-0.29-0.29-0.439c-0.141-0.21-0.271-0.42-0.381-0.641l0.45-0.229l0.45-0.23c0.05,0.091,0.1,0.19,0.15,0.28
			c0.04,0.07,0.08,0.13,0.109,0.2l0.011,0.01c0.069,0.101,0.13,0.2,0.199,0.311c0,0,0,0.01,0.011,0.01
			c0.04,0.06,0.08,0.12,0.119,0.18c0.051,0.08,0.101,0.15,0.15,0.23c0.13,0.189,0.26,0.39,0.38,0.6c0.45,0.73,0.69,1.4,0.771,2.11
			c0.21,1.89,0.939,2.609,1.96,3.109c0.359,0.181,0.739,0.33,1.13,0.48c0.979,0.39,2.09,0.82,3.05,1.81
			c0.3,0.311,0.58,0.641,0.85,0.971c0.7,0.84,1.37,1.63,2.311,1.989c1.52,0.591,3.64-1,5.34-2.27c0.45-0.34,0.89-0.66,1.29-0.93
			c0.19-0.131,0.38-0.28,0.58-0.421c0.62-0.46,1.29-0.96,2.03-1.189c0.01,0,0.01,0,0.01,0c0.13-0.04,0.25-0.07,0.38-0.09
			c0.17-0.021,0.35-0.03,0.53-0.021h0.01c0.14,0,0.29,0.021,0.44,0.061l0.189,0.069L42.19,35.44z"/>
	</g>
	<g>
		<g>
			<path d="M22.416,24.027c-0.158-0.06-0.307-0.109-0.455-0.159l0.078-0.237c0.152,0.05,0.303,0.101,0.465,0.162L22.416,24.027z"/>
		</g>
		<g>
			<path d="M40.58,34.89l-0.14,0.2c-0.03-0.02-2.15-1.54-4.99-3.46c-0.25-0.17-0.51-0.34-0.771-0.52l0.141-0.2
				c0.18,0.12,0.359,0.24,0.529,0.359C38.31,33.26,40.56,34.87,40.58,34.89z"/>
		</g>
		<g>
			<path d="M26.42,28.19c0,0.029-0.01,0.189-0.03,0.439c-0.02,0.41-0.069,1.08-0.14,1.8c-0.12,1.25-0.29,2.67-0.52,3.33l-0.24-0.09
				c0.229-0.64,0.399-2.08,0.51-3.32c0.08-0.89,0.13-1.68,0.15-2.01c0.01-0.1,0.02-0.16,0.02-0.16L26.42,28.19z"/>
		</g>
		<g>
			<path d="M30.65,31.11c-0.011,0.05-0.021,0.359-0.051,0.83c-0.029,0.27-0.05,0.59-0.08,0.939c-0.029,0.44-0.079,0.92-0.13,1.39
				c-0.109,0.961-0.26,1.9-0.43,2.4l-0.24-0.09c0.181-0.51,0.33-1.51,0.44-2.53c0.06-0.55,0.109-1.1,0.14-1.58
				c0.021-0.22,0.04-0.43,0.05-0.609C30.38,31.4,30.4,31.1,30.4,31.09L30.65,31.11z"/>
		</g>
		<g>
			<path d="M34.25,24.68c-0.11,0.05-0.25,0.09-0.4,0.14c-0.34,0.08-0.77,0.16-1.319,0.23c-0.16,0.01-0.33,0.03-0.521,0.05
				l-0.02-0.24c0.14-0.02,0.3-0.03,0.47-0.05c0.41-0.05,0.85-0.12,1.23-0.22c0.17-0.04,0.329-0.09,0.46-0.15L34.25,24.68z"/>
		</g>
		<g>
			<path d="M38.26,27.91c-0.43,0.18-1.12,0.35-1.85,0.479c-0.771,0.15-1.58,0.271-2.15,0.341c-0.439,0.06-0.729,0.09-0.779,0.1
				l-0.021-0.25c0.01,0,0.271-0.03,0.68-0.08c0.54-0.08,1.341-0.19,2.11-0.33c0.76-0.14,1.48-0.31,1.92-0.49L38.26,27.91z"/>
		</g>
	</g>
</g>
<g>
	<g>
		<path d="M23.03,22.62c-0.011-0.05-0.011-0.1-0.021-0.15c0-0.01,0-0.02-0.01-0.03c-0.02-0.2-0.06-0.41-0.1-0.64
			c-0.021-0.11-0.04-0.23-0.061-0.35v-0.03c-0.04-0.19-0.07-0.4-0.109-0.63c-0.021-0.09-0.03-0.22-0.051-0.37
			c-0.09-0.86-0.18-1.53-0.43-1.86c-0.45-0.58-1.29-0.65-1.87-0.65c-0.27,0-0.55,0.02-0.79,0.03c-0.189,0.02-0.399,0.04-0.58,0.03
			c-0.33-0.01-0.63-0.05-0.91-0.08c-0.31-0.03-0.59-0.06-0.859-0.06c-1.101,0-1.75,0.56-2.19,1.86l-0.26,0.79
			c-0.05,0.16-0.11,0.31-0.16,0.47c-0.21,0.61-0.42,1.22-0.59,1.85v0.01c-0.15,0.51-0.271,1.02-0.36,1.54
			c-0.029,0.17-0.069,0.35-0.109,0.51c-0.021,0.08-0.04,0.16-0.061,0.24c-0.3,1.04-0.819,1.99-1.37,2.98
			c-0.09,0.16-0.17,0.32-0.26,0.479h-0.01c-0.03,0.08-0.07,0.16-0.11,0.23c-0.54,1.02-1.04,2.08-1.25,3.27v0.011
			c-0.02,0.109-0.029,0.21-0.04,0.319c-0.02,0.11-0.029,0.221-0.04,0.341l-0.04,0.39l4.36,1.46l0.16,0.02
			c0.18,0,0.75-0.09,1.399-1.1c0.07-0.11,0.15-0.23,0.23-0.37v-0.01c0.06-0.12,0.13-0.24,0.19-0.38c0.46-0.98,1.569-2.431,2.67-3.79
			c0.119-0.141,0.229-0.28,0.34-0.41c0.08-0.1,0.16-0.2,0.229-0.29c0.04-0.04,0.07-0.08,0.101-0.12c0.1-0.12,0.189-0.229,0.279-0.34
			c0.62-0.75,1.181-1.43,1.57-1.95c0.68-0.92,1-1.52,1.1-2.12C23.09,23.38,23.08,23.03,23.03,22.62z M21.12,25.24
			c-0.38,0.51-0.93,1.18-1.54,1.92c-1.38,1.68-3.11,3.77-3.76,5.16c-0.42,0.899-0.771,1.18-0.9,1.26l-3.46-1.15
			c0.21-1.399,0.87-2.6,1.56-3.87c0.681-1.25,1.391-2.54,1.65-4.04c0.22-1.25,0.65-2.5,1.061-3.72L16,20.01
			c0.37-1.09,0.76-1.18,1.24-1.18c0.229,0,0.479,0.03,0.75,0.06c0.31,0.03,0.64,0.07,1.08,0.08c0.17,0,0.359-0.01,0.58-0.03
			c0.229-0.01,0.479-0.03,0.729-0.03c0.72,0,0.98,0.14,1.07,0.26c0.109,0.18,0.21,1.03,0.24,1.35c0.02,0.17,0.029,0.32,0.05,0.42
			c0.06,0.39,0.12,0.73,0.17,1.03c0.16,0.9,0.24,1.36,0.05,1.89c0,0.01,0,0.01,0,0.01C21.82,24.24,21.57,24.64,21.12,25.24z"/>
	</g>
	<g opacity="0.1">
		<path d="M17.261,29.522l-0.225-0.109c1.384-2.861,2.224-4.667,2.507-5.388c-0.035,0.013-0.073,0.012-0.116-0.017
			c-0.138-0.093-0.156-0.105,1.557-3.492l0.223,0.113c-0.509,1.007-1.148,2.278-1.436,2.903c0.021,0.001,0.044,0.009,0.067,0.025
			C19.982,23.654,20.07,23.712,17.261,29.522z"/>
	</g>
</g>
<g>
	<g>
		<path d="M35.63,32.73c-0.03-0.381-0.09-0.75-0.18-1.101c-0.021-0.12-0.061-0.24-0.101-0.36C35.1,30.37,34.7,29.54,34.26,28.73
			c-0.04-0.07-0.08-0.15-0.12-0.23c-0.08-0.14-0.149-0.28-0.229-0.42c-0.55-1.01-1.08-1.97-1.38-3.03
			c-0.021-0.08-0.04-0.16-0.07-0.24c-0.03-0.15-0.06-0.3-0.09-0.46c-0.15-0.85-0.38-1.68-0.64-2.5c-0.021-0.06-0.04-0.13-0.07-0.2
			c-0.09-0.28-0.18-0.56-0.28-0.84c-0.03-0.11-0.07-0.22-0.11-0.33l-0.13-0.37L31,19.69c-0.43-1.3-1.09-1.86-2.19-1.86
			c-0.26,0-0.55,0.03-0.859,0.06c-0.28,0.03-0.58,0.07-0.97,0.08c-0.15,0-0.32-0.01-0.511-0.03c-0.25-0.01-0.52-0.03-0.79-0.03
			c-0.59,0-1.42,0.07-1.87,0.65c-0.26,0.33-0.34,0.97-0.439,1.85c-0.021,0.15-0.03,0.29-0.04,0.38c-0.03,0.22-0.07,0.42-0.1,0.6
			c-0.011,0.04-0.011,0.07-0.021,0.1c-0.01,0.11-0.03,0.21-0.05,0.31c-0.04,0.23-0.08,0.44-0.11,0.63v0.05
			c-0.01,0.05-0.02,0.09-0.02,0.14c-0.061,0.41-0.07,0.76-0.011,1.1c0.101,0.6,0.421,1.2,1.11,2.12c0.39,0.521,0.95,1.2,1.57,1.95
			c0.149,0.18,0.3,0.36,0.45,0.55c0.08,0.09,0.159,0.19,0.239,0.29c0.69,0.84,1.4,1.73,1.971,2.54h0.01
			c0.41,0.58,0.75,1.12,0.96,1.57c0.29,0.62,0.57,1.029,0.83,1.31c0.08,0.09,0.16,0.16,0.229,0.22c0.36,0.29,0.63,0.33,0.75,0.33
			h0.08l3.59-1.199l0.851-0.28L35.63,32.73z M31.14,33.58c-0.109-0.061-0.33-0.23-0.62-0.7c-0.069-0.12-0.14-0.25-0.22-0.41
			c-0.02-0.05-0.05-0.1-0.069-0.149c-0.091-0.2-0.2-0.4-0.33-0.62c-0.79-1.351-2.23-3.09-3.431-4.54c-0.6-0.74-1.16-1.41-1.529-1.92
			c-1.11-1.49-1.07-1.76-0.801-3.27c0.051-0.3,0.11-0.64,0.17-1.03c0.021-0.1,0.04-0.25,0.061-0.42c0.03-0.32,0.12-1.17,0.229-1.35
			c0.091-0.12,0.351-0.26,1.08-0.26c0.25,0,0.5,0.02,0.73,0.03c0.21,0.02,0.39,0.03,0.66,0.03c0.35-0.01,0.689-0.05,0.989-0.08
			c0.271-0.03,0.521-0.06,0.75-0.06c0.48,0,0.881,0.09,1.24,1.18l0.271,0.79c0.42,1.22,0.85,2.47,1.069,3.72
			c0.261,1.5,0.96,2.79,1.641,4.04c0.7,1.271,1.359,2.471,1.56,3.87l-1.32,0.44L31.14,33.58z"/>
	</g>
	<g opacity="0.1">
		<path d="M29.02,29.41L28.79,29.52c-2.81-5.81-2.72-5.87-2.57-5.959c0.021-0.02,0.04-0.03,0.061-0.03
			c-0.28-0.62-0.92-1.89-1.431-2.9l0.221-0.11c1.71,3.38,1.689,3.4,1.56,3.49c-0.05,0.03-0.08,0.03-0.12,0.01
			C26.79,24.75,27.63,26.55,29.02,29.41z"/>
	</g>
</g>
<g opacity="0.1">
	<path fill="#FFFFFF" stroke="#000000" stroke-width="0.25" stroke-miterlimit="10" d="M33.031,33.031"/>
</g>
<g opacity="0.1">
	<path fill="#FFFFFF" stroke="#000000" stroke-width="0.25" stroke-miterlimit="10" d="M27.188,18.563"/>
</g>
</svg>
