<?xml version="1.0" encoding="utf-8"?>
<!-- Generator: Adobe Illustrator 16.0.0, SVG Export Plug-In . SVG Version: 6.00 Build 0)  -->
<!DOCTYPE svg PUBLIC "-//W3C//DTD SVG 1.1//EN" "http://www.w3.org/Graphics/SVG/1.1/DTD/svg11.dtd">
<svg version="1.1" id="Layer_1" xmlns="http://www.w3.org/2000/svg" xmlns:xlink="http://www.w3.org/1999/xlink" x="0px" y="0px"
	 width="50px" height="50px" viewBox="0 0 50 50" enable-background="new 0 0 50 50" xml:space="preserve">
<g>
	<path d="M36.525,40.702l-0.373,0.303c-2.92,2.408-7.574,3.723-12.216,3.723c-2.665,0-5.317-0.43-7.644-1.338
		c-0.035-0.011-4.165-1.861-4.444-2.594l-0.093-0.244l0.116-0.268c0.046-0.082,0.314-0.593,0.664-1.268l0.768-1.49l0.279-0.535
		l1.036,0.535l-0.244,0.477l-0.803,1.548c-0.187,0.349-0.337,0.651-0.454,0.884c0.826,0.524,3.165,1.699,3.607,1.874
		c5.735,2.234,13.973,1.349,18.325-1.908l-0.966-1.827l-0.268-0.488l1.023-0.547l0.268,0.5L36.525,40.702z"/>
</g>
<g>
	<path d="M40.655,23.402v-1.105h-0.104c0.058-0.268,0.093-0.535,0.093-0.803c0-1.745-1.21-3.409-3.433-4.724
		c-0.186-0.117-0.384-0.233-0.582-0.337l-0.535,1.023c0.151,0.082,0.291,0.163,0.431,0.244c1.919,1.117,2.955,2.444,2.955,3.793
		c0,0.221-0.023,0.442-0.093,0.663c-0.815,3.292-7.528,5.864-15.288,5.864c-7.76,0-14.485-2.571-15.312-5.875
		c-0.058-0.209-0.082-0.43-0.082-0.651c0-3.537,7.051-6.527,15.393-6.527c1.559,0,3.095,0.104,4.642,0.326
		c0.384,0.035,0.768,0.093,1.152,0.163l0.104-1.152c-0.104-0.023-0.209-0.035-0.326-0.046c-1.792-0.314-3.677-0.454-5.573-0.454
		c-9.285,0-16.556,3.374-16.556,7.69c0,0.268,0.035,0.535,0.093,0.803h-0.07c0,0.651-0.012,1.303-0.023,1.943
		c-0.093,5.317-0.187,10.332,5.747,13.275c0,0,0.012,0,0.012,0.011c0.151,0.07,0.291,0.14,0.442,0.209l0.117,0.047
		c0.174,0.081,0.337,0.163,0.512,0.221c3.56,1.594,7.388,2.397,11.03,2.397c2.803,0,5.491-0.477,7.841-1.443
		c0.291-0.128,0.57-0.244,0.838-0.384c0.174-0.081,0.349-0.162,0.512-0.255c0.174-0.093,0.349-0.187,0.512-0.28
		C40.702,34.78,40.679,29.243,40.655,23.402z M34.047,37.293c-0.396,0.209-0.814,0.407-1.256,0.593
		c-5.248,2.152-12.31,1.71-18.441-1.151l-0.116-0.059c-0.128-0.058-0.268-0.117-0.408-0.198c-5.247-2.595-5.212-6.992-5.119-12.089
		c2.408,2.862,8.342,4.794,15.393,4.794c6.946,0,12.972-1.978,15.393-4.84C39.503,29.847,39.236,34.559,34.047,37.293z"/>
</g>
<g>
	<path d="M36.374,20.819c0,0.663-0.268,1.291-0.791,1.873c-0.465,0.523-1.14,1.001-1.99,1.419c-0.908,0.454-2.001,0.85-3.246,1.14
		c-0.198,0.058-0.407,0.104-0.617,0.14c-0.721,0.151-1.478,0.279-2.28,0.373c-0.279,0.035-0.57,0.058-0.861,0.081
		c-0.337,0.035-0.687,0.059-1.036,0.07c-0.104,0-0.198,0.012-0.303,0.012c-0.383,0.012-0.768,0.023-1.151,0.023h-0.012
		c-0.011,0-0.011,0-0.022,0c-0.419,0-0.827-0.012-1.233-0.023c-0.012,0-0.023,0-0.023,0c-0.419-0.023-0.826-0.046-1.222-0.082
		c-0.279-0.023-0.558-0.046-0.826-0.081c-0.186-0.023-0.372-0.047-0.547-0.07c-0.349-0.046-0.698-0.093-1.036-0.151
		c-0.337-0.059-0.675-0.128-0.989-0.198c-0.302-0.07-0.605-0.14-0.896-0.221c-0.57-0.151-1.117-0.326-1.617-0.523
		c-0.256-0.093-0.489-0.198-0.721-0.302c-0.128-0.07-0.256-0.128-0.384-0.187c-0.117-0.07-0.245-0.14-0.361-0.198
		c-0.117-0.07-0.233-0.128-0.337-0.198c-0.384-0.245-0.733-0.5-1.012-0.768c-0.023-0.023-0.058-0.046-0.082-0.07h-0.012
		l-0.186-0.198c-0.023-0.023-0.035-0.046-0.046-0.07c-0.151-0.163-0.256-0.326-0.35-0.488c-0.058-0.082-0.092-0.174-0.139-0.256
		c-0.035-0.07-0.07-0.151-0.093-0.232c-0.012-0.035-0.023-0.07-0.036-0.105c-0.069-0.232-0.104-0.465-0.104-0.709
		c0-0.104,0-0.198,0.012-0.314c0.011-0.081,0.023-0.151,0.046-0.221c0.012-0.07,0.023-0.128,0.046-0.174
		c0.78-2.56,5.887-4.422,12.182-4.422c1.408,0,2.757,0.105,4.002,0.28c0.104,0.011,0.209,0.035,0.314,0.046l-0.187,1.152
		c-0.361-0.058-0.733-0.117-1.117-0.151c-0.954-0.104-1.966-0.163-3.013-0.163c-6.12,0-10.46,1.827-11.053,3.549l-0.012,0.047
		c-0.023,0.046-0.035,0.104-0.046,0.151c-0.012,0.023-0.012,0.058-0.012,0.082v0.14c0,0.081,0.012,0.174,0.023,0.256
		c0.035,0.151,0.093,0.302,0.174,0.454c0.14,0.244,0.349,0.488,0.628,0.733c0.116,0.104,0.256,0.221,0.418,0.313
		c0.082,0.059,0.175,0.105,0.256,0.163c0.244,0.151,0.5,0.291,0.779,0.419c0.28,0.128,0.582,0.268,0.908,0.384
		c0.209,0.082,0.442,0.163,0.674,0.233c0.245,0.093,0.5,0.163,0.768,0.233c0.756,0.198,1.583,0.372,2.478,0.489
		c0.454,0.081,0.931,0.139,1.431,0.174c0.117,0.011,0.233,0.023,0.361,0.035c0.326,0.023,0.664,0.046,1.012,0.059
		c0.384,0.011,0.78,0.023,1.176,0.023c0.011,0,0.011,0,0.022,0c2.304,0,4.352-0.256,6.05-0.675c0.058-0.012,0.116-0.035,0.174-0.046
		c0.105-0.023,0.209-0.047,0.314-0.082c0.07-0.023,0.151-0.035,0.221-0.07c0.163-0.035,0.326-0.082,0.477-0.14
		c0.314-0.093,0.605-0.198,0.885-0.314c0.232-0.082,0.453-0.174,0.663-0.28c0.186-0.081,0.372-0.174,0.535-0.279
		c0.198-0.104,0.372-0.221,0.535-0.326c0.081-0.058,0.163-0.116,0.233-0.174c0.291-0.221,0.523-0.453,0.697-0.698
		c0.047-0.058,0.082-0.116,0.117-0.174c0.07-0.117,0.116-0.232,0.151-0.349c0.036-0.059,0.047-0.117,0.047-0.187
		c0-0.023,0.012-0.058,0.012-0.081c0.012-0.036,0.012-0.07,0.012-0.093l-0.035-0.326c-0.012-0.023-0.012-0.035-0.023-0.059
		c-0.058-0.174-0.151-0.349-0.291-0.523c-0.104-0.152-0.256-0.314-0.431-0.478l0.78-0.861c0.14,0.116,0.256,0.244,0.373,0.373
		c0.337,0.384,0.57,0.791,0.675,1.198l0.011,0.012c0.023,0.058,0.047,0.128,0.047,0.198c0.011,0.07,0.023,0.14,0.035,0.221
		c0.012,0.023,0.012,0.047,0.012,0.082C36.362,20.656,36.374,20.737,36.374,20.819z"/>
</g>
<g>
	<g>
		<path d="M44.844,6.427l-0.012,0.151L37.211,16.77l-0.686,0.93l-0.942,1.246l-0.722,0.966l-2.652,3.548l-1.082,1.454l-0.931-0.698
			l0.105-0.14l0.011-0.011L43.715,6.136c0.07-0.779-0.093-1.373-0.465-1.769c-0.652-0.709-1.838-0.675-1.85-0.675
			c-1.327,0.198-3.898,3.223-6.864,6.736c-1.723,2.013-3.666,4.316-5.783,6.539c-2.001,2.129-4.014,4.282-5.899,6.271l-1.338,1.431
			l-0.791,0.837l-0.85-0.791l0.209-0.221l1.932-2.048c1.629-1.733,3.363-3.583,5.096-5.433c0.268-0.279,0.523-0.559,0.791-0.838
			c0.07-0.069,0.128-0.139,0.198-0.209c0.209-0.221,0.419-0.454,0.64-0.675c0.314-0.349,0.628-0.698,0.931-1.036
			c1.431-1.583,2.758-3.153,3.968-4.584c3.385-3.991,5.829-6.865,7.644-7.132c0.128-0.012,1.78-0.081,2.815,1.024
			C44.751,4.263,44.995,5.216,44.844,6.427z"/>
	</g>
</g>
<g>
	<path d="M36.362,20.819c0,1.256-1.036,2.396-2.769,3.292c-0.908,0.454-2.001,0.85-3.246,1.14c-0.198,0.058-0.407,0.104-0.617,0.14
		c-0.721,0.151-1.478,0.279-2.28,0.373c-0.279,0.035-0.57,0.058-0.861,0.081c-0.337,0.035-0.687,0.059-1.036,0.07
		c-0.104,0-0.198,0.012-0.303,0.012c-0.383,0.012-0.768,0.023-1.151,0.023h-0.012c-0.011,0-0.011,0-0.022,0
		c-0.419,0-0.827-0.012-1.233-0.023c-0.012,0-0.023,0-0.023,0c-0.419-0.023-0.826-0.046-1.222-0.082
		c-0.279-0.023-0.558-0.046-0.826-0.081c-0.186-0.023-0.372-0.047-0.547-0.07c-0.349-0.046-0.698-0.093-1.036-0.151
		c-0.337-0.059-0.675-0.128-0.989-0.198c-0.302-0.07-0.605-0.14-0.896-0.221c-0.57-0.163-1.117-0.337-1.617-0.523
		c-0.256-0.093-0.489-0.198-0.721-0.302c-0.128-0.07-0.256-0.128-0.384-0.187c-0.117-0.07-0.245-0.14-0.361-0.198
		c-0.117-0.07-0.233-0.128-0.337-0.198c-0.384-0.245-0.733-0.5-1.012-0.768c-0.117-0.116-0.221-0.233-0.326-0.337
		c-0.128-0.163-0.256-0.326-0.35-0.488c-0.058-0.082-0.092-0.174-0.139-0.256c-0.035-0.07-0.07-0.151-0.093-0.232
		c-0.012-0.035-0.023-0.07-0.036-0.105c-0.081-0.232-0.116-0.465-0.116-0.709c0-0.117,0.011-0.221,0.023-0.314
		c0.011-0.081,0.023-0.151,0.046-0.221c0.012-0.07,0.023-0.128,0.046-0.174c0.023-0.059,0.059-0.117,0.082-0.175l1.035,0.512
		c-0.023,0.046-0.035,0.104-0.046,0.151c-0.012,0.023-0.012,0.058-0.012,0.082c-0.011,0.046-0.011,0.093-0.011,0.14
		c0,0.081,0.011,0.174,0.035,0.256c0.023,0.151,0.081,0.302,0.174,0.454c0.14,0.244,0.349,0.488,0.628,0.733
		c0.116,0.104,0.256,0.221,0.418,0.313c0.082,0.059,0.175,0.105,0.256,0.163c0.244,0.151,0.5,0.291,0.779,0.419
		c0.28,0.128,0.582,0.268,0.908,0.384c0.209,0.082,0.442,0.163,0.674,0.233c0.245,0.081,0.5,0.163,0.768,0.233
		c0.756,0.198,1.583,0.372,2.478,0.489c0.454,0.081,0.931,0.139,1.431,0.174c0.117,0.011,0.233,0.023,0.361,0.035
		c0.326,0.023,0.664,0.046,1.012,0.059c0.384,0.011,0.78,0.023,1.176,0.023c0.011,0,0.011,0,0.022,0c2.304,0,4.352-0.256,6.05-0.675
		c0.058-0.012,0.116-0.023,0.163-0.035l0.011-0.011c0.105-0.023,0.209-0.047,0.314-0.082c0.07-0.023,0.151-0.035,0.221-0.07
		c0.163-0.035,0.326-0.082,0.477-0.14c0.314-0.093,0.605-0.198,0.885-0.314c0.232-0.082,0.453-0.174,0.663-0.28
		c0.186-0.092,0.372-0.186,0.535-0.279c0.198-0.104,0.372-0.221,0.535-0.326c0.081-0.058,0.163-0.116,0.233-0.174
		c0.291-0.221,0.523-0.453,0.697-0.698c0.047-0.058,0.082-0.116,0.117-0.174c0.07-0.117,0.116-0.232,0.151-0.349
		c0.023-0.07,0.036-0.128,0.047-0.187c0-0.023,0.012-0.058,0.012-0.081v-0.093c0-0.151-0.023-0.268-0.07-0.372l0.023-0.012
		l1.012-0.5c0.035,0.069,0.07,0.139,0.093,0.209c0.023,0.058,0.046,0.14,0.058,0.209c0.011,0.07,0.023,0.14,0.035,0.221
		C36.362,20.656,36.362,20.737,36.362,20.819z"/>
</g>
</svg>
