<?xml version="1.0" encoding="utf-8"?>
<!-- Generator: Adobe Illustrator 16.0.0, SVG Export Plug-In . SVG Version: 6.00 Build 0)  -->
<!DOCTYPE svg PUBLIC "-//W3C//DTD SVG 1.1//EN" "http://www.w3.org/Graphics/SVG/1.1/DTD/svg11.dtd">
<svg version="1.1" id="Layer_1" xmlns="http://www.w3.org/2000/svg" xmlns:xlink="http://www.w3.org/1999/xlink" x="0px" y="0px"
	 width="50px" height="50px" viewBox="0 0 50 50" enable-background="new 0 0 50 50" xml:space="preserve">
<g>
	<g>
		<path d="M22.851,43.451c-1.243,0-5.373-0.887-6.581-1.364c-5.046-1.995-6.754-22.822-6.932-25.19l1.496-0.113
			c0.646,8.584,2.843,22.666,5.988,23.909c1.106,0.438,5.217,1.313,6.073,1.258h0.151v1.5h-0.13
			C22.896,43.451,22.874,43.451,22.851,43.451z"/>
	</g>
	<g>
		<path d="M22.981,20.677c-4.721,0-13.648-0.81-13.648-3.875s8.927-3.876,13.648-3.876s13.648,0.811,13.648,3.876
			S27.702,20.677,22.981,20.677z M22.981,14.426c-8.015,0-12.148,1.665-12.148,2.376c0,0.71,4.133,2.375,12.148,2.375
			s12.148-1.665,12.148-2.375C35.129,16.091,30.996,14.426,22.981,14.426z"/>
	</g>
	<g>
		<path d="M23.102,43.451c-0.027,0-0.051-0.001-0.074-0.001h-0.108v-1.5h0.13c1.132,0.059,5.162-0.61,5.93-1.167
			c3.867-2.81,5.752-18.274,6.152-23.996l1.496,0.105c-0.061,0.868-1.547,21.313-6.767,25.104
			C28.634,42.887,24.213,43.451,23.102,43.451z"/>
	</g>
	<g>
		<path d="M34.692,38.685c-0.958,0-1.897-0.157-2.749-0.469l0.446-1.221c2.779,1.017,6.851,0.012,8.253-3.053
			c1.394-3.043,1.862-7.252-0.401-9.301c-1.274-1.153-3.208-1.258-4.93-1.23l-0.029-1.299c1.984-0.054,4.22,0.105,5.832,1.566
			c2.748,2.487,2.294,7.345,0.71,10.805C40.537,37.3,37.537,38.684,34.692,38.685z"/>
	</g>
	<g>
		<path d="M34.666,37.121c-0.774,0-1.534-0.127-2.223-0.379l0.446-1.221c2.149,0.784,5.299,0.013,6.38-2.353
			c1.086-2.371,1.459-5.644-0.286-7.225c-0.976-0.883-2.477-0.972-3.819-0.941l-0.029-1.299c1.597-0.046,3.406,0.087,4.721,1.277
			c2.563,2.32,1.58,6.578,0.596,8.729C39.406,35.997,36.973,37.12,34.666,37.121z"/>
	</g>
</g>
</svg>
