<?xml version="1.0" encoding="utf-8"?>
<!-- Generator: Adobe Illustrator 16.0.0, SVG Export Plug-In . SVG Version: 6.00 Build 0)  -->
<!DOCTYPE svg PUBLIC "-//W3C//DTD SVG 1.1//EN" "http://www.w3.org/Graphics/SVG/1.1/DTD/svg11.dtd">
<svg version="1.1" id="Layer_1" xmlns="http://www.w3.org/2000/svg" xmlns:xlink="http://www.w3.org/1999/xlink" x="0px" y="0px"
	 width="50px" height="50px" viewBox="0 0 50 50" enable-background="new 0 0 50 50" xml:space="preserve">
<g>
	<g>
		<g>
			<g>
				<path d="M32.544,42.08c-0.165,0-0.331-0.004-0.501-0.01l-0.249-0.01L5.908,4.668L5.95,4.459c0.19-0.951,1.236-2.752,3.827-2.752
					c0.319,0,0.659,0.027,1.009,0.081l0.169,0.026l0.117,0.124l31.836,33.557l-0.144,0.309C42.735,35.866,39.758,42.08,32.544,42.08
					z M32.33,41.078c0.071,0.001,0.143,0.002,0.214,0.002c5.767,0,8.505-4.218,9.16-5.401L10.468,2.753
					c-0.24-0.03-0.472-0.046-0.69-0.046c-1.977,0-2.616,1.268-2.791,1.761L32.33,41.078z"/>
				<path d="M32.544,42.33c-0.168,0-0.337-0.004-0.51-0.01l-0.375-0.015l-0.07-0.103L5.643,4.723L5.705,4.41
					c0.204-1.021,1.318-2.953,4.072-2.953c0.332,0,0.685,0.028,1.047,0.084l0.254,0.04l0.176,0.186l31.953,33.68l-0.216,0.463
					C42.961,35.974,39.896,42.33,32.544,42.33z M31.929,41.815l0.124,0.005c7.367,0.264,10.456-6.06,10.485-6.123l0.071-0.153
					L10.832,2.048l-0.084-0.013c-0.338-0.052-0.664-0.078-0.971-0.078c-2.43,0-3.405,1.669-3.582,2.551L6.174,4.613L31.929,41.815z
					 M32.544,41.33l-0.346-0.004l-0.073-0.105L6.708,4.505l0.043-0.121c0.205-0.579,0.911-1.927,3.026-1.927
					c0.227,0,0.47,0.016,0.722,0.048l0.089,0.011l0.062,0.065L42.012,35.64l-0.089,0.16C41.204,37.097,38.405,41.33,32.544,41.33z
					 M32.462,40.829l0.082,0.001c5.368,0,8.042-3.724,8.852-5.113L10.349,2.99c-0.199-0.021-0.392-0.033-0.571-0.033
					c-1.663,0-2.291,0.955-2.51,1.478L32.462,40.829z"/>
			</g>
		</g>
	</g>
	<g>
		<g>
			<polygon points="6.956,5.793 6.946,5.793 6.946,4.793 			"/>
			<polygon points="7.209,6.043 6.696,6.043 6.696,4.793 7.196,4.791 			"/>
		</g>
	</g>
	<g>
		<g>
			<g>
				<path d="M31.878,44.783c-0.191,0-0.385-0.004-0.581-0.011l-0.216-0.009l-0.238-0.279L5.226,6.79l0.045-0.209
					c0.061-0.28,0.086-0.396,0.216-0.515l0.336,0.37l0.202,0.07l0.148-0.102l25.4,37.375c5.288,0.082,8.685-2.899,9.895-4.216
					l0.736,0.676C40.928,41.632,37.42,44.783,31.878,44.783z"/>
				<path d="M31.878,45.033c-0.194,0-0.391-0.004-0.59-0.011l-0.326-0.014l-0.31-0.362L4.959,6.842l0.067-0.313
					C5.09,6.232,5.129,6.054,5.318,5.882l0.185-0.169l0.484,0.517l0.251-0.172L6.38,6.265l25.326,37.267l0.081,0.001
					c5.14,0,8.354-2.894,9.497-4.137l0.169-0.185l1.104,1.014l-0.169,0.185C41.113,41.8,37.536,45.033,31.878,45.033z
					 M31.199,44.519l0.107,0.004c5.528,0.194,9.134-2.797,10.542-4.269l-0.368-0.338c-1.317,1.371-4.593,4.116-9.693,4.116
					l-0.348-0.004l-0.073-0.107L6.107,6.753L6.062,6.784l-0.425-0.18L5.544,6.502c-0.009,0.037-0.018,0.08-0.029,0.132L5.492,6.738
					L31.05,44.344L31.199,44.519z"/>
			</g>
		</g>
	</g>
	<g>
		<g>
			<path d="M5.192,6.709c-0.12-4.155,3.479-4.811,3.516-4.816l0.166,0.986L8.791,2.386l0.085,0.492
				C8.763,2.898,6.098,3.41,6.192,6.68L5.192,6.709z"/>
			<path d="M4.95,6.966l-0.008-0.25C4.815,2.321,8.63,1.652,8.668,1.646l0.245-0.039L9.164,3.08L8.919,3.124
				c-0.104,0.02-2.564,0.507-2.477,3.549l0.007,0.249L4.95,6.966z M8.506,2.197c-0.764,0.215-3.04,1.118-3.066,4.254L5.94,6.437
				c0.034-2.719,1.958-3.537,2.648-3.744L8.506,2.197z"/>
		</g>
	</g>
	<g>
		<g>
			<g>
				<path d="M42.206,40.229l-0.746-0.666c1.376-1.541,0.438-3.674,0.396-3.764l0.909-0.415
					C42.818,35.498,44.022,38.195,42.206,40.229z"/>
				<path d="M42.226,40.582l-1.118-0.999l0.166-0.187c1.276-1.429,0.365-3.473,0.355-3.493l-0.104-0.228l1.362-0.621l0.104,0.225
					c0.056,0.119,1.338,2.946-0.6,5.117L42.226,40.582z M41.806,39.537l0.374,0.334c1.218-1.563,0.687-3.493,0.451-4.149
					l-0.455,0.207C42.393,36.534,42.835,38.188,41.806,39.537z"/>
			</g>
		</g>
	</g>
	<g>
		<g>
			<g>
				<rect x="31.113" y="41.611" transform="matrix(0.9555 0.295 -0.295 0.9555 14.1128 -7.4102)" width="1" height="2.904"/>
				<path d="M31.828,44.91l-1.433-0.442l1.002-3.253l1.433,0.442L31.828,44.91z M31.021,44.138l0.478,0.147l0.707-2.298
					l-0.478-0.147L31.021,44.138z"/>
			</g>
		</g>
	</g>
</g>
</svg>
