<?xml version="1.0" encoding="utf-8"?>
<!-- Generator: Adobe Illustrator 16.0.0, SVG Export Plug-In . SVG Version: 6.00 Build 0)  -->
<!DOCTYPE svg PUBLIC "-//W3C//DTD SVG 1.1//EN" "http://www.w3.org/Graphics/SVG/1.1/DTD/svg11.dtd">
<svg version="1.1" id="Layer_1" xmlns="http://www.w3.org/2000/svg" xmlns:xlink="http://www.w3.org/1999/xlink" x="0px" y="0px"
	 width="50px" height="50px" viewBox="0 0 50 50" enable-background="new 0 0 50 50" xml:space="preserve">
<g>
	<g>
		<path d="M25.153,37.442c-0.292,0-0.575-0.016-0.826-0.061c-0.243,0-0.499-0.004-0.764-0.01l-0.514-0.006
			c-1.985,0-3.855-0.54-5.487-1.489l-0.113-0.025l0.063-0.004c-3.578-2.105-6.008-6.184-6.008-10.859
			c0-3.179,1.108-6.177,3.122-8.443c2.146-2.496,5.221-3.934,8.424-3.934c0.755,0,1.409,0.07,1.994,0.21
			c0.958-0.268,1.961-0.332,3.016-0.192c2.722,0.356,5.457,1.82,7.318,3.916c2.014,2.267,3.122,5.265,3.122,8.443
			c0,6.824-5.187,12.378-11.563,12.378c-0.197,0-0.447,0.016-0.712,0.031C25.877,37.419,25.507,37.442,25.153,37.442z
			 M25.679,35.286l0.019,0.129c0.14-0.006,0.277-0.016,0.402-0.023c0.312-0.018,0.603-0.035,0.835-0.035
			c5.268,0,9.554-4.65,9.554-10.368c0-2.687-0.929-5.209-2.616-7.109c-1.44-1.622-3.596-2.825-5.703-3.2
			c0.117,0.322,0.431,0.604,0.533,1.17l-0.064,0.688l-1.348-0.72c-1.758-0.816-1.353-0.56-2.232-0.894
			c-1.052,0.412-0.865,0.19-2.257,1.019l-1.654,0.589l0.335-1.06c0.085-0.453-0.012-0.408,0.222-0.751
			c-2.133,0.321-4.073,1.41-5.565,3.146c-1.697,1.912-2.625,4.435-2.625,7.121c0,5.718,4.277,10.368,9.536,10.368l0.551,0.008
			c0.23,0.004,0.504,0.004,0.816,0.008L25.679,35.286z"/>
	</g>
	<g opacity="0.05">
		<circle cx="21.838" cy="20.433" r="0.502"/>
		<circle cx="28.702" cy="20.433" r="0.502"/>
		<circle cx="32.721" cy="20.433" r="0.502"/>
		<circle cx="25.021" cy="23.738" r="0.502"/>
		<circle cx="25.524" cy="28.093" r="0.502"/>
		<circle cx="21.335" cy="26.005" r="0.502"/>
		<circle cx="29.205" cy="27.59" r="0.502"/>
		<circle cx="21.335" cy="30.354" r="0.502"/>
		<circle cx="16.772" cy="25.503" r="0.502"/>
		<circle cx="32.721" cy="24.241" r="0.502"/>
		<circle cx="29.707" cy="32.236" r="0.502"/>
		<circle cx="17.275" cy="20.935" r="0.502"/>
	</g>
</g>
</svg>
