<?xml version="1.0" encoding="utf-8"?>
<!-- Generator: Adobe Illustrator 16.0.0, SVG Export Plug-In . SVG Version: 6.00 Build 0)  -->
<!DOCTYPE svg PUBLIC "-//W3C//DTD SVG 1.1//EN" "http://www.w3.org/Graphics/SVG/1.1/DTD/svg11.dtd">
<svg version="1.1" id="Layer_1" xmlns="http://www.w3.org/2000/svg" xmlns:xlink="http://www.w3.org/1999/xlink" x="0px" y="0px"
	 width="50px" height="50px" viewBox="0 0 50 50" enable-background="new 0 0 50 50" xml:space="preserve">
<g>
	<g>
		<g>
			<path d="M13.744,40.815C5.523,40.815,0,36.05,0,28.957c0-2.216,0.552-4.478,1.555-6.369c1.061-2,2.518-3.666,4.214-4.815
				c0.468-0.316,0.988-0.62,1.59-0.929c0.138-0.071,0.271-0.151,0.405-0.231c0.24-0.143,0.48-0.284,0.74-0.391l0.23-0.089
				c0.209-0.078,0.374-0.139,0.497-0.251c0.986-0.901,1.523-2.412,1.368-3.849c-0.041-0.372-0.139-0.739-0.291-1.093
				c-0.168-0.389-0.324-0.75-0.56-1.022C9.696,9.856,9.637,9.798,9.578,9.74C9.442,9.605,9.309,9.469,9.199,9.308
				C8.762,8.661,8.563,7.769,8.655,6.86c0.063-0.629,0.275-1.328,0.63-2.08l0.968,0.458C9.95,5.879,9.771,6.46,9.72,6.967
				c-0.065,0.655,0.071,1.305,0.366,1.742c0.069,0.102,0.158,0.185,0.243,0.269c0.079,0.078,0.157,0.155,0.23,0.239
				c0.345,0.399,0.549,0.874,0.729,1.292c0.198,0.459,0.323,0.931,0.375,1.409c0.194,1.792-0.461,3.614-1.71,4.754
				c-0.277,0.252-0.579,0.365-0.845,0.464l-0.197,0.077c-0.211,0.086-0.404,0.204-0.599,0.32c-0.153,0.091-0.307,0.182-0.466,0.264
				c-0.563,0.289-1.047,0.571-1.479,0.864c-1.551,1.05-2.889,2.582-3.867,4.429c-0.923,1.739-1.431,3.822-1.431,5.867
				c0,7.452,6.365,10.788,12.674,10.788c6.299,0,12.656-3.336,12.656-10.788c0-1.001-0.166-2.185-0.479-3.424
				c-0.462-1.834-1.429-3.6-2.797-5.105c-0.648-0.715-1.386-1.347-2.192-1.876c-0.467-0.307-0.962-0.554-1.485-0.814
				c-0.383-0.19-0.765-0.381-1.135-0.595l-0.002,0.004l-0.104-0.066l0.001-0.002c-0.155-0.111-0.295-0.239-0.433-0.371
				c-2.178-2.086-2.433-5.507-0.568-7.627c0.639-0.727,0.693-2.047,0.163-3.924l1.03-0.292c0.645,2.281,0.518,3.892-0.389,4.923
				c-1.617,1.84-1.045,4.664,0.504,6.146c0.097,0.093,0.194,0.186,0.304,0.265c0.361,0.21,0.734,0.396,1.107,0.581
				c0.529,0.264,1.076,0.536,1.596,0.878c0.882,0.58,1.688,1.27,2.397,2.051c1.484,1.635,2.537,3.559,3.042,5.564
				c0.233,0.922,0.511,2.31,0.511,3.685C27.47,36.05,21.954,40.815,13.744,40.815z"/>
		</g>
		<g>
			<path d="M13.846,7.764c-2.642,0-4.633-1.071-4.633-2.492c0-1.42,1.992-2.491,4.633-2.491c2.641,0,4.632,1.071,4.632,2.491
				C18.478,6.693,16.486,7.764,13.846,7.764z M13.846,3.852c-2.175,0-3.563,0.841-3.563,1.42c0,0.58,1.388,1.421,3.563,1.421
				s3.562-0.842,3.562-1.421C17.408,4.693,16.021,3.852,13.846,3.852z"/>
		</g>
	</g>
	<g>
		<path d="M39.521,33.652l-0.271-0.038c-1.112-0.237-1.993-0.68-2.668-1.321c-1.827-1.712-1.666-4.256-1.657-4.363l0.106-0.599
			c0.381-1.486,2.633-2.558,5.535-2.558c3.188,0,5.592,1.294,5.592,3.009c0,0.1,0,0.226-0.033,0.361
			c-0.056,0.741-0.186,1.424-0.388,2.026l-0.984-0.328c-1.004,0.587-2.486,0.95-4.188,0.95c-1.611,0-3.036-0.336-4.042-0.895
			c0.185,0.498,0.48,1.021,0.946,1.455c0.503,0.481,1.177,0.813,2.006,0.99l0.225,0.03L39.521,33.652z M40.566,26.064
			c-2.625,0-4.3,1.019-4.3,1.718c0.141,0.861,1.929,1.718,4.3,1.718c2.524,0,4.086-0.9,4.281-1.571l0.009-0.062
			C44.834,27.063,43.166,26.064,40.566,26.064z"/>
	</g>
	<g>
		<path d="M32.838,38.937c-0.383,0-0.633-0.036-0.663-0.042c-4.359-0.375-5.273-3.957-5.141-5.799l0.106-0.599
			c0.381-1.486,2.634-2.558,5.535-2.558c1.992,0,3.777,0.523,4.778,1.399l0.006,0.005c0.667,0.601,0.808,1.197,0.808,1.592
			c0,0.099,0,0.225-0.032,0.364c-0.147,2.038-0.836,3.563-2.049,4.533C35.007,38.776,33.634,38.937,32.838,38.937z M28.628,35.061
			c0.423,1.118,1.412,2.355,3.703,2.553c0.059,0.008,1.762,0.249,3.06-0.798c0.502-0.403,0.886-0.952,1.15-1.64
			c-0.989,0.489-2.339,0.782-3.866,0.782C31.062,35.958,29.635,35.621,28.628,35.061z M32.676,31.23
			c-2.625,0-4.301,1.018-4.301,1.718c0.141,0.861,1.931,1.718,4.301,1.718c2.523,0,4.084-0.9,4.28-1.571l0.01-0.051
			c0.006-0.351-0.195-0.582-0.366-0.736C35.849,31.653,34.311,31.23,32.676,31.23z"/>
	</g>
	<g>
		<path d="M44.474,38.289c-0.375,0-0.619-0.035-0.647-0.04c-4.521-0.399-5.071-4.111-5.131-5.24
			c-0.029-0.335-0.013-0.566-0.013-0.566l0.107-0.6c0.378-1.488,2.632-2.562,5.536-2.562c0.291,0,0.582,0.014,0.858,0.041
			c2.788,0.215,4.734,1.435,4.734,2.968c0,0.099,0,0.225-0.032,0.359c-0.148,2.034-0.837,3.558-2.048,4.529
			C46.649,38.129,45.267,38.289,44.474,38.289z M40.288,34.413c0.424,1.13,1.413,2.353,3.693,2.555
			c0.06,0.01,1.762,0.243,3.058-0.806c0.501-0.405,0.886-0.954,1.15-1.64c-0.987,0.484-2.337,0.776-3.864,0.776
			C42.741,35.299,41.307,34.972,40.288,34.413z M40.024,32.29c0.033,0.195,0.065,0.278,0.118,0.355
			c0.457,0.682,2.037,1.362,4.183,1.362c2.523,0,4.084-0.9,4.28-1.571l0.01-0.061c-0.016-0.782-1.436-1.605-3.538-1.766
			l-0.017-0.003c-0.238-0.023-0.486-0.035-0.735-0.035C41.7,30.572,40.024,31.59,40.024,32.29z"/>
	</g>
</g>
</svg>
