<?xml version="1.0" encoding="utf-8"?>
<!-- Generator: Adobe Illustrator 16.0.0, SVG Export Plug-In . SVG Version: 6.00 Build 0)  -->
<!DOCTYPE svg PUBLIC "-//W3C//DTD SVG 1.1//EN" "http://www.w3.org/Graphics/SVG/1.1/DTD/svg11.dtd">
<svg version="1.1" id="Layer_1" xmlns="http://www.w3.org/2000/svg" xmlns:xlink="http://www.w3.org/1999/xlink" x="0px" y="0px"
	 width="50px" height="50px" viewBox="0 0 50 50" enable-background="new 0 0 50 50" xml:space="preserve">
<g>
	<g>
		<path d="M14.766,35.608c-1.992,0-4.004-0.799-4.089-0.833c-0.959-0.568-0.484-2.623,1.334-6.142
			c0.801-1.728,0.625-3.569,0.438-5.52c-0.154-1.61-0.313-3.274,0.113-4.918c1.189-4.594,5.853-7.198,10.258-9.14
			c2.6-1.146,5.834-1.514,9.293-1.071c0.382,0.048,0.823,0.058,1.283,0.067c1.247,0.027,2.659,0.059,3.612,0.81
			c3.771,2.97,1.994,7.681,0.329,10.965c-2.011,3.97-6.194,5.93-9.885,7.658l-0.719,0.339c-2.075,0.979-3.51,1.969-4.655,3.209
			c-0.138,0.15-0.857,1.221-1.382,2.002c-1.727,2.568-1.727,2.568-2.089,2.568c-0.415-0.062-0.824-0.088-1.34-0.088
			c-0.558,0-1.13,0.031-1.616,0.058L14.766,35.608z M11.222,33.835c0.348,0.123,1.988,0.694,3.544,0.694l0.827-0.034
			c0.88-0.048,2.049-0.088,2.798-0.005c0.293-0.397,0.928-1.341,1.414-2.063c0.877-1.306,1.31-1.939,1.481-2.125
			c1.243-1.348,2.781-2.412,4.987-3.453l0.722-0.34c3.706-1.735,7.538-3.532,9.381-7.169c2.373-4.683,2.362-7.742-0.035-9.63
			c-0.67-0.528-1.891-0.556-2.968-0.579c-0.499-0.012-0.969-0.021-1.396-0.075c-3.268-0.421-6.305-0.078-8.722,0.987
			c-4.168,1.838-8.574,4.275-9.649,8.423c-0.377,1.46-0.235,2.959-0.083,4.546c0.192,2.008,0.39,4.083-0.543,6.097
			C11.928,31.145,11.141,33.277,11.222,33.835z"/>
	</g>
	<g>
		<path d="M15.459,34.574l-0.897-0.598l0,0l0,0c0-0.001,0.001-0.003,0.001-0.003c0.426-0.643,0.662-2.342,0.853-3.709
			c0.105-0.755,0.204-1.469,0.329-1.981c0.133-0.55,0.243-1.106,0.353-1.662c0.269-1.359,0.547-2.765,1.16-4.068
			c1.732-3.686,4.113-6.85,6.885-9.152c0.36-0.299,1.168-0.761,2.191-1.347c1.294-0.741,3.988-2.282,4.193-2.836l1.071,0.074
			c-0.096,7.691-1.611,12.412-9.619,16.869c-1.893,1.054-3.542,2.624-4.643,4.419c-0.347,0.564-0.604,1.221-0.854,1.854
			C16.195,33.162,15.899,33.914,15.459,34.574z M30.48,10.746c-0.764,0.579-1.943,1.288-3.612,2.244
			c-0.899,0.515-1.749,1.001-2.038,1.241c-2.651,2.2-4.933,5.236-6.598,8.78c-0.557,1.184-0.81,2.464-1.078,3.818
			c-0.113,0.571-0.227,1.143-0.363,1.706c-0.078,0.32-0.147,0.749-0.217,1.224c1.193-1.843,2.915-3.448,4.877-4.54
			C28.531,21.279,30.21,17.291,30.48,10.746z"/>
	</g>
	<g>
		<path d="M15.271,39.76c-1.933,0-3.714-0.776-3.818-0.821l-0.172-0.121c-1.468-1.544-1.147-4.479-1.133-4.604l1.072,0.124
			c-0.003,0.024-0.264,2.45,0.771,3.656c0.536,0.216,3.099,1.165,4.96,0.391c0.258-0.353,1.116-1.657,1.116-3.319h1.079
			c0,2.345-1.376,4.031-1.435,4.103l-0.189,0.146C16.81,39.641,16.029,39.76,15.271,39.76z"/>
	</g>
	<g>
		<path d="M17.51,39.317l-0.429-0.99c1.619-0.7,2.588-1.814,3.71-3.104c0.437-0.502,0.884-1.015,1.385-1.521
			c1.528-1.54,2.622-2.135,4.135-2.959c0.391-0.214,0.815-0.443,1.287-0.713c0.82-0.467,1.766-0.873,2.769-1.303
			c1.415-0.606,2.877-1.233,3.913-2.027c2.177-1.672,4.424-5.022,5.009-7.467c0.489-2.041-0.104-4.848-1.715-8.117l0.967-0.477
			c1.75,3.547,2.354,6.523,1.798,8.844c-0.645,2.695-3.018,6.241-5.402,8.072c-1.143,0.877-2.669,1.531-4.144,2.163
			c-0.974,0.418-1.893,0.813-2.66,1.249c-0.479,0.272-0.908,0.507-1.305,0.723c-1.486,0.809-2.468,1.344-3.885,2.772
			c-0.483,0.488-0.916,0.984-1.337,1.468C20.447,37.263,19.354,38.52,17.51,39.317z"/>
	</g>
	<g>
		<path d="M28.667,13.135c-0.521,0-0.944-0.379-0.944-0.843c0-0.465,0.423-0.843,0.944-0.843s0.944,0.378,0.944,0.843
			C29.611,12.756,29.188,13.135,28.667,13.135z M28.667,11.988c-0.219,0-0.404,0.139-0.404,0.304c0,0.164,0.185,0.303,0.404,0.303
			s0.405-0.139,0.405-0.303C29.072,12.127,28.886,11.988,28.667,11.988z"/>
	</g>
	<g>
		<path d="M29.618,13.707c-0.52,0-0.944-0.378-0.944-0.843c0-0.464,0.424-0.843,0.944-0.843c0.521,0,0.944,0.379,0.944,0.843
			C30.562,13.329,30.139,13.707,29.618,13.707z M29.618,12.562c-0.219,0-0.404,0.139-0.404,0.303c0,0.165,0.186,0.304,0.404,0.304
			c0.219,0,0.405-0.139,0.405-0.304C30.023,12.7,29.837,12.562,29.618,12.562z"/>
	</g>
	<g>
		<path d="M30.016,12.295c-0.521,0-0.944-0.379-0.944-0.843c0-0.465,0.423-0.843,0.944-0.843s0.944,0.378,0.944,0.843
			C30.959,11.916,30.536,12.295,30.016,12.295z M30.016,11.148c-0.219,0-0.405,0.139-0.405,0.304c0,0.164,0.186,0.303,0.405,0.303
			c0.219,0,0.404-0.139,0.404-0.303C30.42,11.287,30.234,11.148,30.016,11.148z"/>
	</g>
	<g>
		<path d="M29.618,14.854c-0.52,0-0.944-0.378-0.944-0.843s0.424-0.843,0.944-0.843c0.521,0,0.944,0.378,0.944,0.843
			S30.139,14.854,29.618,14.854z M29.618,13.707c-0.219,0-0.404,0.14-0.404,0.304s0.186,0.304,0.404,0.304
			c0.219,0,0.405-0.14,0.405-0.304S29.837,13.707,29.618,13.707z"/>
	</g>
	<g>
		<path d="M27.993,14.28c-0.52,0-0.944-0.378-0.944-0.843s0.424-0.843,0.944-0.843c0.521,0,0.944,0.378,0.944,0.843
			S28.513,14.28,27.993,14.28z M27.993,13.135c-0.219,0-0.404,0.139-0.404,0.303c0,0.165,0.186,0.304,0.404,0.304
			c0.219,0,0.405-0.139,0.405-0.304C28.397,13.273,28.212,13.135,27.993,13.135z"/>
	</g>
	<g>
		<path d="M26.645,14.28c-0.521,0-0.944-0.378-0.944-0.843s0.423-0.843,0.944-0.843s0.944,0.378,0.944,0.843
			S27.165,14.28,26.645,14.28z M26.645,13.135c-0.219,0-0.405,0.139-0.405,0.303c0,0.165,0.186,0.304,0.405,0.304
			c0.219,0,0.404-0.139,0.404-0.304C27.049,13.273,26.863,13.135,26.645,13.135z"/>
	</g>
	<g>
		<path d="M29.042,16.286c-0.521,0-0.944-0.378-0.944-0.843s0.423-0.843,0.944-0.843s0.944,0.378,0.944,0.843
			S29.562,16.286,29.042,16.286z M29.042,15.141c-0.219,0-0.404,0.139-0.404,0.303s0.185,0.304,0.404,0.304s0.405-0.14,0.405-0.304
			S29.261,15.141,29.042,15.141z"/>
	</g>
	<g>
		<path d="M27.142,15.9c-0.521,0-0.944-0.378-0.944-0.843c0-0.464,0.423-0.843,0.944-0.843s0.944,0.379,0.944,0.843
			C28.086,15.522,27.663,15.9,27.142,15.9z M27.142,14.755c-0.219,0-0.404,0.139-0.404,0.303c0,0.165,0.185,0.304,0.404,0.304
			s0.405-0.139,0.405-0.304C27.547,14.894,27.361,14.755,27.142,14.755z"/>
	</g>
	<g>
		<path d="M25.394,15.141c-0.521,0-0.944-0.379-0.944-0.844c0-0.464,0.423-0.842,0.944-0.842c0.52,0,0.944,0.378,0.944,0.842
			C26.337,14.762,25.914,15.141,25.394,15.141z M25.394,13.994c-0.219,0-0.405,0.139-0.405,0.303c0,0.165,0.186,0.304,0.405,0.304
			c0.219,0,0.404-0.139,0.404-0.304C25.798,14.133,25.612,13.994,25.394,13.994z"/>
	</g>
	<g>
		<path d="M28.292,17.62c-0.521,0-0.944-0.378-0.944-0.843s0.423-0.843,0.944-0.843s0.944,0.378,0.944,0.843
			S28.813,17.62,28.292,17.62z M28.292,16.474c-0.219,0-0.404,0.14-0.404,0.304s0.185,0.304,0.404,0.304s0.405-0.14,0.405-0.304
			S28.511,16.474,28.292,16.474z"/>
	</g>
	<g>
		<path d="M26.393,17.234c-0.521,0-0.944-0.378-0.944-0.843s0.423-0.843,0.944-0.843s0.944,0.378,0.944,0.843
			S26.913,17.234,26.393,17.234z M26.393,16.088c-0.219,0-0.404,0.14-0.404,0.304s0.185,0.304,0.404,0.304s0.405-0.14,0.405-0.304
			S26.612,16.088,26.393,16.088z"/>
	</g>
	<g>
		<path d="M24.644,16.474c-0.521,0-0.944-0.378-0.944-0.843s0.424-0.843,0.944-0.843c0.52,0,0.944,0.378,0.944,0.843
			S25.164,16.474,24.644,16.474z M24.644,15.328c-0.219,0-0.405,0.139-0.405,0.303s0.186,0.304,0.405,0.304
			c0.219,0,0.404-0.14,0.404-0.304S24.863,15.328,24.644,15.328z"/>
	</g>
	<g>
		<path d="M27.356,18.579c-0.521,0-0.944-0.379-0.944-0.843c0-0.465,0.423-0.843,0.944-0.843s0.944,0.378,0.944,0.843
			C28.3,18.2,27.877,18.579,27.356,18.579z M27.356,17.433c-0.219,0-0.404,0.139-0.404,0.304c0,0.164,0.185,0.303,0.404,0.303
			s0.405-0.139,0.405-0.303C27.761,17.571,27.576,17.433,27.356,17.433z"/>
	</g>
	<g>
		<path d="M25.457,18.193c-0.521,0-0.944-0.379-0.944-0.843c0-0.465,0.423-0.843,0.944-0.843s0.944,0.378,0.944,0.843
			C26.401,17.814,25.978,18.193,25.457,18.193z M25.457,17.047c-0.219,0-0.404,0.139-0.404,0.304c0,0.164,0.185,0.303,0.404,0.303
			s0.405-0.139,0.405-0.303C25.862,17.186,25.676,17.047,25.457,17.047z"/>
	</g>
	<g>
		<path d="M23.708,17.433c-0.521,0-0.944-0.378-0.944-0.843s0.423-0.843,0.944-0.843s0.944,0.378,0.944,0.843
			S24.229,17.433,23.708,17.433z M23.708,16.286c-0.219,0-0.405,0.14-0.405,0.304s0.186,0.304,0.405,0.304
			c0.219,0,0.404-0.14,0.404-0.304S23.927,16.286,23.708,16.286z"/>
	</g>
	<g>
		<path d="M26.607,19.725c-0.521,0-0.944-0.378-0.944-0.843c0-0.464,0.423-0.843,0.944-0.843s0.944,0.379,0.944,0.843
			C27.551,19.347,27.127,19.725,26.607,19.725z M26.607,18.579c-0.219,0-0.404,0.139-0.404,0.303c0,0.165,0.185,0.304,0.404,0.304
			s0.405-0.139,0.405-0.304C27.012,18.718,26.826,18.579,26.607,18.579z"/>
	</g>
	<g>
		<path d="M24.708,19.339c-0.521,0-0.944-0.378-0.944-0.843c0-0.464,0.423-0.843,0.944-0.843s0.944,0.379,0.944,0.843
			C25.651,18.961,25.228,19.339,24.708,19.339z M24.708,18.193c-0.219,0-0.404,0.139-0.404,0.303c0,0.165,0.185,0.304,0.404,0.304
			s0.405-0.139,0.405-0.304C25.112,18.332,24.927,18.193,24.708,18.193z"/>
	</g>
	<g>
		<path d="M22.959,18.579c-0.521,0-0.944-0.379-0.944-0.843c0-0.465,0.423-0.843,0.944-0.843c0.52,0,0.944,0.378,0.944,0.843
			C23.903,18.2,23.479,18.579,22.959,18.579z M22.959,17.433c-0.219,0-0.405,0.139-0.405,0.304c0,0.164,0.186,0.303,0.405,0.303
			c0.219,0,0.404-0.139,0.404-0.303C23.363,17.571,23.178,17.433,22.959,17.433z"/>
	</g>
	<g>
		<path d="M26.207,21.059c-0.521,0-0.944-0.378-0.944-0.843s0.423-0.843,0.944-0.843s0.944,0.378,0.944,0.843
			S26.727,21.059,26.207,21.059z M26.207,19.912c-0.219,0-0.404,0.14-0.404,0.304s0.185,0.304,0.404,0.304s0.405-0.14,0.405-0.304
			S26.426,19.912,26.207,19.912z"/>
	</g>
	<g>
		<path d="M26.881,22.238c-0.521,0-0.944-0.378-0.944-0.843s0.423-0.843,0.944-0.843s0.944,0.378,0.944,0.843
			S27.401,22.238,26.881,22.238z M26.881,21.092c-0.219,0-0.404,0.14-0.404,0.304s0.185,0.304,0.404,0.304s0.405-0.14,0.405-0.304
			S27.1,21.092,26.881,21.092z"/>
	</g>
	<g>
		<path d="M27.618,20.673c-0.521,0-0.944-0.378-0.944-0.843s0.423-0.843,0.944-0.843s0.944,0.378,0.944,0.843
			S28.138,20.673,27.618,20.673z M27.618,19.526c-0.219,0-0.404,0.14-0.404,0.304s0.185,0.304,0.404,0.304s0.405-0.14,0.405-0.304
			S27.837,19.526,27.618,19.526z"/>
	</g>
	<g>
		<path d="M28.667,19.339c-0.521,0-0.944-0.378-0.944-0.843c0-0.464,0.423-0.843,0.944-0.843s0.944,0.379,0.944,0.843
			C29.611,18.961,29.188,19.339,28.667,19.339z M28.667,18.193c-0.219,0-0.404,0.139-0.404,0.303c0,0.165,0.185,0.304,0.404,0.304
			s0.405-0.139,0.405-0.304C29.072,18.332,28.886,18.193,28.667,18.193z"/>
	</g>
	<g>
		<path d="M19.037,22.205c-0.521,0-0.944-0.379-0.944-0.843c0-0.465,0.423-0.843,0.944-0.843s0.944,0.378,0.944,0.843
			C19.98,21.826,19.557,22.205,19.037,22.205z M19.037,21.059c-0.219,0-0.404,0.139-0.404,0.304c0,0.164,0.185,0.303,0.404,0.303
			s0.405-0.139,0.405-0.303C19.441,21.197,19.256,21.059,19.037,21.059z"/>
	</g>
	<g>
		<path d="M19.993,20.673c-0.521,0-0.944-0.378-0.944-0.843s0.423-0.843,0.944-0.843s0.944,0.378,0.944,0.843
			S20.513,20.673,19.993,20.673z M19.993,19.526c-0.219,0-0.404,0.14-0.404,0.304s0.185,0.304,0.404,0.304s0.405-0.14,0.405-0.304
			S20.212,19.526,19.993,19.526z"/>
	</g>
	<g>
		<path d="M20.944,19.339c-0.52,0-0.944-0.378-0.944-0.843c0-0.464,0.424-0.843,0.944-0.843c0.521,0,0.944,0.379,0.944,0.843
			C21.888,18.961,21.464,19.339,20.944,19.339z M20.944,18.193c-0.219,0-0.404,0.139-0.404,0.303c0,0.165,0.186,0.304,0.404,0.304
			c0.219,0,0.405-0.139,0.405-0.304C21.349,18.332,21.163,18.193,20.944,18.193z"/>
	</g>
	<g>
		<path d="M21.618,18.006c-0.521,0-0.944-0.379-0.944-0.843c0-0.465,0.423-0.843,0.944-0.843s0.944,0.378,0.944,0.843
			C22.562,17.627,22.139,18.006,21.618,18.006z M21.618,16.859c-0.219,0-0.404,0.139-0.404,0.304c0,0.164,0.185,0.303,0.404,0.303
			s0.405-0.139,0.405-0.303C22.023,16.998,21.837,16.859,21.618,16.859z"/>
	</g>
	<g>
		<path d="M24.307,20.673c-0.521,0-0.944-0.378-0.944-0.843s0.423-0.843,0.944-0.843s0.944,0.378,0.944,0.843
			S24.828,20.673,24.307,20.673z M24.307,19.526c-0.219,0-0.404,0.14-0.404,0.304s0.186,0.304,0.404,0.304
			c0.219,0,0.405-0.14,0.405-0.304S24.526,19.526,24.307,19.526z"/>
	</g>
	<g>
		<path d="M22.559,19.912c-0.521,0-0.944-0.378-0.944-0.843c0-0.464,0.423-0.843,0.944-0.843s0.944,0.379,0.944,0.843
			C23.502,19.534,23.079,19.912,22.559,19.912z M22.559,18.767c-0.219,0-0.405,0.139-0.405,0.303c0,0.165,0.186,0.304,0.405,0.304
			s0.404-0.139,0.404-0.304C22.963,18.905,22.778,18.767,22.559,18.767z"/>
	</g>
	<g>
		<path d="M25.258,22.205c-0.52,0-0.944-0.379-0.944-0.843c0-0.465,0.424-0.843,0.944-0.843c0.521,0,0.944,0.378,0.944,0.843
			C26.203,21.826,25.779,22.205,25.258,22.205z M25.258,21.059c-0.219,0-0.404,0.139-0.404,0.304c0,0.164,0.186,0.303,0.404,0.303
			c0.219,0,0.405-0.139,0.405-0.303C25.663,21.197,25.478,21.059,25.258,21.059z"/>
	</g>
	<g>
		<path d="M23.359,21.819c-0.521,0-0.944-0.378-0.944-0.843s0.424-0.843,0.944-0.843c0.52,0,0.944,0.378,0.944,0.843
			S23.879,21.819,23.359,21.819z M23.359,20.673c-0.219,0-0.405,0.14-0.405,0.304s0.186,0.303,0.405,0.303
			c0.219,0,0.404-0.139,0.404-0.303S23.578,20.673,23.359,20.673z"/>
	</g>
	<g>
		<path d="M21.61,21.059c-0.521,0-0.944-0.378-0.944-0.843s0.423-0.843,0.944-0.843s0.944,0.378,0.944,0.843
			S22.131,21.059,21.61,21.059z M21.61,19.912c-0.219,0-0.404,0.14-0.404,0.304s0.185,0.304,0.404,0.304s0.405-0.14,0.405-0.304
			S21.83,19.912,21.61,19.912z"/>
	</g>
	<g>
		<path d="M24.509,23.538c-0.52,0-0.944-0.378-0.944-0.843c0-0.464,0.424-0.843,0.944-0.843c0.521,0,0.944,0.379,0.944,0.843
			C25.453,23.16,25.029,23.538,24.509,23.538z M24.509,22.393c-0.219,0-0.404,0.139-0.404,0.303c0,0.165,0.186,0.304,0.404,0.304
			c0.219,0,0.405-0.139,0.405-0.304C24.914,22.531,24.728,22.393,24.509,22.393z"/>
	</g>
	<g>
		<path d="M22.609,23.152c-0.52,0-0.944-0.378-0.944-0.842c0-0.465,0.424-0.844,0.944-0.844c0.521,0,0.944,0.379,0.944,0.844
			C23.554,22.774,23.13,23.152,22.609,23.152z M22.609,22.007c-0.219,0-0.404,0.139-0.404,0.304c0,0.164,0.186,0.303,0.404,0.303
			c0.219,0,0.405-0.139,0.405-0.303C23.014,22.146,22.829,22.007,22.609,22.007z"/>
	</g>
	<g>
		<path d="M20.861,22.393c-0.521,0-0.944-0.379-0.944-0.843c0-0.465,0.423-0.843,0.944-0.843s0.944,0.378,0.944,0.843
			C21.805,22.014,21.381,22.393,20.861,22.393z M20.861,21.246c-0.219,0-0.405,0.139-0.405,0.304c0,0.164,0.186,0.303,0.405,0.303
			s0.404-0.139,0.404-0.303C21.265,21.385,21.08,21.246,20.861,21.246z"/>
	</g>
	<g>
		<path d="M23.359,24.685c-0.521,0-0.944-0.378-0.944-0.843s0.424-0.843,0.944-0.843c0.52,0,0.944,0.378,0.944,0.843
			S23.879,24.685,23.359,24.685z M23.359,23.538c-0.219,0-0.405,0.14-0.405,0.304s0.186,0.304,0.405,0.304
			c0.219,0,0.404-0.14,0.404-0.304S23.578,23.538,23.359,23.538z"/>
	</g>
	<g>
		<path d="M21.46,24.299c-0.521,0-0.944-0.378-0.944-0.843s0.424-0.843,0.944-0.843c0.52,0,0.944,0.378,0.944,0.843
			S21.98,24.299,21.46,24.299z M21.46,23.152c-0.219,0-0.405,0.14-0.405,0.304s0.186,0.304,0.405,0.304
			c0.219,0,0.404-0.14,0.404-0.304S21.679,23.152,21.46,23.152z"/>
	</g>
	<g>
		<path d="M19.711,23.538c-0.521,0-0.944-0.378-0.944-0.843c0-0.464,0.423-0.843,0.944-0.843s0.944,0.379,0.944,0.843
			C20.655,23.16,20.231,23.538,19.711,23.538z M19.711,22.393c-0.219,0-0.404,0.139-0.404,0.303c0,0.165,0.185,0.304,0.404,0.304
			s0.405-0.139,0.405-0.304C20.116,22.531,19.93,22.393,19.711,22.393z"/>
	</g>
	<g>
		<path d="M21.618,26.019c-0.521,0-0.944-0.379-0.944-0.843c0-0.465,0.423-0.843,0.944-0.843s0.944,0.378,0.944,0.843
			C22.562,25.64,22.139,26.019,21.618,26.019z M21.618,24.872c-0.219,0-0.404,0.139-0.404,0.304c0,0.164,0.185,0.303,0.404,0.303
			s0.405-0.139,0.405-0.303C22.023,25.011,21.837,24.872,21.618,24.872z"/>
	</g>
	<g>
		<path d="M19.711,25.06c-0.521,0-0.944-0.378-0.944-0.843s0.423-0.843,0.944-0.843s0.944,0.378,0.944,0.843
			S20.231,25.06,19.711,25.06z M19.711,23.913c-0.219,0-0.404,0.14-0.404,0.304s0.185,0.304,0.404,0.304s0.405-0.14,0.405-0.304
			S19.93,23.913,19.711,23.913z"/>
	</g>
	<g>
		<path d="M19.991,26.206l-0.043-0.54h0.043c0.222,0,0.41-0.138,0.41-0.301c0-0.164-0.188-0.303-0.41-0.303
			c-0.213,0-0.399,0.142-0.399,0.303l-0.468,0.304c-0.049-0.1-0.071-0.193-0.071-0.304c0-0.465,0.42-0.842,0.938-0.842
			c0.523,0,0.949,0.377,0.949,0.842C20.94,25.829,20.514,26.206,19.991,26.206z"/>
	</g>
	<g>
		<path d="M17.97,24.872c-0.521,0-0.944-0.378-0.944-0.843s0.423-0.843,0.944-0.843s0.944,0.378,0.944,0.843
			S18.491,24.872,17.97,24.872z M17.97,23.726c-0.219,0-0.405,0.14-0.405,0.304s0.186,0.304,0.405,0.304s0.404-0.14,0.404-0.304
			S18.189,23.726,17.97,23.726z"/>
	</g>
	<g>
		<path d="M19.318,26.967c-0.52,0-0.944-0.379-0.944-0.843c0-0.465,0.424-0.843,0.944-0.843c0.521,0,0.944,0.378,0.944,0.843
			C20.263,26.588,19.839,26.967,19.318,26.967z M19.318,25.82c-0.219,0-0.404,0.139-0.404,0.304c0,0.164,0.186,0.303,0.404,0.303
			c0.219,0,0.405-0.139,0.405-0.303C19.723,25.959,19.538,25.82,19.318,25.82z"/>
	</g>
	<g>
		<path d="M17.285,29.17c-0.111,0-0.223-0.018-0.331-0.054c-0.231-0.076-0.425-0.228-0.545-0.425
			c-0.126-0.209-0.157-0.453-0.085-0.673c0.142-0.428,0.68-0.66,1.162-0.501c0.231,0.077,0.425,0.228,0.545,0.426
			c0.126,0.208,0.157,0.452,0.085,0.672C18.006,28.947,17.672,29.17,17.285,29.17z M17.156,28.003c-0.154,0-0.282,0.075-0.319,0.187
			c-0.031,0.093,0.009,0.179,0.034,0.222c0.053,0.087,0.146,0.157,0.254,0.193c0.207,0.068,0.43-0.009,0.48-0.16
			c0.031-0.093-0.008-0.179-0.034-0.221c-0.053-0.088-0.146-0.158-0.254-0.194C17.263,28.012,17.209,28.003,17.156,28.003z"/>
	</g>
	<g>
		<path d="M17.951,28.003c-0.112,0-0.223-0.018-0.331-0.054c-0.231-0.077-0.424-0.228-0.544-0.426
			c-0.126-0.208-0.158-0.453-0.085-0.672c0.143-0.428,0.68-0.661,1.162-0.501c0.231,0.076,0.424,0.228,0.544,0.425
			c0.126,0.209,0.158,0.453,0.085,0.673C18.671,27.779,18.337,28.003,17.951,28.003z M17.821,26.836
			c-0.154,0-0.282,0.074-0.319,0.187c-0.031,0.093,0.008,0.179,0.034,0.221c0.053,0.088,0.146,0.158,0.254,0.194
			c0.207,0.069,0.43-0.01,0.48-0.16c0.031-0.093-0.009-0.18-0.035-0.222c-0.052-0.087-0.145-0.157-0.254-0.193
			C17.929,26.844,17.875,26.836,17.821,26.836z"/>
	</g>
	<g>
		<path d="M18.012,26.455c-0.112,0-0.223-0.018-0.331-0.054c-0.231-0.076-0.425-0.228-0.545-0.425
			c-0.126-0.209-0.157-0.453-0.085-0.673c0.143-0.428,0.68-0.66,1.162-0.501c0.231,0.077,0.425,0.228,0.544,0.426
			c0.126,0.208,0.158,0.453,0.085,0.672C18.732,26.232,18.398,26.455,18.012,26.455z M17.882,25.288
			c-0.154,0-0.283,0.075-0.319,0.187c-0.031,0.093,0.008,0.179,0.034,0.222c0.053,0.087,0.146,0.157,0.254,0.193
			c0.207,0.068,0.43-0.01,0.48-0.16c0.031-0.093-0.009-0.179-0.034-0.221c-0.053-0.088-0.146-0.158-0.254-0.194
			C17.99,25.297,17.936,25.288,17.882,25.288z"/>
	</g>
</g>
</svg>
