<?xml version="1.0" encoding="utf-8"?>
<!-- Generator: Adobe Illustrator 16.0.0, SVG Export Plug-In . SVG Version: 6.00 Build 0)  -->
<!DOCTYPE svg PUBLIC "-//W3C//DTD SVG 1.1//EN" "http://www.w3.org/Graphics/SVG/1.1/DTD/svg11.dtd">
<svg version="1.1" id="Layer_1" xmlns="http://www.w3.org/2000/svg" xmlns:xlink="http://www.w3.org/1999/xlink" x="0px" y="0px"
	 width="50px" height="50px" viewBox="0 0 50 50" enable-background="new 0 0 50 50" xml:space="preserve">
<g>
	<g>
		<g>
			<path d="M20.13,29.47L19.82,30l-0.141,0.23c-0.17,0.29-0.34,0.56-0.51,0.83c-2.39,3.67-5.16,5.52-8.25,5.52
				c-0.55,0-1.12-0.06-1.7-0.18c-0.399-0.09-0.84-0.12-1.3-0.15c-0.52-0.04-1.07-0.08-1.64-0.2l-0.33-0.07L5.89,35.66
				C5.82,35.29,4.35,26.88,16.73,20.59c0.109-0.06,0.21-0.12,0.319-0.17l0.44,0.9c-0.24,0.12-0.471,0.24-0.69,0.35
				C6.73,26.96,6.68,33.57,6.83,35.13c0.39,0.06,0.78,0.09,1.17,0.12c0.49,0.04,0.96,0.07,1.42,0.17c3.48,0.73,6.59-1.1,9.25-5.44
				v-0.01c0.01-0.01,0.01-0.02,0.021-0.03l-0.03-0.08l0.229-0.24l0.36,0.34v-0.49H20.13z"/>
		</g>
		<g>
			<path d="M22.108,24.924l-0.456-0.169L21.14,24.76l0.031-0.184c0.129-0.346,0.247-0.683,0.356-0.999l0.945,0.326
				C22.361,24.227,22.239,24.57,22.108,24.924z"/>
		</g>
		<g>
			<path fill="#FFFFFF" stroke="#000000" stroke-miterlimit="10" d="M9.741,36.185"/>
		</g>
		<g>
			<path fill="#FFFFFF" stroke="#000000" stroke-miterlimit="10" d="M7.622,35.205"/>
		</g>
		<g>
			<path fill="#020202" d="M12.97,31.8c-0.029-0.11-0.04-0.22-0.04-0.34C12.98,31.66,12.97,31.8,12.97,31.8z"/>
			<path fill="#020202" d="M18.34,25.13c-0.1,0.08-0.439,0.35-0.91,0.76c-1.54,1.3-4.449,3.98-4.5,5.57
				c-0.109-0.44-0.56-1.13-2.29-0.92c0,0,1.95-0.79,3.45-2.46c0.9-1,1.74-2.17,2.24-3.67c0,0-0.14,1.21,1.01,1.06
				c0.25-0.03,0.58-0.14,0.99-0.34H18.34z"/>
		</g>
	</g>
	<g>
		<g>
			<path d="M37.003,36.64c-2.63,0-5.094-1.377-7.349-4.112l0.771-0.636c2.559,3.103,5.374,4.286,8.359,3.514
				c0.462-0.121,0.933-0.175,1.432-0.232c0.372-0.043,0.755-0.087,1.137-0.162c0.08-1.661-0.305-8.891-12.262-13.749
				c-0.137-0.071-2.197-1.156-4.294,0.041l-0.058-0.102l-0.568,0.173c-0.076-0.25-0.109-0.393-0.109-0.393l-0.083-0.362l0.322-0.186
				c2.589-1.481,5.112-0.133,5.219-0.075c14.009,5.688,12.851,14.748,12.795,15.131l-0.049,0.33l-0.324,0.082
				c-0.56,0.141-1.095,0.203-1.611,0.262c-0.463,0.053-0.899,0.104-1.295,0.207C38.349,36.551,37.67,36.64,37.003,36.64z"/>
		</g>
		<g>
			<path fill="#FFFFFF" stroke="#000000" stroke-miterlimit="10" d="M38.498,36.185"/>
		</g>
		<g>
			<path fill="#FFFFFF" stroke="#000000" stroke-miterlimit="10" d="M40.567,35.113"/>
		</g>
		<g>
			<path fill="#020202" d="M37.35,30.587c0,0.001-1.99-0.706-3.563-2.301c-0.944-0.957-1.831-2.091-2.403-3.568
				c0,0,0.297,1.838-2.001,0.787c0,0,6.188,4.402,5.697,6.444C35.079,31.949,34.846,30.399,37.35,30.587z"/>
		</g>
	</g>
	<g>
		<g>
			<path d="M30.57,32.05c-0.12-2.78-1.261-6.66-5.34-10.96c-0.24-0.25-0.49-0.5-0.74-0.75c-0.73-0.71-1.53-1.43-2.42-2.15
				c-0.061-0.06-1.561-1.58-3.851-1.58c-0.39,0-0.779,0.04-1.16,0.13l-0.369,0.08l-0.021,0.39c-0.01,0.19-0.05,1.51,0.061,3.38
				c0.02,0.34,0.039,0.7,0.069,1.08c0.11,1.16,0.271,2.46,0.54,3.8c0.03,0.14,0.05,0.28,0.09,0.42c0.29,1.37,0.69,2.77,1.24,4.08
				v0.01c0.15,0.37,0.32,0.73,0.5,1.08c1.45,2.86,3.74,5.06,7.32,5.22c0.41,0.02,0.84,0.1,1.3,0.18c0.51,0.1,1.04,0.2,1.62,0.22
				l0.34,0.02l0.14-0.3c0.051-0.12,0.53-1.16,0.66-2.87C30.59,33.08,30.6,32.59,30.57,32.05z M29.11,35.66
				c-0.391-0.04-0.771-0.11-1.15-0.18c-0.49-0.09-0.95-0.17-1.43-0.19c-3.33-0.15-5.42-2.41-6.71-5.29
				c-0.09-0.17-0.16-0.35-0.23-0.53c-0.58-1.38-0.979-2.88-1.25-4.34h-0.01c-0.64-3.31-0.68-6.41-0.67-7.49
				c0.189-0.02,0.37-0.03,0.56-0.03c1.851,0,3.12,1.27,3.181,1.32C31.41,27.07,29.67,34.09,29.11,35.66z"/>
		</g>
		<g>
			<path fill="#FFFFFF" stroke="#000000" stroke-miterlimit="10" d="M26.032,35.948"/>
		</g>
		<g>
			<path fill="#FFFFFF" stroke="#000000" stroke-miterlimit="10" d="M28.324,35.529"/>
		</g>
		<g>
			<path fill="#020202" d="M26.572,30.26c0,0.001-1.698-1.256-2.735-3.242c-0.625-1.191-1.141-2.536-1.255-4.114
				c0,0-0.254,1.844-2.145,0.167c0,0,4.629,6.018,3.564,7.827C24.002,30.898,24.229,29.348,26.572,30.26z"/>
		</g>
	</g>
</g>
</svg>
