<?xml version="1.0" encoding="utf-8"?>
<!-- Generator: Adobe Illustrator 16.0.0, SVG Export Plug-In . SVG Version: 6.00 Build 0)  -->
<!DOCTYPE svg PUBLIC "-//W3C//DTD SVG 1.1//EN" "http://www.w3.org/Graphics/SVG/1.1/DTD/svg11.dtd">
<svg version="1.1" id="Layer_1" xmlns="http://www.w3.org/2000/svg" xmlns:xlink="http://www.w3.org/1999/xlink" x="0px" y="0px"
	 width="50px" height="50px" viewBox="0 0 50 50" enable-background="new 0 0 50 50" xml:space="preserve">
<g>
	<g>
		<path d="M25.668,7.3c-1.633,0-2.865-0.805-2.865-1.872c0-1.069,1.232-1.874,2.865-1.874c1.634,0,2.867,0.805,2.867,1.874
			C28.535,6.495,27.302,7.3,25.668,7.3z M25.668,4.858c-1.008,0-1.561,0.428-1.561,0.569s0.553,0.568,1.561,0.568
			c1.009,0,1.563-0.427,1.563-0.568S26.677,4.858,25.668,4.858z"/>
	</g>
	<g>
		<path d="M25.667,10.002c-1.634,0-2.864-0.802-2.864-1.865h1.305c0,0.136,0.57,0.561,1.56,0.561c1.064,0,1.569-0.449,1.569-0.561
			h1.304C28.54,9.2,27.305,10.002,25.667,10.002z"/>
	</g>
	<g>
		<path d="M25.667,8.235c-1.283,0-2.296-0.552-2.372-1.288C23.28,6.905,23.28,6.872,23.28,6.846c0-0.033,0-0.074,0.025-0.133
			l0.31,0.16l0.003,0.025c0.041,0.557,0.961,1.011,2.049,1.011c0.939,0,1.814-0.344,2.078-0.816l0.286,0.157
			C27.707,7.83,26.735,8.235,25.667,8.235z"/>
	</g>
	<g>
		<rect x="22.803" y="5.428" width="1.305" height="2.705"/>
	</g>
	<g>
		<rect x="27.23" y="5.428" width="1.305" height="2.705"/>
	</g>
	<g>
		<path d="M27.749,47.112c-0.646,0-1.341-0.049-2.082-0.149c-3.292,0.446-5.673-0.102-7.078-1.63
			c-1.736-1.887-1.318-4.566-1.222-5.065v-9.188c0.011-1.129,0.107-2.021,0.309-2.815c0.179-0.694,0.506-1.649,1.29-1.962
			l0.182-0.07c0.084-0.031,0.185-0.069,0.229-0.094c-0.004-0.012,0.01-0.066,0.017-0.173l0.017-0.215
			c0.044-0.561,0.146-1.873-0.236-2.19c-0.094-0.076-0.179-0.115-0.297-0.168c-0.258-0.116-0.61-0.275-0.912-0.794
			c-0.331-0.57-0.514-1.208-0.514-1.791c0-1.629-0.037-5.741-0.037-5.741c0.163-3.26,4.096-4.427,4.807-4.611
			c1.033-0.645,0.652-1.908,0.634-1.963l1.246-0.39c0.258,0.821,0.314,2.616-1.311,3.531L22.615,11.7
			c-0.036,0.009-3.772,0.908-3.898,3.391c0.001,0.001,0.038,4.092,0.038,5.716c0,0.358,0.119,0.762,0.337,1.137
			c0.091,0.155,0.134,0.176,0.319,0.258c0.153,0.069,0.365,0.165,0.593,0.354c0.902,0.749,0.784,2.282,0.706,3.296l-0.016,0.205
			c-0.071,1.011-0.633,1.224-1.084,1.396l-0.16,0.063c-0.013,0.005-0.265,0.114-0.511,1.072c-0.173,0.687-0.259,1.482-0.268,2.498
			l-0.016,9.392c-0.006,0.024-0.521,2.447,0.898,3.981c1.112,1.202,3.136,1.606,6.021,1.201l0.091-0.013l0.09,0.013
			c2.888,0.407,4.911,0.001,6.024-1.201c1.42-1.535,0.905-3.957,0.9-3.981l-0.016-0.143v-9.254
			c-0.009-1.011-0.094-1.807-0.268-2.497c-0.245-0.954-0.498-1.063-0.508-1.067l-0.163-0.063c-0.451-0.172-1.013-0.385-1.084-1.396
			l-0.016-0.205c-0.077-1.014-0.196-2.547,0.705-3.295c0.229-0.189,0.44-0.285,0.595-0.354c0.185-0.084,0.228-0.103,0.318-0.258
			c0.218-0.375,0.338-0.778,0.338-1.137c0-1.632,0.036-5.754,0.036-5.754c-0.125-2.456-3.859-3.344-3.897-3.353l-0.174-0.067
			c-1.629-0.918-1.55-2.716-1.281-3.539l1.241,0.405l-0.621-0.203l0.622,0.199c-0.043,0.138-0.385,1.337,0.608,1.959
			c0.713,0.185,4.644,1.349,4.806,4.572c0.001,0.039-0.036,4.151-0.036,5.78c0,0.583-0.182,1.221-0.513,1.791
			c-0.303,0.519-0.655,0.677-0.912,0.792c-0.119,0.054-0.204,0.094-0.297,0.17c-0.383,0.317-0.28,1.63-0.237,2.19l0.017,0.215
			c0.01,0.151,0.032,0.198,0.032,0.201c0.005-0.016,0.118,0.029,0.214,0.065l0.184,0.072c0.782,0.311,1.109,1.266,1.287,1.956
			c0.201,0.798,0.299,1.69,0.309,2.814v9.193c0.097,0.499,0.514,3.179-1.225,5.065C31.656,46.518,29.979,47.112,27.749,47.112z"/>
	</g>
	<g>
		<path d="M25.914,41.935c-2.714,0-5.45-0.536-8.134-1.593l-0.413-0.161v-9.539l0.848,0.264c0.026,0.01,2.745,0.841,7.107,0.841
			c2.586,0,5.23-0.288,7.858-0.854l0.79-0.171v9.405l-0.343,0.185C33.505,40.377,30.558,41.935,25.914,41.935z M18.672,39.287
			c2.397,0.891,4.83,1.343,7.242,1.343c3.425,0,5.884-0.925,6.752-1.307v-6.995c-2.458,0.479-4.925,0.723-7.344,0.723
			c-3.166,0-5.483-0.413-6.65-0.681V39.287z"/>
	</g>
</g>
</svg>
