<?xml version="1.0" encoding="utf-8"?>
<!-- Generator: Adobe Illustrator 16.0.0, SVG Export Plug-In . SVG Version: 6.00 Build 0)  -->
<!DOCTYPE svg PUBLIC "-//W3C//DTD SVG 1.1//EN" "http://www.w3.org/Graphics/SVG/1.1/DTD/svg11.dtd">
<svg version="1.1" id="Layer_1" xmlns="http://www.w3.org/2000/svg" xmlns:xlink="http://www.w3.org/1999/xlink" x="0px" y="0px"
	 width="50px" height="50px" viewBox="0 0 50 50" enable-background="new 0 0 50 50" xml:space="preserve">
<g>
	<path d="M25.56,9.531c-12.018,0-21.81,6.371-21.81,14.195c0,7.826,9.792,14.197,21.81,14.197c12.042,0,21.81-6.371,21.81-14.197
		C47.37,15.902,37.602,9.531,25.56,9.531z M25.56,36.753c-11.385,0-20.639-5.834-20.639-13.026c0-7.168,9.254-13.024,20.639-13.024
		s20.639,5.856,20.639,13.024C46.199,30.919,36.945,36.753,25.56,36.753z"/>
</g>
<g>
	<path d="M25.56,14.168c-8.175,0-14.829,4.287-14.829,9.559c0,5.271,6.654,9.558,14.829,9.558c8.176,0,14.829-4.287,14.829-9.558
		C40.389,18.455,33.736,14.168,25.56,14.168z M25.56,32.935c-7.965,0-14.454-4.125-14.454-9.208c0-5.084,6.489-9.206,14.454-9.206
		c7.989,0,14.478,4.122,14.478,9.206C40.038,28.81,33.549,32.935,25.56,32.935z"/>
</g>
</svg>
