<?xml version="1.0" encoding="utf-8"?>
<!-- Generator: Adobe Illustrator 16.0.0, SVG Export Plug-In . SVG Version: 6.00 Build 0)  -->
<!DOCTYPE svg PUBLIC "-//W3C//DTD SVG 1.1//EN" "http://www.w3.org/Graphics/SVG/1.1/DTD/svg11.dtd">
<svg version="1.1" id="Layer_1" xmlns="http://www.w3.org/2000/svg" xmlns:xlink="http://www.w3.org/1999/xlink" x="0px" y="0px"
	 width="50px" height="50px" viewBox="0 0 50 50" enable-background="new 0 0 50 50" xml:space="preserve">
<g>
	<path d="M34.612,41.194c-0.121,0-0.236-0.013-0.34-0.036l-0.136-0.03l-2.472-2.345l0.689-0.726l2.253,2.14
		c0.153,0.012,0.307-0.033,0.395-0.193l-1.157-2.547l0.91-0.414l1.311,2.885l-0.038,0.166
		C35.833,40.924,35.164,41.194,34.612,41.194z"/>
</g>
<g>
	<path d="M17.63,38.69L17.4,38.91H17.39l-2.319,2.22l-0.13,0.03c-0.11,0.02-0.221,0.03-0.341,0.03c-0.56,0-1.22-0.27-1.409-1.1
		l-0.03-0.16l1.189-2.64l0.181-0.39l0.91,0.42l-0.23,0.51l-0.99,2.18c0.08,0.15,0.23,0.19,0.38,0.19l1.82-1.72l0.53-0.51
		L17.63,38.69z"/>
</g>
<g>
	<path d="M42.38,24.38c0,5.21-2.77,10.06-7.45,13.06c-0.12,0.09-0.239,0.16-0.37,0.24c-0.159,0.1-0.319,0.19-0.489,0.28
		c-0.391,0.22-0.78,0.42-1.181,0.61c-0.229,0.11-0.449,0.21-0.68,0.31C32.11,38.92,32,38.97,31.9,39c-2.24,0.92-4.65,1.38-7.15,1.38
		c-2.53,0-5.06-0.51-7.35-1.47H17.39c-0.1-0.03-0.199-0.08-0.3-0.12c-0.22-0.1-0.439-0.2-0.67-0.31c-0.4-0.2-0.81-0.41-1.21-0.65
		c-0.17-0.1-0.33-0.2-0.5-0.3c-0.12-0.08-0.24-0.16-0.36-0.24c-4.529-3-7.229-7.81-7.229-12.91c0-2.5,0.649-4.99,1.91-7.23
		c0.04-0.1,0.1-0.19,0.149-0.28c0.08-0.13,0.16-0.25,0.25-0.36c0.051-0.07,0.11-0.14,0.16-0.2c0.17-0.19,0.34-0.36,0.521-0.53
		c0.01-0.01,0.01-0.01,0.02-0.02c0.33-0.32,0.63-0.61,0.83-0.98c0.06-0.11,0.12-0.23,0.15-0.35h0.01c0.04-0.11,0.07-0.22,0.09-0.33
		l0.98,0.22c0,0.01-0.011,0.03-0.011,0.04c-0.069,0.31-0.189,0.61-0.34,0.9c-0.27,0.5-0.649,0.86-1.02,1.22l-0.24,0.24
		c-0.21,0.21-0.39,0.42-0.54,0.66c-0.04,0.07-0.08,0.14-0.11,0.21c-0.02,0.03-0.04,0.06-0.05,0.09c-0.07,0.11-0.13,0.23-0.189,0.35
		c-1.03,1.98-1.57,4.17-1.57,6.35c0,0.13,0,0.25,0.01,0.38v0.01c0,0.19,0.01,0.38,0.03,0.57v0.01c0.2,2.82,1.28,5.49,3.07,7.75
		l0.01,0.01c0.229,0.3,0.49,0.6,0.76,0.88c0.93,1.02,2.02,1.92,3.25,2.7c0.72,0.45,1.47,0.85,2.24,1.18
		c2.24,0.99,4.75,1.51,7.26,1.51c2.48,0,4.86-0.48,7.06-1.42c0.771-0.33,1.521-0.71,2.23-1.14c1.8-1.1,3.32-2.48,4.5-4.05
		c0.01,0,0.01,0,0.01-0.01c0.25-0.35,0.5-0.7,0.73-1.07v-0.01c1.25-2.03,1.979-4.32,2.08-6.71c0.02-0.19,0.02-0.39,0.02-0.59
		c0-0.01,0-0.01,0-0.02v-0.01c0-2.21-0.46-4.36-1.29-6.06c-0.07-0.15-0.16-0.29-0.26-0.43c-0.09-0.13-0.2-0.25-0.311-0.38
		c-0.14-0.16-0.3-0.32-0.46-0.48c-0.55-0.56-1.109-1.14-1.329-1.91c-0.07-0.24-0.12-0.49-0.141-0.75c-0.01-0.05-0.02-0.1-0.02-0.15
		v-0.02c-0.011-0.04-0.011-0.09-0.011-0.14c-0.02-0.37-0.01-0.78,0.04-1.22l0.091,0.01l0.819,0.1l0.09,0.01
		c-0.02,0.17-0.029,0.32-0.04,0.48c-0.01,0.08-0.01,0.17-0.01,0.25c0,0.27,0.01,0.53,0.061,0.76h0.01c0.01,0.13,0.04,0.26,0.07,0.39
		c0.119,0.43,0.439,0.81,0.81,1.21c0.09,0.09,0.18,0.18,0.28,0.28c0.189,0.2,0.38,0.4,0.56,0.61c0.11,0.12,0.22,0.25,0.311,0.39
		c0.02,0.01,0.029,0.03,0.04,0.05c0.109,0.16,0.21,0.32,0.3,0.5C41.89,19.69,42.38,22.01,42.38,24.38z"/>
</g>
<g>
	<path d="M38.603,12.898l-0.995-0.116l0.008-0.041c0.024-0.244,0.067-0.48,0.11-0.711l0.032-0.177l0.986,0.167l-0.14,0.87
		l-0.183-0.023L38.603,12.898z"/>
</g>
<g>
	<path d="M24.81,7c-6.75,0-13.93,1.73-13.93,4.94c0,0.26,0.05,0.5,0.14,0.74c0.091,0.26,0.23,0.5,0.431,0.73
		c0.05,0.07,0.109,0.15,0.18,0.22c0.22,0.23,0.49,0.46,0.811,0.67c2.47,1.69,7.529,2.58,12.369,2.58c5.101,0,10.431-0.99,12.75-2.85
		c0.011,0,0.021-0.01,0.03-0.03c0.41-0.32,0.72-0.69,0.92-1.08c0.01-0.01,0.01-0.02,0.01-0.03c0,0,0.011,0,0.011-0.01
		c0.029-0.07,0.06-0.14,0.09-0.21c0.01-0.03,0.02-0.06,0.03-0.1l0.09-0.55c0.01-0.03,0.01-0.05,0.01-0.08
		C38.75,8.73,31.57,7,24.81,7z M24.81,15.88c-6.359,0-11.119-1.45-12.5-3.01c-0.09-0.09-0.149-0.17-0.21-0.26
		c-0.14-0.22-0.22-0.45-0.22-0.67c0-1.78,4.88-3.77,11.99-3.93C24.18,8,24.49,8,24.81,8c0.601,0,1.181,0.01,1.74,0.04
		c6.65,0.28,11.15,2.16,11.2,3.87v0.01c0,0.01,0,0.01,0,0.02c0,0.13-0.03,0.27-0.08,0.4v0.01c0,0.01-0.01,0.02-0.01,0.03
		C36.9,14.12,31.85,15.88,24.81,15.88z"/>
</g>
<g>
	<path d="M33.44,9.57c-1.61-0.63-3.95-1.03-6.4-1.18c-0.74-0.05-1.49-0.07-2.23-0.07c-0.479,0-0.97,0.01-1.449,0.03
		c-2.73,0.11-5.41,0.53-7.19,1.23C14.84,10.1,14,10.78,14,11.6c0,2.13,5.57,3.28,10.81,3.28c5.24,0,10.811-1.15,10.811-3.28
		C35.62,10.78,34.78,10.1,33.44,9.57z M24.81,14.38c-6.069,0-10.31-1.47-10.31-2.78c0-1.17,3.36-2.46,8.38-2.72
		c0.351-0.03,0.71-0.04,1.07-0.04c0.18-0.01,0.359-0.02,0.54-0.01C24.6,8.82,24.7,8.82,24.81,8.82c0.381,0,0.75,0.01,1.12,0.02
		c0.011,0,0.011,0,0.011,0c0.17,0,0.34,0.01,0.5,0.02c0.359,0.01,0.72,0.03,1.06,0.07c4.6,0.34,7.62,1.56,7.62,2.67
		C35.12,12.91,30.89,14.38,24.81,14.38z"/>
</g>
<g opacity="0.2">
	<path d="M26.99,8.34c-0.7-0.03-1.431-0.05-2.181-0.05c-0.479,0-0.949,0.01-1.409,0.02c-6.271,0.2-10.99,1.73-10.99,3.63
		c0,2.04,5.45,3.64,12.399,3.64c6.96,0,12.41-1.6,12.41-3.64C37.22,10.12,32.88,8.64,26.99,8.34z M24.81,15.33
		c-6.59,0-12.149-1.55-12.149-3.39c0-0.91,1.35-1.75,3.51-2.36c1.84-0.53,4.271-0.9,6.95-1c0.47-0.02,0.95-0.04,1.43-0.04h0.26
		c0.36,0,0.73,0,1.08,0.02c0.471,0.01,0.92,0.03,1.37,0.05c2.38,0.15,4.521,0.49,6.181,0.96c2.17,0.62,3.529,1.46,3.529,2.37
		C36.97,13.78,31.4,15.33,24.81,15.33z"/>
</g>
<g opacity="0.2">
	<path fill="#FFFFFF" d="M30.27,11.42l-0.909-0.01h-0.17L27.7,11.4l-4.97-0.03l-1.29-0.01H21.18l-1.01-0.01c0,0,0.37-0.09,1-0.21
		c0.62-0.11,1.49-0.25,2.5-0.33c0.89-0.07,1.88-0.1,2.9-0.05c0.87,0.04,1.76,0.15,2.63,0.35C29.56,11.2,29.92,11.3,30.27,11.42z"/>
	<path d="M30.35,11.18l-0.08,0.24l-0.079,0.23c-0.271-0.09-0.551-0.17-0.83-0.24c-0.051-0.02-0.11-0.03-0.17-0.04
		c-0.75-0.18-1.521-0.28-2.29-0.34c-1.28-0.09-2.53-0.03-3.591,0.07c-0.729,0.08-1.369,0.17-1.869,0.26
		c-0.101,0.01-0.181,0.03-0.261,0.04c-0.59,0.11-0.939,0.2-0.949,0.2l-0.061-0.25l-0.06-0.24c0.05-0.01,0.409-0.1,0.979-0.21
		c0.351-0.07,0.79-0.14,1.28-0.21c0.47-0.06,1-0.12,1.56-0.16c0.761-0.05,1.58-0.07,2.42-0.03c0.42,0.01,0.841,0.04,1.271,0.09
		c0.09,0.01,0.189,0.02,0.28,0.03c0.46,0.06,0.92,0.15,1.369,0.26C29.64,10.96,30,11.06,30.35,11.18z"/>
</g>
<g>
	<g>
		<path d="M25.26,8.67h-0.12c-0.26,0.02-0.47,0.08-0.649,0.16C24.6,8.82,24.7,8.82,24.81,8.82c0.381,0,0.75,0.01,1.12,0.02
			C25.75,8.75,25.53,8.69,25.26,8.67z M25.26,8.67h-0.12c-0.26,0.02-0.47,0.08-0.649,0.16C24.6,8.82,24.7,8.82,24.81,8.82
			c0.381,0,0.75,0.01,1.12,0.02C25.75,8.75,25.53,8.69,25.26,8.67z M25.26,8.67h-0.12c-0.26,0.02-0.47,0.08-0.649,0.16
			C24.6,8.82,24.7,8.82,24.81,8.82c0.381,0,0.75,0.01,1.12,0.02C25.75,8.75,25.53,8.69,25.26,8.67z M25.26,8.67h-0.12
			c-0.26,0.02-0.47,0.08-0.649,0.16C24.6,8.82,24.7,8.82,24.81,8.82c0.381,0,0.75,0.01,1.12,0.02C25.75,8.75,25.53,8.69,25.26,8.67z
			 M27.7,9.37c-0.04-0.14-0.11-0.29-0.2-0.44c-0.06-0.11-0.14-0.21-0.24-0.32c-0.06-0.08-0.14-0.16-0.22-0.22
			c-0.021-0.03-0.03-0.04-0.05-0.05c-0.13-0.12-0.271-0.22-0.44-0.3c-0.13-0.08-0.27-0.15-0.43-0.2l0.01-0.14l-0.36-0.03
			c-0.21-0.02-0.46-0.02-0.55-0.01c-0.18-0.01-0.37-0.01-0.58,0.01l-0.35,0.1v0.06C24.14,7.88,24,7.94,23.87,8.01
			C23.7,8.1,23.54,8.2,23.4,8.31c-0.011,0.02-0.03,0.03-0.04,0.04c-0.091,0.07-0.17,0.15-0.24,0.23c-0.101,0.1-0.18,0.2-0.24,0.3
			c-0.09,0.14-0.149,0.27-0.18,0.39c-0.24,0.48-1.46,1.36-1.681,1.48l0.07,0.15l0.08,0.18v0.06l0.01,0.22v0.1h0.98
			c0.109,0,0.32-0.01,0.57-0.09c0.17-0.05,0.369-0.13,0.579-0.27c0.12-0.07,0.24-0.17,0.36-0.29c0.09-0.08,0.18-0.17,0.26-0.28
			c0.141-0.17,0.261-0.36,0.38-0.6c0.011-0.02,0.171-0.45,0.881-0.51c0.689,0.06,0.829,0.44,0.85,0.5l0.05,0.14
			c0.08,0.17,0.17,0.31,0.26,0.44c0.08,0.1,0.15,0.18,0.221,0.26c0.109,0.11,0.22,0.2,0.33,0.27c0.27,0.21,0.55,0.31,0.8,0.37
			c0.229,0.05,0.43,0.06,0.56,0.06h0.931v-0.09l0.01-0.26v-0.09l0.069-0.14l0.07-0.13C29.14,10.64,27.91,9.76,27.7,9.37z
			 M27.99,10.7c-0.11-0.02-0.23-0.05-0.37-0.11c-0.28-0.12-0.601-0.36-0.84-0.83l-0.03-0.07c-0.02-0.08-0.19-0.58-0.81-0.85
			c0,0,0,0-0.011,0c-0.18-0.09-0.399-0.15-0.67-0.17h-0.12c-0.26,0.02-0.47,0.08-0.649,0.16c-0.66,0.27-0.86,0.78-0.87,0.81
			c-0.37,0.76-0.89,0.98-1.25,1.05c0.439-0.38,0.86-0.82,1.02-1.15c0.04-0.14,0.21-0.44,0.561-0.7c0.16-0.11,0.35-0.22,0.6-0.3
			c0.061-0.02,0.141-0.04,0.21-0.06l0.15-0.07h0.439l0.301,0.07c0.08,0.02,0.159,0.04,0.239,0.08c0.221,0.07,0.4,0.18,0.551,0.3
			c0.3,0.24,0.479,0.53,0.569,0.8c0.13,0.25,0.49,0.61,0.891,0.96C27.93,10.65,27.96,10.67,27.99,10.7z M25.26,8.67h-0.12
			c-0.26,0.02-0.47,0.08-0.649,0.16C24.6,8.82,24.7,8.82,24.81,8.82c0.381,0,0.75,0.01,1.12,0.02C25.75,8.75,25.53,8.69,25.26,8.67z
			 M25.26,8.67h-0.12c-0.26,0.02-0.47,0.08-0.649,0.16C24.6,8.82,24.7,8.82,24.81,8.82c0.381,0,0.75,0.01,1.12,0.02
			C25.75,8.75,25.53,8.69,25.26,8.67z M25.26,8.67h-0.12c-0.26,0.02-0.47,0.08-0.649,0.16C24.6,8.82,24.7,8.82,24.81,8.82
			c0.381,0,0.75,0.01,1.12,0.02C25.75,8.75,25.53,8.69,25.26,8.67z"/>
	</g>
</g>
<g>
	<path d="M40.69,17.27c-0.011,0.01-0.03,0.02-0.04,0.03c-0.181,0.13-0.36,0.26-0.551,0.38c-0.09,0.07-0.18,0.13-0.27,0.18
		c-4.15,2.76-9.23,4.27-14.42,4.27h-0.03c-5.33-0.01-11.13-1.53-15.689-4.1c-0.28-0.15-0.551-0.32-0.82-0.48l0.21-0.35l0.05-0.08
		c0.26,0.16,0.53,0.32,0.8,0.47c0.051,0.03,0.11,0.06,0.17,0.1c4.46,2.47,10.08,3.93,15.28,3.94h0.03c5.08,0,10.04-1.47,14.109-4.15
		c0.061-0.04,0.131-0.09,0.2-0.14c0.21-0.13,0.42-0.28,0.62-0.43c0.021-0.01,0.04-0.03,0.061-0.04L40.69,17.27z"/>
</g>
<g>
	<path d="M42.03,24.52c-0.221,0.16-0.44,0.31-0.67,0.45c-4.63,3.03-11.74,4.41-16.62,4.41h-0.03c-5.6-0.01-12.08-1.61-16.55-4.03
		v-0.01c-0.33-0.17-0.65-0.35-0.96-0.54l0.26-0.43c0.22,0.13,0.44,0.26,0.67,0.39v0.01c4.41,2.46,10.95,4.1,16.58,4.11h0.03
		c4.91,0,12.109-1.41,16.64-4.52v-0.01c0.12-0.06,0.24-0.15,0.351-0.23L42.03,24.52z"/>
</g>
<g>
	<path d="M40.03,31.77c-0.48,0.35-0.971,0.68-1.48,0.99c0,0.01,0,0.01-0.01,0.01c-4.04,2.5-8.87,3.86-13.78,3.86h-0.05
		c-4.2-0.01-8.74-0.96-12.71-2.64c-0.53-0.23-1.05-0.47-1.56-0.72L10.3,33.21v-0.16l0.25-0.01l0.11-0.21
		c0.189,0.09,0.38,0.19,0.57,0.27l0.01,0.01c4.12,1.92,8.99,3.01,13.47,3.02h0.05c5.24,0,10.38-1.57,14.521-4.44v-0.01
		c0.149-0.1,0.3-0.2,0.45-0.31L40.03,31.77z"/>
</g>
<g>
	<path fill="none" stroke="#000000" stroke-width="0.5" stroke-miterlimit="10" d="M11.084,39.417"/>
</g>
<g>
	<path fill="none" stroke="#000000" stroke-miterlimit="10" d="M38,13.5"/>
</g>
<g>
	<g>
		<path d="M42.36,13.36l-0.13-0.84l-0.841,0.11c-0.39,0.05-0.87,0.08-1.43,0.08c-0.5,0-0.97-0.02-1.32-0.04c-0.01,0-0.01,0-0.02,0
			c-0.32-0.02-0.54-0.04-0.54-0.04l-0.37-0.04l-0.02,0.2v0.03L37.59,14l-0.02,0.17v0.02l-0.011,0.15h0.03l0.34,0.03
			c0.11,0.01,0.351,0.03,0.681,0.05h0.01c0.53,0.03,1.26,0.05,1.99,0.03c-0.091,0.56-0.37,1.2-1.11,1.57
			c-0.01,0-0.01,0.01-0.02,0.01l-0.33,0.17l0.569,1.14l0.21,0.42l0.17-0.08l0.17-0.08c0.15-0.07,0.29-0.16,0.421-0.25
			C42.33,16.26,42.52,14.31,42.36,13.36z M40.26,16.74l-0.12-0.23c1.051-0.69,1.24-1.81,1.261-2.45l0.02-0.41L41,13.67
			c-0.87,0.06-1.84,0.03-2.45-0.01c-0.069,0-0.13-0.01-0.189-0.01l0.02-0.25c0.061,0,0.12,0.01,0.18,0.01
			c0.37,0.03,0.86,0.05,1.4,0.05c0.59,0,1.1-0.03,1.521-0.08l0.119-0.02l0.021,0.12C41.75,14.25,41.6,15.85,40.26,16.74z"/>
	</g>
</g>
<g>
	<g>
		<path d="M12.31,12.87l-0.029-0.28L12.1,12.61l-0.189,0.02c-0.01,0-0.37,0.03-0.891,0.05c-0.3,0.02-0.64,0.03-0.989,0.03
			c-0.561,0-1.04-0.03-1.431-0.08l-0.84-0.11l-0.14,0.84c-0.14,0.89,0.01,2.68,1.41,3.79c0.02,0.02,0.029,0.04,0.05,0.05
			c0.189,0.15,0.4,0.28,0.64,0.4l0.16,0.08l0.18,0.08l0.04-0.07l0.48-0.97l0.26-0.52l-0.34-0.17c-0.15-0.07-0.28-0.16-0.39-0.25
			c-0.46-0.37-0.66-0.87-0.73-1.33c0.61,0.02,1.23,0.01,1.73-0.02h0.01c0.46-0.02,0.79-0.05,0.939-0.06l0.12-0.01l0.261-0.02V14.3
			L12.31,12.87z M8.99,13.67l-0.42-0.02l0.02,0.41c0.021,0.58,0.18,1.57,1,2.25c0.08,0.08,0.16,0.14,0.25,0.2L9.73,16.74
			c-0.11-0.07-0.211-0.15-0.301-0.23c-1.06-0.91-1.18-2.32-1.06-3.03l0.01-0.12l0.12,0.02c0.42,0.05,0.94,0.08,1.53,0.08
			c0.55,0,1.06-0.02,1.42-0.05c0.05,0,0.1-0.01,0.149-0.01l0.03,0.23v0.02C11.04,13.69,9.96,13.74,8.99,13.67z"/>
	</g>
</g>
</svg>
