<?xml version="1.0" encoding="utf-8"?>
<!-- Generator: Adobe Illustrator 16.0.0, SVG Export Plug-In . SVG Version: 6.00 Build 0)  -->
<!DOCTYPE svg PUBLIC "-//W3C//DTD SVG 1.1//EN" "http://www.w3.org/Graphics/SVG/1.1/DTD/svg11.dtd">
<svg version="1.1" id="Layer_1" xmlns="http://www.w3.org/2000/svg" xmlns:xlink="http://www.w3.org/1999/xlink" x="0px" y="0px"
	 width="50px" height="50px" viewBox="0 0 50 50" enable-background="new 0 0 50 50" xml:space="preserve">
<g>
	<g>
		<path d="M23.168,34.348 M22.755,33.09c0-0.037,0-0.083,0.01-0.12c0.019-0.957,0.641-1.708,1.021-2.6
			c0.408-0.966,0.965-1.885,1.504-2.776c0.353-0.575,0.714-1.16,1.04-1.764l0.259-0.502c2.303-4.354,3.751-5.997,5.682-10.62
			c0.326-0.771,0.65-1.588,0.966-2.396l0.103-0.278c0.529-1.421,1.077-2.896,2.098-4.02c0.298-0.344,0.659-0.632,1.04-0.938
			c0.808-0.659,1.644-1.347,1.848-2.424c0.111-0.622,0-1.179-0.344-1.588c-0.39-0.473-1.049-0.742-1.801-0.742
			c-0.835,0-1.605,0.344-2.052,0.9c-0.687,0.873-0.863,2.006-1.04,3.092c-0.102,0.677-0.204,1.318-0.408,1.894
			c-0.836,2.321-0.9,1.782-1.856,4.021L30.497,13c-0.092,0.186-9.106,18.985-9.153,19.078c-0.046,0.083-0.093,0.186-0.148,0.27
			l0.177,0.065c0.047-0.085,0.093-0.177,0.139-0.261c0.037-0.074,8.783-18.299,9.154-19.078l0.325-0.771
			c0.965-2.247,1.03-1.699,1.856-4.029c0.214-0.604,0.325-1.271,0.427-1.922c0.168-1.077,0.344-2.182,0.994-3.018
			c0.418-0.511,1.132-0.826,1.912-0.826c0.696,0,1.3,0.241,1.652,0.669c0.307,0.37,0.418,0.862,0.307,1.438
			c-0.186,1.003-0.994,1.68-1.782,2.321c-0.362,0.297-0.743,0.612-1.059,0.956c-1.04,1.16-1.598,2.637-2.136,4.075l-0.102,0.27
			c-0.315,0.826-0.632,1.625-0.956,2.396c-1.923,4.624-3.38,6.258-5.683,10.602l-0.26,0.502c-0.315,0.604-0.678,1.197-1.03,1.773
			c-0.538,0.891-1.104,1.811-1.513,2.785c-0.316,0.771-1.086,1.736-1.105,2.59c0,0.056,0,0.111,0.009,0.167
			c0,0.057,0.028,0.111,0.084,0.167c0.019,0.028,0.056,0.037,0.084,0.037 M22.755,33.09l-0.064,0.167
			c-0.26,0.827-0.057,2.052-0.047,2.062c1.736,4.299-3.583,8.494-3.64,8.542c-3.564,2.896-6.192,4.362-7.844,4.362
			c-0.391,0-0.725-0.083-1.013-0.25c-1.216-0.716-0.892-2.693-0.882-2.776c2.033-6.406,9.534-10.314,9.608-10.361
			c1.151-0.259,2.219-2.376,2.229-2.404l0.204,0.111c-0.046,0.084-1.123,2.229-2.349,2.517c-0.046,0.027-7.465,3.899-9.47,10.194
			c0,0.009-0.307,1.884,0.78,2.524c0.946,0.548,3.202,0.287,8.588-4.104c0.056-0.037,5.235-4.131,3.564-8.281
			c-0.019-0.065-0.279-1.355,0.102-2.34c0.028-0.074,0.057-0.148,0.094-0.213l0.148,0.13"/>
		<path d="M11.16,48.473c-0.437,0-0.809-0.093-1.138-0.284c-1.224-0.72-1.08-2.486-1.007-3.011
			c1.911-6.041,8.421-9.843,9.707-10.545l0.097-0.042c0.919-0.206,1.9-1.931,2.055-2.262l0.097-0.28l0.079,0.052
			c0.009-0.017,0.018-0.033,0.025-0.05l0.05-0.094c0.035-0.073,2.19-4.565,4.274-8.909c2.372-4.946,4.825-10.061,4.874-10.159
			l0.319-0.757c0.43-1.006,0.682-1.457,0.903-1.855c0.274-0.491,0.49-0.88,0.948-2.152c0.191-0.539,0.289-1.13,0.396-1.846
			c0.188-1.153,0.374-2.297,1.091-3.209c0.5-0.624,1.34-0.996,2.248-0.996c0.83,0,1.558,0.304,1.994,0.833
			c0.386,0.46,0.523,1.08,0.396,1.791c-0.223,1.176-1.133,1.918-1.936,2.573c-0.387,0.311-0.731,0.587-1.01,0.908
			c-0.988,1.088-1.526,2.533-2.047,3.93l-0.107,0.291c-0.317,0.813-0.643,1.634-0.97,2.406c-1.224,2.931-2.245,4.653-3.428,6.648
			c-0.696,1.174-1.416,2.389-2.264,3.991l-0.257,0.499c-0.313,0.58-0.657,1.141-0.989,1.682l-0.061,0.099
			c-0.539,0.892-1.088,1.799-1.486,2.743c-0.12,0.281-0.264,0.549-0.405,0.813c-0.301,0.562-0.585,1.092-0.597,1.694l-0.211,0.048
			c-0.003,0.007-0.006,0.015-0.01,0.021l0.021,0.039c-0.007-0.012-0.016-0.021-0.024-0.03c-0.006,0.015-0.012,0.029-0.018,0.044
			l0.215,0.083l-0.064,0.167c-0.213,0.681-0.077,1.714-0.041,1.896c1.703,4.262-3.153,8.353-3.713,8.806
			C15.502,47.027,12.885,48.473,11.16,48.473z M9.73,45.316c-0.043,0.367-0.157,1.761,0.665,2.245
			c0.719,0.416,2.753,0.442,8.303-4.081c0.063-0.048,5.084-4.038,3.491-7.994c-0.013-0.038-0.311-1.385,0.078-2.466
			c-0.003-0.034-0.004-0.085-0.004-0.135c0.015-0.637,0.386-1.301,0.714-1.888c0.16-0.285,0.311-0.554,0.41-0.797
			c0.395-0.942,0.929-1.825,1.445-2.68l0.085-0.14c0.331-0.541,0.705-1.153,1.022-1.761l0.26-0.501
			c0.853-1.608,1.575-2.823,2.274-3.998c1.177-1.976,2.192-3.682,3.399-6.584c0.3-0.714,0.611-1.495,0.953-2.389l0.101-0.269
			c0.543-1.449,1.104-2.949,2.184-4.154c0.316-0.345,0.68-0.648,1.087-0.982c0.714-0.581,1.521-1.239,1.694-2.174
			c0.096-0.492,0.008-0.918-0.253-1.233c-0.304-0.367-0.835-0.578-1.46-0.578c-0.7,0-1.342,0.274-1.719,0.734
			c-0.611,0.786-0.778,1.859-0.94,2.897c-0.107,0.688-0.222,1.357-0.438,1.968c-0.471,1.327-0.696,1.732-0.982,2.245
			c-0.217,0.387-0.462,0.825-0.88,1.799l-0.324,0.77c-0.292,0.614-9.106,18.983-9.161,19.092l-0.093,0.176l0.004,0.002l-0.119,0.221
			c-0.371,0.707-1.331,2.336-2.479,2.632C18.111,35.803,11.584,39.52,9.73,45.316z"/>
	</g>
	<g>
		<path d="M11.16,48.348c-0.414,0-0.766-0.087-1.075-0.267C8.93,47.4,9.069,45.7,9.14,45.195l0.007-0.037
			c1.885-5.938,8.357-9.718,9.636-10.415l0.064-0.03c1.094-0.246,2.132-2.311,2.141-2.332l0.056-0.122l0.046,0.023l0.002-0.004
			c0.035-0.052,0.066-0.112,0.096-0.17l0.048-0.091c0.03-0.062,2.094-4.362,4.277-8.916c2.372-4.945,4.825-10.06,4.873-10.157
			l0.323-0.764c0.427-0.999,0.677-1.448,0.897-1.844c0.276-0.496,0.495-0.889,0.957-2.17c0.194-0.551,0.293-1.147,0.401-1.87
			l0.008-0.046c0.178-1.091,0.361-2.218,1.058-3.104c0.477-0.594,1.28-0.948,2.15-0.948c0.793,0,1.484,0.287,1.897,0.788
			c0.362,0.431,0.49,1.016,0.37,1.689c-0.214,1.129-1.105,1.856-1.892,2.498c-0.391,0.313-0.739,0.594-1.024,0.923
			c-1.004,1.104-1.546,2.561-2.07,3.969l-0.107,0.29c-0.285,0.731-0.623,1.587-0.968,2.401c-1.221,2.923-2.24,4.643-3.42,6.634
			c-0.697,1.175-1.417,2.391-2.267,3.996l-0.258,0.501c-0.311,0.574-0.653,1.133-0.984,1.673l-0.061,0.099
			c-0.542,0.896-1.093,1.808-1.495,2.76c-0.119,0.279-0.262,0.545-0.399,0.802c-0.309,0.575-0.6,1.118-0.612,1.751
			c-0.01,0.052-0.01,0.09-0.01,0.118h-0.125l0.116,0.045l-0.064,0.167c-0.229,0.732-0.077,1.829-0.045,1.977
			c1.684,4.182-3.117,8.225-3.671,8.672C15.496,46.87,12.831,48.348,11.16,48.348z M9.609,45.286
			c-0.04,0.311-0.191,1.845,0.723,2.384c0.91,0.529,3.119,0.249,8.445-4.093c0.06-0.044,5.149-4.109,3.527-8.138
			c-0.008-0.025-0.302-1.353,0.09-2.402c-0.006-0.042-0.006-0.097-0.006-0.151c0.014-0.603,0.361-1.225,0.698-1.826
			c0.161-0.289,0.313-0.562,0.417-0.812c0.391-0.933,0.922-1.812,1.436-2.661l0.085-0.141c0.332-0.542,0.708-1.156,1.027-1.767
			l0.259-0.502c0.852-1.605,1.573-2.818,2.271-3.991c1.179-1.979,2.196-3.689,3.407-6.601c0.301-0.715,0.612-1.497,0.954-2.393
			l0.102-0.269c0.538-1.438,1.095-2.927,2.16-4.114c0.31-0.338,0.669-0.639,1.072-0.97c0.73-0.595,1.558-1.268,1.738-2.247
			c0.103-0.53,0.006-0.992-0.28-1.336c-0.326-0.396-0.894-0.624-1.556-0.624c-0.737,0-1.415,0.292-1.815,0.78
			c-0.633,0.813-0.803,1.903-0.968,2.958c-0.106,0.682-0.22,1.344-0.432,1.944c-0.468,1.317-0.691,1.719-0.975,2.226
			c-0.218,0.39-0.465,0.831-0.885,1.812l-0.325,0.77c-0.29,0.609-9.104,18.976-9.158,19.085l-0.065,0.125
			c-0.025,0.048-0.05,0.095-0.075,0.141l-0.009,0.017l0.004,0.002l-0.061,0.109c-0.287,0.549-1.277,2.294-2.413,2.575
			C18.136,35.646,11.486,39.398,9.609,45.286z"/>
		<path d="M11.16,48.598c-0.46,0-0.853-0.099-1.201-0.301c-1.289-0.76-1.143-2.593-1.067-3.136l0.017-0.078
			c1.914-6.03,8.461-9.854,9.754-10.56l0.078-0.037c0.9-0.208,1.82-1.797,2.021-2.212l0.163-0.357l0.063,0.033l0.026-0.049
			c0.03-0.063,2.043-4.258,4.272-8.908c2.733-5.698,4.828-10.065,4.874-10.159l0.317-0.751c0.435-1.017,0.688-1.469,0.909-1.868
			c0.271-0.486,0.485-0.871,0.94-2.133c0.187-0.529,0.283-1.113,0.39-1.822c0.19-1.171,0.38-2.33,1.116-3.268
			c0.524-0.654,1.401-1.044,2.347-1.044c0.868,0,1.63,0.32,2.091,0.879c0.409,0.487,0.557,1.143,0.423,1.893
			c-0.231,1.221-1.16,1.979-1.979,2.647c-0.388,0.312-0.722,0.579-0.994,0.894c-0.974,1.071-1.507,2.503-2.022,3.888l-0.109,0.294
			c-0.287,0.737-0.626,1.595-0.972,2.412c-1.226,2.934-2.247,4.658-3.431,6.655c-0.66,1.113-1.403,2.364-2.266,3.994l-0.256,0.498
			c-0.314,0.58-0.655,1.138-0.986,1.676l-0.068,0.112c-0.531,0.88-1.082,1.79-1.478,2.727c-0.122,0.285-0.267,0.556-0.407,0.817
			c-0.295,0.551-0.571,1.065-0.585,1.637l0.055,0.021l-0.064,0.167v0.182h-0.07l-0.02,0.052c-0.204,0.652-0.062,1.707-0.034,1.833
			c1.74,4.313-3.19,8.461-3.758,8.92C15.61,47.1,12.889,48.598,11.16,48.598z M19.096,35.411c-0.871,0.475-7.414,4.198-9.248,9.951
			c-0.026,0.232-0.164,1.635,0.611,2.092c0.186,0.108,0.423,0.163,0.706,0.163c1.031,0,3.161-0.734,7.454-4.233
			c0.058-0.045,5.005-3.998,3.454-7.851c-0.011-0.031-0.309-1.318,0.033-2.426l-0.562-0.217
			C21.124,33.659,20.198,35.114,19.096,35.411z M22.736,38.271c-0.381,1.644-1.467,3.123-2.383,4.134
			C21.278,41.396,22.365,39.922,22.736,38.271z M21.572,32.84h0.568c0.029-0.655,0.385-1.289,0.729-1.902
			c0.16-0.289,0.307-0.552,0.403-0.785c0.398-0.951,0.935-1.838,1.453-2.694l0.085-0.141c0.33-0.539,0.702-1.147,1.02-1.754
			l0.258-0.5c0.859-1.62,1.581-2.832,2.279-4.005c1.173-1.97,2.186-3.671,3.392-6.568c0.295-0.703,0.606-1.483,0.951-2.386
			l0.102-0.269c0.546-1.46,1.11-2.97,2.207-4.192c0.319-0.348,0.688-0.657,1.101-0.996c0.698-0.568,1.486-1.211,1.65-2.099
			c0.089-0.457,0.01-0.847-0.227-1.131c-0.279-0.34-0.776-0.534-1.363-0.534c-0.662,0-1.269,0.258-1.622,0.688
			c-0.589,0.757-0.754,1.813-0.913,2.835C33.535,7.104,33.42,7.778,33.2,8.399c-0.476,1.341-0.703,1.749-0.992,2.265
			c-0.216,0.387-0.459,0.822-0.873,1.788l-0.324,0.769c-0.289,0.607-9.107,18.983-9.165,19.099l-0.032,0.062l0.004,0.002
			l-0.183,0.34C21.615,32.759,21.595,32.799,21.572,32.84z"/>
	</g>
</g>
<g>
	<g>
		<path d="M11.869,48.21c-0.239,0-0.458-0.03-0.656-0.092l0.069-0.221c1.02,0.312,3.286-0.16,8.275-4.229
			c0.055-0.043,5.187-4.008,3.211-8.82c-0.355-1.104-0.355-1.112-0.355-1.137h0.232h-0.116l0.113-0.025
			c0.012,0.047,0.212,0.673,0.344,1.083c2.041,4.97-3.232,9.041-3.286,9.081C16.15,46.748,13.521,48.21,11.869,48.21z"/>
		<path d="M11.869,48.585c-0.277,0-0.535-0.036-0.768-0.108l-0.359-0.111l0.294-0.936l0.355,0.109
			c0.134,0.041,0.289,0.062,0.462,0.062c1.045,0,3.188-0.732,7.467-4.223c0.21-0.164,4.935-3.92,3.102-8.387
			c-0.145-0.446-0.234-0.726-0.291-0.904h-2.989l2.896-0.649v-0.101l0.522-0.017l0.357-0.08l0.089,0.355
			c0.019,0.068,0.21,0.665,0.337,1.059c2.125,5.174-3.363,9.455-3.419,9.497C16.273,47.132,13.635,48.585,11.869,48.585z"/>
	</g>
</g>
<g opacity="0.3">
	<g>
		<path d="M13.151,44.783l-0.085-0.216c0.059-0.022,5.749-2.289,5.749-5.896h0.232C19.048,42.438,13.392,44.689,13.151,44.783z"/>
		<path d="M13.01,45.106l-0.268-0.681l0.234-0.092c0.056-0.021,5.589-2.27,5.589-5.663v-0.25h0.732v0.25
			c0,3.937-5.809,6.249-6.056,6.345L13.01,45.106z"/>
	</g>
</g>
</svg>
