<?xml version="1.0" encoding="utf-8"?>
<!-- Generator: Adobe Illustrator 16.0.0, SVG Export Plug-In . SVG Version: 6.00 Build 0)  -->
<!DOCTYPE svg PUBLIC "-//W3C//DTD SVG 1.1//EN" "http://www.w3.org/Graphics/SVG/1.1/DTD/svg11.dtd">
<svg version="1.1" id="Layer_1" xmlns="http://www.w3.org/2000/svg" xmlns:xlink="http://www.w3.org/1999/xlink" x="0px" y="0px"
	 width="50px" height="50px" viewBox="0 0 50 50" enable-background="new 0 0 50 50" xml:space="preserve">
<g>
	<g>
		<g>
			<polygon points="23.293,23.667 22.894,23.277 23.247,22.923 23.646,23.314 			"/>
		</g>
		<g>
			<path fill="none" d="M24.12,24.13c-0.04-0.03-0.08-0.08-0.12-0.11"/>
		</g>
		<g>
			<polygon points="26.304,26.646 25.994,26.327 26.365,25.993 26.657,26.293 			"/>
		</g>
		<g>
			<polygon points="27.1,27.33 26.987,27.33 26.823,27.156 27.09,26.919 27.09,26.83 27.092,26.917 27.196,26.824 27.276,26.914 
				27.095,27.076 			"/>
		</g>
		<g>
			<path fill="#FFFFFF" d="M41.09,41.49l-0.02-0.021L41.05,41.44c-0.5-0.561-3.5-3.9-11.54-11.95c-0.04-0.04-0.069-0.07-0.109-0.11
				c-0.03-0.03-0.07-0.07-0.101-0.1"/>
			<path d="M40.909,41.663l-0.064-0.079c-0.756-0.845-3.875-4.271-11.512-11.917l-0.207-0.207l0.348-0.359l0.213,0.213
				c7.646,7.655,10.773,11.09,11.55,11.961l0.039,0.052L40.909,41.663z"/>
		</g>
		<g>
			<polygon points="28.15,28.38 28.028,28.38 27.554,27.887 27.907,27.533 28.325,27.962 28.145,28.125 			"/>
		</g>
		<g>
			<path d="M25.042,25.396l0.178-0.176l-0.185,0.169c-0.053-0.053-0.104-0.106-0.157-0.169c-0.049-0.037-0.138-0.115-0.216-0.205
				l0.375-0.33c0.063,0.071,0.134,0.132,0.195,0.185c0.073,0.082,0.115,0.125,0.158,0.167L25.042,25.396z"/>
		</g>
		<g>
			<path d="M22.438,24.55c-0.063-0.068-0.126-0.13-0.188-0.192c-0.066-0.066-0.131-0.131-0.193-0.198l0.354-0.353
				c0.07,0.076,0.131,0.136,0.192,0.197c0.065,0.066,0.133,0.133,0.199,0.205L22.438,24.55z"/>
		</g>
		<g>
			<path fill="#FFFFFF" d="M41.13,41.53l-0.04-0.04l-0.02-0.021H41.06c-4.89-4.069-8.71-7.51-12.47-11.14
				c-0.07-0.061-0.13-0.13-0.2-0.19c-0.01-0.01-0.029-0.029-0.04-0.05"/>
			<path d="M41.07,41.72l-0.171-0.058c-4.673-3.89-8.523-7.329-12.483-11.152c-0.029-0.024-0.066-0.062-0.104-0.098
				c-0.027-0.028-0.056-0.057-0.086-0.083c-0.04-0.039-0.073-0.075-0.099-0.123l0.443-0.232c0.021,0.011,0.059,0.048,0.096,0.084
				c0.027,0.028,0.056,0.057,0.086,0.083c3.941,3.805,7.765,7.222,12.397,11.079h0.017l0.084,0.077l-0.181,0.249V41.72z"/>
		</g>
		<g>
			<path d="M27.104,29.236l-0.269-0.274c-0.002,0.008-0.039-0.023-0.072-0.071c-0.02-0.003-0.075-0.058-0.128-0.124l0.19-0.152
				L26.82,28.36h0.13l0.075,0.094c0.026,0.033,0.052,0.06,0.075,0.077l0.356,0.352L27.104,29.236z"/>
		</g>
		<g>
			<path d="M25.524,27.678c-0.059-0.058-0.108-0.108-0.157-0.164c-0.031-0.025-0.063-0.056-0.094-0.087l-0.26-0.26l0.354-0.354
				l0.26,0.26c0.019,0.019,0.035,0.037,0.054,0.05l0.051,0.047c0.045,0.053,0.09,0.099,0.145,0.152L25.524,27.678z"/>
		</g>
		<g>
			<path d="M24.273,26.417l-0.468-0.458c-0.017-0.016-0.034-0.037-0.051-0.057l0.226-0.246V25.53l0.114,0.001l0.191,0.19
				l0.341,0.342L24.273,26.417z"/>
		</g>
	</g>
	<g>
		<g>
			<g>
				<path fill="#FFFFFF" d="M31.136,28.19l0.048-0.095c0.515,0.84-1.829,1.449-1.829,1.449c-1.283,0.928-1.613,2.735-1.613,2.735
					c-0.364,0.836-0.829,1.649-0.966,1.188c-0.031-0.072-0.043-0.18-0.049-0.326c-0.013-0.384-0.461-0.888-0.461-0.888
					c0.349-1.118,0.497-1.005,0.497-1.005c-0.031-0.004-0.063-0.004-0.099-0.015"/>
				<path d="M26.915,33.854c-0.016,0-0.029-0.001-0.042-0.002c-0.075-0.005-0.258-0.044-0.337-0.312
					c-0.038-0.083-0.053-0.219-0.06-0.388c-0.007-0.214-0.248-0.562-0.397-0.731l-0.094-0.105l0.042-0.135
					c0.309-0.992,0.488-1.124,0.633-1.17l0.124-0.039l0.13,0.079l0.736,0.563l-0.823-0.104c-0.048,0.077-0.143,0.265-0.282,0.691
					c0.15,0.19,0.42,0.581,0.432,0.934c0.001,0.024,0.002,0.047,0.003,0.067c0.125-0.18,0.31-0.509,0.532-1.021
					c-0.002-0.023,0.348-1.863,1.696-2.838l0.083-0.04c0.622-0.162,1.562-0.547,1.702-0.896c0.018-0.045,0.027-0.098-0.022-0.18
					l0.106-0.065l-0.164-0.083l0.249-0.495l0.234,0.382c0.124,0.202,0.145,0.419,0.061,0.629c-0.271,0.673-1.617,1.079-1.992,1.181
					c-1.154,0.864-1.475,2.534-1.478,2.551C27.373,33.75,27.079,33.854,26.915,33.854z"/>
			</g>
			<g>
				<path fill="#FFFFFF" d="M27.47,28.14c-0.04,0.08-0.09,0.17-0.13,0.271c-0.01,0.02-0.02,0.04-0.02,0.05l-0.011,0.01
					c-0.01,0.021-0.02,0.04-0.02,0.061c-0.021,0.05-0.04,0.08-0.06,0.12c-0.03,0.09-0.061,0.17-0.091,0.239
					c0,0.011-0.01,0.011-0.01,0.021c-0.22,0.55-0.27,0.729-0.58,0.88c-0.02,0-0.04,0.01-0.06,0.02c0-0.01,0.01-0.029,0.01-0.04
					c0.13-0.279,0.29-0.55,0.46-0.84c0.01,0,0.01-0.01,0.01-0.01c0.011,0,0.011-0.01,0.011-0.01c0.01,0,0.01-0.01,0.01-0.01
					c0.02-0.03,0.029-0.061,0.05-0.08c-0.021-0.021-0.05-0.04-0.07-0.07c-0.01-0.01-0.01-0.01-0.02-0.02L27.47,28.14z"/>
				<path d="M26.369,30.006l-0.004-0.216l0.021-0.073c0.126-0.271,0.28-0.534,0.442-0.811l0.016-0.027v-0.08l-0.062-0.062
					l0.073-0.09l1.156-1.315l-0.462,0.924c-0.031,0.061-0.065,0.128-0.095,0.2l-0.092-0.008l-0.008,0.009l0.085,0.031v0.056
					l-0.019,0.004l-0.018,0.03c-0.015,0.036-0.029,0.063-0.044,0.091l-0.019,0.036c-0.022,0.07-0.05,0.144-0.078,0.21v0.024
					l-0.022,0.027l-0.045,0.112c-0.187,0.47-0.263,0.664-0.593,0.823L26.369,30.006z"/>
			</g>
			<g>
				<path d="M26.912,28.975l0.446-0.891c0.079-0.159,0.168-0.305,0.271-0.447l0.203,0.146c-0.004,0.005-0.007,0.009-0.01,0.014
					l0.063,0.055L26.912,28.975z"/>
			</g>
			<g>
				<line fill="none" x1="26.83" y1="28.61" x2="26.82" y2="28.61"/>
			</g>
			<g>
				<path fill="none" stroke="#000000" stroke-width="0.5" stroke-miterlimit="10" d="M24.77,30.61"/>
			</g>
			<g>
				<path d="M26.646,33.777c-0.033,0-0.066-0.005-0.1-0.016c-0.315-0.07-0.331-0.545-0.336-0.704
					c-0.006-0.235-0.277-0.623-0.408-0.773l-0.085-0.098l0.03-0.126c0.019-0.075,0.038-0.143,0.057-0.202l0.003-0.014
					c0.064-0.284,0.073-0.506,0.025-0.66L25.82,31.11l0.269-0.006l0.22-0.068c0.076,0.243,0.071,0.544-0.016,0.92
					c-0.01,0.039-0.02,0.072-0.028,0.104c0.149,0.194,0.437,0.611,0.445,0.983c0.001,0.034,0.003,0.065,0.005,0.093
					c0.128-0.167,0.311-0.472,0.585-1.073c0.02-0.099,0.085-0.404,0.23-0.808l0.03-0.096l0.133-0.307
					c0.122-0.272,0.275-0.544,0.446-0.793V29.89l0.13-0.005c0.008-0.011,0.015-0.021,0.021-0.028
					c0.258-0.328,0.498-0.561,0.756-0.741l0.187-0.076c0.104-0.028,0.271-0.084,0.467-0.169l0.059-0.021
					c0.719-0.266,1.051-0.47,1.169-0.578c-0.088-0.035-0.283-0.094-0.683-0.133c0.022,0.002-0.572,0.046-0.969-0.339
					c-0.113-0.101-0.196-0.224-0.26-0.39c-0.029-0.076-0.041-0.106-0.05-0.141l0.485-0.121l0.041,0.112
					c0.025,0.062,0.063,0.119,0.123,0.173c0.24,0.231,0.628,0.208,0.635,0.207c0.584,0.053,0.916,0.149,1.087,0.304
					c0.114,0.118,0.154,0.253,0.122,0.391c-0.031,0.136-0.104,0.453-1.492,0.971l-0.034,0.034l-0.072,0.005
					c-0.171,0.072-0.32,0.125-0.431,0.158l-0.027,0.027l-0.08,0.006c-0.005,0.002-0.009,0.004-0.012,0.005
					c-0.21,0.15-0.408,0.346-0.605,0.595l-0.027,0.085l-0.057,0.036l-0.04,0.123h-0.055c-0.144,0.214-0.272,0.445-0.377,0.676
					l-0.021,0.056l-0.114,0.275c-0.169,0.459-0.228,0.792-0.229,0.795l-0.019,0.062c-0.464,1.02-0.701,1.287-0.84,1.4
					C26.842,33.73,26.745,33.777,26.646,33.777z"/>
			</g>
			<g opacity="0.1">
				<g>
					<path d="M28.807,28.719c-0.082-0.037,0.025,0.079,0.083,0.074l0.058-0.016C28.947,28.777,28.869,28.747,28.807,28.719z"/>
				</g>
				<g>
					<path d="M29.08,28.436c-0.082-0.037,0.025,0.077,0.083,0.072l0.055-0.013C29.218,28.495,29.146,28.464,29.08,28.436z"/>
				</g>
				<g>
					<path d="M28.536,27.826c-0.084-0.032,0.024,0.081,0.081,0.075l0.057-0.014C28.674,27.888,28.596,27.859,28.536,27.826z"/>
				</g>
				<g>
					<path d="M28.397,28.981c-0.083-0.037,0.027,0.077,0.083,0.072l0.057-0.015C28.537,29.039,28.462,29.01,28.397,28.981z"/>
				</g>
				<g>
					<path d="M29.017,27.857c-0.084-0.038,0.024,0.078,0.078,0.072l0.06-0.016C29.154,27.914,29.079,27.888,29.017,27.857z"/>
				</g>
				<g>
					<path d="M28.07,29.262c-0.081-0.034,0.026,0.079,0.083,0.073l0.056-0.012C28.209,29.323,28.131,29.293,28.07,29.262z"/>
				</g>
				<g>
					<path d="M28.35,28.692c-0.086-0.04,0.023,0.079,0.082,0.07l0.056-0.012C28.487,28.751,28.411,28.721,28.35,28.692z"/>
				</g>
				<g>
					<path d="M28.273,29.556c-0.081-0.039,0.027,0.077,0.081,0.072l0.06-0.013C28.414,29.615,28.336,29.584,28.273,29.556z"/>
				</g>
				<g>
					<path d="M28.366,31.794c-0.08-0.035,0.027,0.077,0.082,0.072l0.055-0.013C28.503,31.854,28.428,31.822,28.366,31.794z"/>
				</g>
				<g>
					<path d="M28.278,28.403c-0.082-0.038,0.026,0.074,0.083,0.069l0.056-0.013C28.417,28.46,28.341,28.43,28.278,28.403z"/>
				</g>
				<g>
					<path d="M28.76,27.6l-0.05,0.011c-0.03,0-0.06-0.021-0.09-0.04c-0.03-0.03-0.04-0.051,0-0.03c0.01,0.01,0.03,0.01,0.04,0.02
						h0.01C28.72,27.58,28.76,27.6,28.76,27.6z"/>
				</g>
				<g>
					<path d="M29.363,29.019c-0.081-0.039,0.025,0.079,0.084,0.07l0.057-0.011C29.504,29.078,29.427,29.048,29.363,29.019z"/>
				</g>
				<g>
					<path d="M28.824,28.122c-0.08-0.037,0.027,0.077,0.084,0.072l0.054-0.015C28.962,28.18,28.888,28.153,28.824,28.122z"/>
				</g>
				<g>
					<path d="M27.967,32.074c-0.082-0.037,0.028,0.079,0.083,0.075l0.058-0.014C28.107,32.136,28.031,32.107,27.967,32.074z"/>
				</g>
				<g>
					<path d="M29.303,28.153c-0.082-0.042,0.027,0.076,0.084,0.067l0.056-0.011C29.442,28.21,29.367,28.18,29.303,28.153z"/>
				</g>
			</g>
			<g opacity="0.1">
				<g>
					<path d="M27.916,28.351c-0.084-0.035,0.028,0.079,0.084,0.072l0.058-0.011C28.058,28.412,27.98,28.381,27.916,28.351z"/>
				</g>
				<g>
					<path d="M28.19,28.067c-0.083-0.037,0.026,0.079,0.083,0.072l0.058-0.013C28.331,28.127,28.253,28.096,28.19,28.067z"/>
				</g>
				<g>
					<path d="M28.11,29.221c-0.081-0.037,0.027,0.079,0.083,0.072l0.058-0.014C28.251,29.279,28.173,29.249,28.11,29.221z"/>
				</g>
				<g>
					<path d="M27.975,30.376c-0.083-0.042,0.025,0.076,0.083,0.07l0.055-0.016C28.112,30.431,28.037,30.404,27.975,30.376z"/>
				</g>
				<g>
					<path d="M28.26,27.55l-0.05,0.01c-0.06,0.011-0.17-0.109-0.09-0.069C28.19,27.52,28.26,27.55,28.26,27.55z"/>
				</g>
				<g>
					<path d="M27.646,30.654c-0.082-0.037,0.029,0.079,0.084,0.072l0.055-0.011C27.785,30.716,27.708,30.685,27.646,30.654z"/>
				</g>
				<g>
					<path d="M27.925,30.087c-0.083-0.04,0.024,0.074,0.083,0.067l0.056-0.011C28.063,30.144,27.989,30.112,27.925,30.087z"/>
				</g>
				<g>
					<path d="M27.853,30.948c-0.084-0.04,0.024,0.079,0.083,0.072l0.055-0.014C27.99,31.007,27.912,30.979,27.853,30.948z"/>
				</g>
				<g>
					<path d="M27.728,31.235c-0.081-0.04,0.029,0.076,0.085,0.07l0.055-0.012C27.867,31.294,27.789,31.264,27.728,31.235z"/>
				</g>
				<g>
					<path d="M27.855,29.795c-0.084-0.039,0.022,0.077,0.081,0.07l0.057-0.014C27.993,29.852,27.916,29.821,27.855,29.795z"/>
				</g>
				<g>
					<path d="M28.201,28.936c-0.082-0.042,0.025,0.074,0.085,0.07l0.054-0.014C28.34,28.992,28.262,28.964,28.201,28.936z"/>
				</g>
				<g>
					<path d="M28.475,28.65c-0.085-0.039,0.025,0.077,0.081,0.07l0.058-0.011C28.613,28.71,28.537,28.682,28.475,28.65z"/>
				</g>
				<g>
					<path d="M28.07,27.81L28.02,27.83c-0.01,0-0.02,0-0.029-0.01c-0.061-0.03-0.12-0.09-0.05-0.061
						c0.029,0.01,0.05,0.021,0.079,0.03C28.05,27.8,28.07,27.81,28.07,27.81z"/>
				</g>
				<g>
					<path d="M27.077,31.711c-0.085-0.04,0.027,0.076,0.083,0.067l0.056-0.011C27.216,31.768,27.141,31.737,27.077,31.711z"/>
				</g>
				<g>
					<path d="M28.414,27.785c-0.082-0.04,0.025,0.076,0.082,0.069l0.058-0.013C28.554,27.842,28.475,27.813,28.414,27.785z"/>
				</g>
			</g>
			<g>
				<path d="M26.733,33.91c-0.085,0-0.171-0.02-0.245-0.074c-0.056-0.041-0.147-0.137-0.141-0.313l0.006-0.142l0.265-0.162
					l0.155,0.083l-0.132,0.211l0.206,0.025c0.002-0.056-0.066-0.126-0.116-0.129c0.022,0.004,0.062-0.005,0.175-0.044l0.113,0.226
					l0.06,0.243C26.997,33.864,26.866,33.91,26.733,33.91z"/>
			</g>
		</g>
		<g>
			<g>
				<path fill="none" stroke="#000000" stroke-width="0.5" stroke-miterlimit="10" d="M24.77,30.61"/>
			</g>
			<g>
				<path d="M25.279,33.209c-0.012,0-0.023,0-0.035-0.001c-0.096-0.008-0.269-0.063-0.354-0.334L24.88,32.8l0.286-0.011l0.203-0.063
					c-0.013-0.007-0.094-0.031-0.137-0.009c0.018-0.009,0.179-0.107,0.57-0.872l0.023-0.056c0.087-0.176,0.165-0.351,0.243-0.536
					l0,0c-0.006,0,0.224-1.226,1.007-2.337c0.166-0.244,0.355-0.472,0.563-0.674V28.1l0.155-0.006
					c0.059-0.054,0.122-0.106,0.19-0.161l0.113-0.076c-0.018,0.004,0-0.017,0.05-0.04c0.053-0.02,0.637-0.177,1.201-0.425
					c0.744-0.347,0.921-0.615,0.96-0.744c0.016-0.053,0.025-0.127-0.042-0.235l0.092-0.058l-0.156-0.09l0.25-0.432l0.24,0.315
					c0.127,0.205,0.159,0.428,0.095,0.643c-0.113,0.378-0.517,0.723-1.232,1.056c-0.507,0.224-1.01,0.373-1.176,0.42
					c-0.004,0.003-0.007,0.006-0.012,0.009l-0.101,0.072c-0.046,0.036-0.089,0.072-0.128,0.109v0.001l-0.061,0.057l-0.001,0.001
					l-0.079,0.074c-0.188,0.182-0.36,0.387-0.512,0.61c-0.721,1.022-0.939,2.183-0.941,2.194c-0.089,0.224-0.164,0.396-0.246,0.564
					l-0.027,0.064C25.783,32.99,25.523,33.209,25.279,33.209z"/>
			</g>
			<g>
				<path fill="none" d="M27.25,25.12v-0.01c0.01-0.01,0.03-0.03,0.04-0.04"/>
			</g>
			<g>
				<path d="M24.97,33.116c-0.024,0-0.048-0.002-0.068-0.006l-0.074-0.018c-0.269-0.108-0.309-0.454-0.327-0.8
					c-0.006-0.288-0.319-0.738-0.516-0.956l-0.064-0.071l0.011-0.18c0.181-0.581,0.165-0.877,0.12-1.022l0.479-0.146
					c0.089,0.291,0.062,0.682-0.083,1.191c0.179,0.22,0.544,0.722,0.554,1.166c0.006,0.113,0.015,0.194,0.023,0.252
					c0.147-0.17,0.393-0.539,0.783-1.405c0.006-0.027,0.015-0.06,0.029-0.097c0.038-0.203,0.117-0.522,0.264-0.91V30.05l0.053-0.084
					c0.031-0.08,0.064-0.163,0.102-0.242l0.004-0.011c0.145-0.325,0.299-0.589,0.462-0.868l0.011-0.185h0.117
					c0.006-0.007,0.013-0.014,0.02-0.021c0.029-0.055,0.089-0.143,0.167-0.227c0.028-0.047,0.063-0.084,0.092-0.113
					c0.218-0.267,0.422-0.463,0.642-0.615c0.013-0.017,0.033-0.036,0.06-0.056l0.024-0.023l0.187,0.17l-0.137-0.209l0.073-0.073
					l0.05,0.01l0.031-0.003c0.033-0.012,0.076-0.026,0.126-0.043c0.079-0.026,0.18-0.061,0.296-0.102l0.032-0.035l0.088-0.006
					c0.023-0.012,0.05-0.021,0.079-0.026l0.001-0.001l0.478-0.198c1.025-0.416,1.116-0.646,1.117-0.649
					c-0.032,0.03-0.189-0.089-0.939-0.172c0.01,0.005-0.877,0.063-1.322-0.61c-0.093-0.147-0.153-0.319-0.188-0.528l-0.015-0.041
					l0.001-0.049h0.5c0.03,0.149,0.068,0.263,0.121,0.347c0.28,0.422,0.904,0.384,0.911,0.383c0.736,0.077,1.109,0.188,1.295,0.374
					c0.111,0.115,0.154,0.257,0.124,0.402c-0.043,0.202-0.236,0.526-1.417,1.006l-0.639,0.254c-0.145,0.052-0.269,0.094-0.364,0.126
					l-0.288,0.163c-0.18,0.125-0.351,0.291-0.538,0.522l-0.098,0.119c-0.068,0.068-0.118,0.146-0.169,0.222l-0.018,0.028
					L27.22,29.17l-0.113,0.004c-0.145,0.249-0.268,0.464-0.369,0.679l-0.005,0.016c-0.055,0.126-0.085,0.204-0.114,0.279
					l-0.035,0.103c-0.167,0.433-0.242,0.771-0.268,0.897l-0.037,0.146c-0.398,0.886-0.729,1.449-0.982,1.674
					C25.177,33.085,25.061,33.116,24.97,33.116z"/>
			</g>
			<g opacity="0.1">
				<g>
					<path d="M28.09,26.76l-0.07,0.021c-0.06,0-0.189-0.141-0.09-0.09C28,26.73,28.09,26.76,28.09,26.76z"/>
				</g>
				<g>
					<path d="M27.43,26.03l-0.069,0.01c-0.061,0.01-0.2-0.13-0.101-0.08C27.34,25.99,27.43,26.03,27.43,26.03z"/>
				</g>
				<g>
					<path d="M27.27,27.42L27.2,27.44C27.13,27.45,27,27.31,27.1,27.35C27.18,27.39,27.27,27.42,27.27,27.42z"/>
				</g>
				<g>
					<path d="M28.01,26.06L27.94,26.08c-0.061,0-0.19-0.14-0.091-0.09C27.92,26.03,28.01,26.06,28.01,26.06z"/>
				</g>
				<g>
					<path d="M27.059,30.766c-0.098-0.045,0.034,0.094,0.101,0.086l0.068-0.014C27.228,30.838,27.134,30.801,27.059,30.766z"/>
				</g>
				<g>
					<path d="M28.495,26.813l-0.07,0.021c-0.06,0-0.2-0.141-0.1-0.09C28.405,26.773,28.495,26.813,28.495,26.813z"/>
				</g>
				<g>
					<path d="M27.374,25.609c-0.102-0.049,0.033,0.092,0.102,0.085l0.066-0.016C27.542,25.679,27.45,25.643,27.374,25.609z"/>
				</g>
				<g>
					<path d="M28.44,27.47l-0.07,0.011c-0.07,0.01-0.2-0.131-0.101-0.08C28.34,27.43,28.44,27.47,28.44,27.47z"/>
				</g>
				<g>
					<path d="M27.78,26.38L27.72,26.4c-0.069,0.01-0.2-0.131-0.1-0.091C27.69,26.35,27.78,26.38,27.78,26.38z"/>
				</g>
				<g>
					<path d="M26.576,31.107c-0.101-0.049,0.033,0.094,0.101,0.088l0.069-0.018C26.746,31.178,26.652,31.145,26.576,31.107z"/>
				</g>
				<g>
					<path d="M28.37,26.42l-0.07,0.01c-0.069,0.011-0.2-0.13-0.1-0.08C28.27,26.38,28.37,26.42,28.37,26.42z"/>
				</g>
			</g>
			<g>
				<path d="M25.084,33.276c-0.098,0-0.193-0.022-0.274-0.086c-0.058-0.045-0.151-0.148-0.139-0.337l0.016-0.233l0.146-0.006
					l0.13-0.066l0.155,0.1l-0.144,0.196l0.196,0.016c-0.001-0.018-0.052-0.077-0.094-0.083c0.026,0.001,0.107-0.011,0.226-0.049
					l0.088-0.024l0.08,0.494C25.368,33.23,25.225,33.276,25.084,33.276z"/>
			</g>
		</g>
		<g>
			<path fill="none" d="M26.898,21.442C26.89,21.421,26.89,21.4,26.89,21.39"/>
		</g>
		<g>
			<polygon points="25.033,27.42 24.95,27.42 24.945,27.163 24.801,26.97 25.041,26.79 25.34,27.19 			"/>
		</g>
		<g>
			<path fill="#FFFFFF" d="M25.85,26.55c0.011-0.01,0.011-0.01,0.021-0.02l0.399-0.271l1.61-1.1h0.01l0.17-0.12l1.95-1.33l0.05-0.1
				l0.03-0.05c0.53,0.86-0.84,1.57-1.87,1.96c-0.569,0.22-1.04,0.34-1.04,0.34c-0.26,0.18-0.489,0.39-0.699,0.61
				c-0.301,0.32-0.561,0.67-0.78,1.03c-0.83,1.33-1.08,2.71-1.08,2.71c-0.14,0.33-0.29,0.65-0.45,0.95c0,0,0,0,0,0.01
				c-0.47,0.89-0.92,1.48-1.09,0.93c0-0.01,0-0.01,0-0.02c-0.05-0.12-0.07-0.28-0.08-0.5c-0.01-0.35-0.24-0.76-0.45-1.05
				c-0.149-0.21-0.28-0.36-0.28-0.36c0-0.01,0.011-0.02,0.011-0.03c0.43-1.38,0.67-1.56,0.75-1.569
				c-0.04-0.011-0.08-0.011-0.12-0.021l0.25-0.17l0.46-0.31V28.06"/>
			<path d="M23.278,32.563c-0.015,0-0.029-0.001-0.043-0.003c-0.129-0.012-0.302-0.089-0.395-0.388l-0.011-0.047
				c-0.045-0.131-0.069-0.291-0.08-0.535c-0.007-0.237-0.153-0.569-0.402-0.914c-0.142-0.197-0.264-0.339-0.267-0.343l-0.062-0.07
				l0.024-0.204c0.208-0.668,0.377-1.082,0.521-1.337l-0.261-0.063l1.176-0.796l0.136,0.202l0.254-0.006v0.133l-0.354,0.249
				l0.823,0.221l-1.232,0.15c-0.054,0.06-0.243,0.319-0.557,1.304c0.054,0.067,0.126,0.16,0.204,0.27
				c0.179,0.247,0.483,0.733,0.496,1.188c0.009,0.203,0.028,0.331,0.061,0.411l0.012,0.028c0.095-0.088,0.282-0.315,0.598-0.905
				l0.029-0.065c0.15-0.281,0.299-0.594,0.44-0.93c-0.005-0.005,0.253-1.39,1.099-2.745c0.146-0.239,0.306-0.468,0.476-0.682
				l-0.282-0.32l0.168,0.185l-0.162-0.19l4.188-2.929l0.212-0.349l0.215,0.348c0.161,0.261,0.197,0.542,0.104,0.813
				c-0.186,0.547-0.892,1.056-2.099,1.513c-0.48,0.186-0.889,0.301-1.021,0.336c-0.207,0.147-0.412,0.328-0.626,0.553
				c-0.274,0.292-0.526,0.625-0.747,0.987c-0.797,1.277-1.046,2.611-1.048,2.625c-0.153,0.378-0.3,0.688-0.447,0.969l-0.028,0.063
				C23.816,32.375,23.512,32.563,23.278,32.563z M29.94,24.06l-1.78,1.216c1-0.383,1.646-0.817,1.774-1.195
				C29.937,24.073,29.938,24.066,29.94,24.06z"/>
		</g>
		<g>
			<path d="M20.709,27.849l-0.06-0.06l-0.164,0.001c0-0.013,0-0.043,0.016-0.076c0.016-0.057,0.06-0.106,0.127-0.143
				c0.026-0.028,0.057-0.044,0.076-0.053l0.076,0.102l0.054,0.113L20.76,27.63l0.044,0.118l-0.019,0.037l-0.02-0.004L20.709,27.849z
				"/>
		</g>
		<g>
			<path fill="#FFFFFF" d="M26.86,21.26l-0.011,0.01v0.01l-0.01,0.01l-0.02,0.01c-0.09,0.05-0.2,0.13-0.33,0.22
				c-0.04,0.02-0.09,0.06-0.141,0.1c0,0,0,0-0.01,0c-0.26,0.2-0.53,0.43-0.649,0.62c0,0-0.471-0.1-1.07,0.69
				c0,0-0.01,0.01-0.021,0.02c-0.02,0.03-0.04,0.06-0.06,0.09c-0.01,0.02-0.03,0.03-0.04,0.05c-0.07,0.1-0.14,0.21-0.2,0.34
				c-0.01,0.01-0.02,0.03-0.03,0.05c-0.069,0.11-0.13,0.23-0.189,0.37c-0.01,0.01-0.021,0.02-0.021,0.04
				c-0.01,0.01-0.01,0.02-0.02,0.04c-0.01,0.01-0.021,0.03-0.021,0.05C24.01,23.99,24,24,24,24.02"/>
			<path d="M24.11,24.066c0.003-0.004,0.015-0.023,0.015-0.046h-0.25c0-0.041,0.014-0.072,0.027-0.093
				c0.007-0.021,0.017-0.042,0.029-0.061c0.002-0.007,0.005-0.014,0.009-0.021c0.008-0.028,0.021-0.049,0.033-0.063
				c0.062-0.143,0.122-0.261,0.19-0.368c0.008-0.016,0.018-0.033,0.029-0.05c0.07-0.148,0.15-0.268,0.204-0.345
				c0.005-0.012,0.023-0.031,0.035-0.042l0.099-0.134c0.486-0.642,0.916-0.727,1.096-0.73c0.118-0.16,0.322-0.35,0.637-0.591
				l0.043-0.026c0.047-0.037,0.088-0.067,0.128-0.087l0.06-0.043c0.098-0.068,0.183-0.127,0.255-0.169l0.015-0.017l0.097,0.09h0.114
				v0.05l-0.079,0.082c-0.083,0.045-0.165,0.103-0.259,0.168l-0.075,0.053c-0.042,0.022-0.086,0.057-0.126,0.088L26.39,21.74
				c-0.312,0.241-0.506,0.427-0.593,0.567l-0.047,0.074l-0.086-0.019c-0.001-0.001-0.408-0.064-0.944,0.644l-0.074,0.102
				c-0.008,0.016-0.026,0.035-0.038,0.046c-0.087,0.124-0.146,0.223-0.194,0.329l-0.024,0.036c-0.077,0.129-0.134,0.241-0.193,0.38
				l-0.034,0.066c-0.003,0.006-0.005,0.013-0.009,0.02L24.11,24.066z"/>
		</g>
		<g>
			<line fill="none" x1="23.83" y1="24.42" x2="23.82" y2="24.44"/>
		</g>
		<g>
			<path d="M22.868,32.441c-0.054,0-0.107-0.011-0.157-0.032c-0.234-0.098-0.346-0.388-0.371-0.969
				c-0.007-0.16-0.072-0.365-0.18-0.562c-0.079-0.157-0.163-0.288-0.238-0.4c-0.146-0.21-0.276-0.36-0.28-0.364l-0.092-0.105
				l0.042-0.134c0.479-1.527-0.08-1.722-0.085-1.724c-0.043-0.006-0.072-0.012-0.106-0.012l-0.115-0.017
				c-0.011-0.002-0.021-0.005-0.033-0.008c-0.11-0.015-0.219-0.031-0.319-0.047l-0.34-0.063l0.047-0.495l0.369,0.064
				c0.104,0.017,0.218,0.034,0.331,0.048l0.067,0.018c0.011,0,0.025,0.001,0.03,0.001s0.009,0,0.014,0.001
				c0.044,0.003,0.084,0.009,0.129,0.017c0.075,0.015,0.344,0.083,0.529,0.406c0.234,0.406,0.233,1.021-0.001,1.83
				c0.059,0.072,0.14,0.178,0.227,0.302c0.088,0.133,0.184,0.281,0.269,0.452c0.14,0.256,0.225,0.532,0.236,0.77
				c0.012,0.27,0.042,0.411,0.065,0.483c0.163-0.146,0.514-0.586,1.156-2.013l0,0c-0.007,0,0.095-0.546,0.379-1.285v-0.01
				l0.043-0.109c0.011-0.048,0.046-0.142,0.093-0.235c0.024-0.067,0.044-0.117,0.068-0.166l0.02-0.051
				c0.116-0.265,0.24-0.507,0.376-0.732v-0.026l0.075-0.092c0.147-0.258,0.321-0.513,0.505-0.745v-0.006l0.063-0.075
				c0.215-0.273,0.437-0.505,0.658-0.688c0.068-0.081,0.174-0.167,0.28-0.252c0.012-0.013,0.044-0.042,0.098-0.069
				c0.019-0.021,0.041-0.04,0.063-0.055c0.051-0.026,0.139-0.059,0.304-0.103c0.193-0.069,0.431-0.153,0.701-0.261l0.048-0.018
				c0.052-0.022,0.104-0.04,0.157-0.058c1.835-0.71,1.896-1.063,1.896-1.066c-0.055-0.048-0.283-0.213-1.204-0.308l-0.063-0.009
				c0.003,0.003-0.341,0.03-0.735-0.09c-0.054-0.007-0.138-0.035-0.218-0.076l0.223-0.447c0.037,0.019,0.074,0.031,0.11,0.037
				c0.335,0.101,0.604,0.079,0.604,0.078l0.033-0.003l0.083,0.012c0.8,0.082,1.291,0.23,1.514,0.454
				c0.129,0.134,0.177,0.297,0.14,0.463c-0.064,0.29-0.375,0.714-2.216,1.426c-0.061,0.02-0.109,0.036-0.159,0.061l-0.073,0.026
				c-0.26,0.103-0.486,0.183-0.648,0.24l-0.064,0.022c-0.13,0.035-0.202,0.061-0.208,0.063c0.006,0.011-0.017,0.029-0.039,0.044
				c-0.119,0.095-0.205,0.163-0.281,0.248c-0.201,0.169-0.381,0.354-0.557,0.57l-0.01,0.037l-0.073,0.073
				c-0.176,0.214-0.341,0.453-0.507,0.729v0.005l-0.037,0.061c-0.138,0.224-0.264,0.466-0.385,0.739l-0.034,0.081
				c-0.013,0.028-0.022,0.057-0.033,0.082l-0.027,0.068c-0.033,0.066-0.057,0.131-0.073,0.188l-0.027,0.081
				c-0.286,0.734-0.386,1.287-0.387,1.292c-0.54,1.219-0.969,1.95-1.291,2.234C23.134,32.38,22.998,32.441,22.868,32.441z"/>
		</g>
		<g>
			<path d="M26.65,21.65v-0.04c0-0.03,0-0.06-0.001-0.089l-0.109-0.115l0.063-0.071L26.6,21.28l0.055-0.001l0.059-0.065l0.063,0.063
				l0.089-0.002l0.221-0.078l0.023,0.061l0.131,0.138l-0.091,0.091c0.002,0.041,0.002,0.083,0.002,0.125L26.65,21.65z"/>
		</g>
		<g opacity="0.1">
			<g>
				<path d="M26.311,24.551c-0.13-0.061,0.042,0.122,0.132,0.113l0.091-0.02C26.533,24.645,26.412,24.597,26.311,24.551z"/>
			</g>
			<g>
				<path d="M26.746,24.1c-0.132-0.061,0.041,0.123,0.13,0.113l0.091-0.02C26.967,24.193,26.846,24.147,26.746,24.1z"/>
			</g>
			<g>
				<path d="M25.88,23.136c-0.132-0.06,0.041,0.124,0.13,0.114l0.09-0.02C26.1,23.23,25.979,23.183,25.88,23.136z"/>
			</g>
			<g>
				<path d="M25.662,24.968c-0.132-0.061,0.041,0.123,0.133,0.113l0.087-0.021C25.882,25.061,25.761,25.014,25.662,24.968z"/>
			</g>
			<g>
				<path d="M26.642,23.18c-0.131-0.061,0.042,0.125,0.132,0.114l0.09-0.021C26.863,23.273,26.741,23.227,26.642,23.18z"/>
			</g>
			<g>
				<path d="M25.141,25.417c-0.13-0.062,0.043,0.124,0.132,0.114l0.09-0.021C25.362,25.51,25.24,25.463,25.141,25.417z"/>
			</g>
			<g>
				<path d="M25.583,24.507c-0.131-0.061,0.041,0.124,0.131,0.114l0.09-0.021C25.804,24.601,25.683,24.553,25.583,24.507z"/>
			</g>
			<g>
				<path d="M25.47,24.046c-0.13-0.061,0.044,0.123,0.133,0.113l0.089-0.021C25.691,24.139,25.569,24.092,25.47,24.046z"/>
			</g>
			<g>
				<path d="M26.021,22.681c-0.131-0.063,0.044,0.122,0.133,0.112l0.088-0.021C26.242,22.772,26.123,22.727,26.021,22.681z"/>
			</g>
			<g>
				<path d="M26.339,23.602c-0.13-0.061,0.042,0.123,0.132,0.114l0.09-0.022C26.561,23.694,26.44,23.649,26.339,23.602z"/>
			</g>
			<g>
				<path d="M27.102,23.647c-0.133-0.061,0.041,0.124,0.133,0.115l0.087-0.021C27.321,23.741,27.2,23.694,27.102,23.647z"/>
			</g>
		</g>
		<g opacity="0.1">
			<g>
				<path d="M24.897,23.967c-0.132-0.061,0.04,0.122,0.132,0.113l0.089-0.02C25.118,24.06,24.997,24.013,24.897,23.967z"/>
			</g>
			<g>
				<path d="M25.331,23.515c-0.132-0.061,0.043,0.124,0.131,0.113l0.089-0.02C25.551,23.608,25.43,23.562,25.331,23.515z"/>
			</g>
			<g>
				<path d="M25.205,25.35c-0.131-0.062,0.042,0.123,0.132,0.113l0.087-0.021C25.424,25.441,25.305,25.395,25.205,25.35z"/>
			</g>
			<g>
				<path d="M24.987,27.182c-0.131-0.063,0.042,0.121,0.132,0.113l0.09-0.021C25.209,27.273,25.087,27.225,24.987,27.182z"/>
			</g>
			<g>
				<path d="M25.227,22.597c-0.132-0.061,0.042,0.123,0.132,0.113l0.089-0.021C25.447,22.688,25.326,22.642,25.227,22.597z"/>
			</g>
			<g>
				<path d="M24.469,27.629c-0.132-0.063,0.041,0.123,0.131,0.113l0.089-0.021C24.688,27.721,24.566,27.676,24.469,27.629z"/>
			</g>
			<g>
				<path d="M24.793,28.092c-0.131-0.059,0.041,0.127,0.132,0.115l0.087-0.021C25.012,28.186,24.891,28.141,24.793,28.092z"/>
			</g>
			<g>
				<path d="M24.598,28.549c-0.131-0.063,0.043,0.123,0.133,0.115l0.09-0.021C24.82,28.643,24.697,28.594,24.598,28.549z"/>
			</g>
			<g>
				<path d="M24.797,26.258c-0.131-0.059,0.042,0.125,0.132,0.115l0.089-0.021C25.018,26.352,24.897,26.307,24.797,26.258z"/>
			</g>
			<g>
				<path d="M25.349,24.892c-0.13-0.061,0.042,0.123,0.133,0.114l0.087-0.021C25.568,24.984,25.447,24.939,25.349,24.892z"/>
			</g>
			<g>
				<path d="M25.782,24.442c-0.132-0.061,0.042,0.123,0.132,0.114l0.09-0.022C26.004,24.534,25.882,24.489,25.782,24.442z"/>
			</g>
			<g>
				<path d="M24.925,23.018c-0.131-0.062,0.041,0.123,0.132,0.113l0.088-0.021C25.145,23.11,25.023,23.064,24.925,23.018z"/>
			</g>
			<g>
				<path d="M23.563,29.303c-0.132-0.061,0.042,0.123,0.132,0.113l0.089-0.02C23.783,29.396,23.661,29.35,23.563,29.303z"/>
			</g>
			<g>
				<path d="M25.686,23.064c-0.13-0.062,0.043,0.123,0.133,0.113l0.089-0.021C25.907,23.156,25.785,23.11,25.686,23.064z"/>
			</g>
		</g>
		<g>
			<path d="M23.017,32.53c-0.087,0-0.166-0.019-0.229-0.065c-0.055-0.041-0.119-0.12-0.112-0.268
				c0.003-0.091,0.06-0.131,0.083-0.145c0.063-0.032,0.132-0.015,0.176,0.014l-0.135,0.211c0.019,0.011,0.049,0.012,0.077-0.004
				c0.035-0.019,0.048-0.052,0.049-0.066c-0.001,0.02,0,0.049,0.012,0.058c0.023,0.019,0.115,0.047,0.449-0.07
				c0.026-0.009,0.046-0.016,0.056-0.019l0.064,0.242l-0.037,0.013C23.318,32.483,23.156,32.53,23.017,32.53z"/>
		</g>
		<g>
			<polygon points="21.75,27.493 21.81,27.25 21.72,27.488 21.641,27.474 21.76,26.987 21.869,27.007 			"/>
		</g>
		<g>
			<path fill="#FFFFFF" d="M21.55,27.58l-0.01,0.02c-0.04,0.08-0.09,0.17-0.14,0.29c-0.021,0.061-0.051,0.13-0.091,0.221
				c-0.01,0.06-0.029,0.13-0.06,0.199c-0.07,0.15-0.13,0.33-0.19,0.53c0,0,0.721,0.811,0.73,1.42c0.01,0.15,0.02,0.28,0.04,0.38
				c0.01,0.051,0.02,0.101,0.04,0.141c0.01,0.04,0.03,0.08,0.05,0.109c0.1,0.181,0.26,0.11,0.46-0.13
				c0.061-0.06,0.11-0.14,0.17-0.229c0.19-0.271,0.4-0.66,0.59-1.07c0.101-0.19,0.19-0.38,0.271-0.58c0,0,0.01-0.04,0.03-0.13v-0.01
				c0.029-0.141,0.09-0.38,0.18-0.681c0.27-0.819,0.81-2.1,1.81-3.069c0.021-0.01,0.04-0.03,0.061-0.04
				c0.149-0.15,0.31-0.29,0.479-0.41c0,0,0.011,0,0.03-0.01c0.27-0.07,2.01-0.57,2.71-1.3c0.24-0.25,0.35-0.53,0.24-0.83v-0.01
				c-0.01-0.05-0.04-0.1-0.07-0.15l-0.07,0.14"/>
			<path d="M22.061,31.241c-0.012,0-0.024,0-0.037-0.002c-0.077-0.007-0.222-0.047-0.322-0.229
				c-0.012-0.017-0.054-0.087-0.074-0.171c-0.017-0.018-0.031-0.093-0.042-0.153c-0.022-0.105-0.034-0.246-0.044-0.41
				c-0.008-0.437-0.485-1.064-0.668-1.271l-0.094-0.104l0.041-0.134c0.058-0.189,0.122-0.39,0.203-0.563
				c0.018-0.04,0.032-0.089,0.039-0.134l0.019-0.061c0.036-0.083,0.063-0.146,0.083-0.2c0.047-0.115,0.088-0.195,0.124-0.267
				l0.038-0.074l0.447,0.223l-0.041,0.08c-0.03,0.061-0.066,0.129-0.102,0.214c-0.015,0.046-0.043,0.112-0.081,0.199
				c-0.015,0.075-0.039,0.152-0.07,0.225c-0.053,0.112-0.098,0.237-0.141,0.374c0.213,0.261,0.692,0.91,0.701,1.473
				c0.009,0.125,0.017,0.243,0.035,0.333c0.005,0.027,0.013,0.066,0.018,0.078l0.012,0.023c0.022-0.021,0.05-0.051,0.083-0.091
				c0.052-0.052,0.089-0.108,0.132-0.175c0.196-0.281,0.398-0.647,0.594-1.069c0.102-0.195,0.188-0.377,0.265-0.568l0.019-0.093
				c0.029-0.15,0.092-0.396,0.185-0.706c0.3-0.914,0.867-2.201,1.875-3.178l0.063-0.044c0.004-0.003,0.008-0.007,0.013-0.011
				c0.162-0.161,0.328-0.302,0.494-0.419l0.065-0.046h0.06c0.617-0.173,2.015-0.645,2.579-1.233
				c0.256-0.267,0.229-0.454,0.186-0.572L28.7,22.404c0,0.021-0.021-0.012-0.034-0.034l0.057-0.034l-0.137-0.068l0.273-0.542
				l0.234,0.385c0.037,0.062,0.084,0.138,0.102,0.232c0.084,0.231,0.109,0.63-0.305,1.061c-0.769,0.801-2.583,1.303-2.808,1.363
				c-0.139,0.101-0.278,0.222-0.415,0.36l-0.07,0.049c-0.002,0.002-0.005,0.005-0.008,0.007c-0.926,0.905-1.453,2.105-1.732,2.955
				c-0.085,0.285-0.144,0.518-0.172,0.653l-0.032,0.148c-0.095,0.242-0.188,0.439-0.293,0.638c-0.201,0.437-0.419,0.831-0.606,1.097
				c-0.073,0.112-0.127,0.193-0.198,0.264C22.454,31.061,22.277,31.241,22.061,31.241z"/>
		</g>
		<g>
			<path fill="#FFFFFF" d="M22.28,23.91c0,0-0.011,0.01-0.011,0.02c-0.01,0.03-0.029,0.06-0.039,0.09
				c-0.15,0.33-0.271,0.51-0.54,0.66"/>
			<path d="M21.751,24.79l-0.121-0.219c0.243-0.136,0.347-0.296,0.487-0.603c0.001-0.007,0.011-0.028,0.021-0.048
				c0.002-0.005,0.005-0.009,0.007-0.014v-0.031l0.052-0.057l0.084,0.092l0.114,0.02l-0.006,0.039
				c-0.007,0.02-0.017,0.041-0.026,0.061c-0.005,0.01-0.01,0.02-0.013,0.029C22.188,24.416,22.053,24.621,21.751,24.79z"/>
		</g>
		<g>
			<path d="M21.715,30.931c-0.051,0-0.102-0.01-0.149-0.029c-0.239-0.099-0.351-0.39-0.375-0.971
				c-0.007-0.219-0.138-0.527-0.368-0.872c-0.086-0.144-0.17-0.25-0.233-0.329l-0.048-0.062c-0.019-0.028-0.033-0.046-0.038-0.051
				l-0.101-0.104l0.037-0.143c0.069-0.237,0.124-0.432,0.142-0.597c0.029-0.115,0.039-0.192,0.039-0.273l0.012-0.077
				c0.006-0.121,0.001-0.192-0.015-0.253l0.486-0.119c0.027,0.115,0.037,0.244,0.025,0.363c0.001,0.027,0.001,0.069-0.009,0.118
				c-0.003,0.115-0.019,0.225-0.049,0.334c-0.013,0.14-0.057,0.314-0.116,0.521c0.001,0.001,0.002,0.003,0.004,0.005
				c0.096,0.119,0.194,0.244,0.286,0.4c0.282,0.422,0.435,0.802,0.445,1.118c0.011,0.263,0.04,0.404,0.063,0.477
				c0.045-0.037,0.101-0.096,0.175-0.195c0.056-0.067,0.102-0.133,0.147-0.197c0.104-0.163,0.267-0.438,0.417-0.761
				c0.058-0.097,0.093-0.167,0.128-0.246c0.104-0.195,0.198-0.395,0.283-0.594c-0.001-0.001,0.004-0.024,0.009-0.055
				c0.035-0.174,0.135-0.674,0.386-1.294c0.063-0.174,0.114-0.304,0.178-0.429l0.035-0.089c0.177-0.403,0.408-0.822,0.688-1.244
				V25.11l0.122-0.005c0.341-0.459,0.693-0.827,1.076-1.121c0.02-0.026,0.045-0.051,0.078-0.073c0.035-0.033,0.071-0.06,0.107-0.086
				l0.12-0.073c0.007-0.002,0.689-0.221,1.412-0.514l0.055-0.018c0.229-0.092,0.465-0.193,0.674-0.302
				c0.523-0.262,0.785-0.476,0.865-0.6l0.017-0.04c0.004-0.003-0.119-0.201-1.27-0.32c0.01,0.001-0.277,0.019-0.617-0.066
				c-0.064-0.005-0.162-0.03-0.276-0.073l-0.124-0.03l-0.085-0.06c-0.193-0.112-0.337-0.231-0.451-0.375l0.393-0.31
				c0.071,0.089,0.165,0.168,0.296,0.245l0.094,0.01l0.048,0.049c0.076,0.029,0.141,0.046,0.193,0.052
				c0.31,0.075,0.535,0.059,0.535,0.059c1.046,0.104,1.544,0.278,1.712,0.582c0.067,0.123,0.076,0.262,0.026,0.398l-0.024,0.067
				c-0.128,0.266-0.499,0.553-1.104,0.856c-0.232,0.122-0.501,0.235-0.759,0.338l-0.054,0.018c-0.63,0.253-1.206,0.444-1.362,0.495
				l-0.019,0.014c-0.023,0.017-0.048,0.034-0.071,0.057l-0.061,0.044c-0.376,0.3-0.711,0.649-1.036,1.09v0.168l-0.115,0.004
				c-0.254,0.387-0.464,0.768-0.625,1.135l-0.029,0.079c-0.06,0.111-0.104,0.223-0.147,0.334c-0.01,0.05-0.028,0.088-0.039,0.108
				c-0.225,0.559-0.318,1.024-0.349,1.178c-0.011,0.066-0.024,0.116-0.024,0.116c-0.104,0.25-0.207,0.467-0.311,0.662
				c-0.037,0.085-0.082,0.175-0.139,0.265c-0.147,0.321-0.322,0.616-0.44,0.802c-0.061,0.087-0.116,0.162-0.17,0.227
				c-0.123,0.169-0.247,0.29-0.37,0.358C21.881,30.905,21.798,30.931,21.715,30.931z"/>
		</g>
		<g opacity="0.1">
			<g>
				<path d="M25.163,23.04c-0.129-0.061,0.043,0.123,0.133,0.114l0.09-0.02C25.386,23.133,25.265,23.086,25.163,23.04z"/>
			</g>
			<g>
				<path d="M25.598,22.589c-0.13-0.062,0.042,0.123,0.131,0.113l0.091-0.02C25.819,22.682,25.698,22.636,25.598,22.589z"/>
			</g>
			<g>
				<path d="M24.732,21.625c-0.132-0.061,0.041,0.124,0.131,0.113l0.09-0.02C24.953,21.718,24.832,21.672,24.732,21.625z"/>
			</g>
			<g>
				<path d="M24.515,23.457c-0.132-0.061,0.042,0.123,0.133,0.114l0.088-0.021C24.735,23.549,24.614,23.502,24.515,23.457z"/>
			</g>
			<g>
				<path d="M25.493,21.669c-0.13-0.061,0.044,0.124,0.134,0.114l0.089-0.021C25.716,21.762,25.595,21.716,25.493,21.669z"/>
			</g>
			<g>
				<path d="M23.993,23.906c-0.131-0.062,0.043,0.122,0.133,0.114l0.09-0.021C24.216,23.999,24.094,23.952,23.993,23.906z"/>
			</g>
			<g>
				<path d="M24.437,22.996c-0.132-0.061,0.04,0.124,0.13,0.114l0.09-0.021C24.656,23.089,24.535,23.042,24.437,22.996z"/>
			</g>
			<g>
				<path d="M24.464,27.93c-0.132-0.061,0.042,0.123,0.13,0.113l0.089-0.021C24.683,28.021,24.562,27.975,24.464,27.93z"/>
			</g>
			<g>
				<path d="M24.323,22.535c-0.131-0.061,0.044,0.123,0.132,0.114l0.09-0.021C24.545,22.627,24.423,22.581,24.323,22.535z"/>
			</g>
			<g>
				<path d="M24.876,21.169c-0.132-0.063,0.042,0.122,0.131,0.113l0.088-0.021C25.095,21.261,24.976,21.216,24.876,21.169z"/>
			</g>
			<g>
				<path d="M26.051,23.516c-0.132-0.061,0.04,0.123,0.132,0.113l0.088-0.021C26.271,23.607,26.149,23.561,26.051,23.516z"/>
			</g>
			<g>
				<path d="M25.191,22.091c-0.13-0.061,0.042,0.123,0.132,0.114l0.091-0.021C25.414,22.184,25.293,22.137,25.191,22.091z"/>
			</g>
			<g>
				<path d="M25.954,22.136c-0.131-0.061,0.042,0.124,0.132,0.115l0.088-0.022C26.174,22.229,26.053,22.184,25.954,22.136z"/>
			</g>
		</g>
		<g opacity="0.1">
			<g>
				<path d="M23.751,22.455c-0.132-0.061,0.039,0.123,0.13,0.114l0.09-0.02C23.971,22.549,23.85,22.501,23.751,22.455z"/>
			</g>
			<g>
				<path d="M24.184,22.003c-0.132-0.061,0.044,0.124,0.132,0.113l0.089-0.02C24.404,22.097,24.281,22.051,24.184,22.003z"/>
			</g>
			<g>
				<path d="M24.058,23.838c-0.131-0.062,0.043,0.123,0.132,0.113l0.089-0.02C24.278,23.931,24.158,23.883,24.058,23.838z"/>
			</g>
			<g>
				<path d="M23.84,25.67c-0.131-0.063,0.043,0.121,0.133,0.113l0.089-0.021C24.062,25.763,23.938,25.716,23.84,25.67z"/>
			</g>
			<g>
				<path d="M24.079,21.085c-0.13-0.061,0.042,0.123,0.132,0.113l0.089-0.021C24.3,21.177,24.179,21.131,24.079,21.085z"/>
			</g>
			<g>
				<path d="M23.321,26.119c-0.132-0.063,0.042,0.122,0.131,0.113l0.09-0.021C23.542,26.211,23.42,26.166,23.321,26.119z"/>
			</g>
			<g>
				<path d="M23.762,25.21c-0.131-0.062,0.043,0.123,0.132,0.112l0.089-0.021C23.982,25.301,23.861,25.256,23.762,25.21z"/>
			</g>
			<g>
				<path d="M23.646,26.583c-0.131-0.06,0.042,0.124,0.132,0.114l0.089-0.021C23.866,26.676,23.744,26.63,23.646,26.583z"/>
			</g>
			<g>
				<path d="M23.45,27.039c-0.131-0.063,0.043,0.121,0.133,0.113l0.089-0.021C23.672,27.131,23.549,27.084,23.45,27.039z"/>
			</g>
			<g>
				<path d="M23.649,24.747c-0.131-0.06,0.043,0.125,0.132,0.115l0.09-0.021C23.871,24.841,23.751,24.793,23.649,24.747z"/>
			</g>
			<g>
				<path d="M24.202,23.38c-0.131-0.061,0.041,0.123,0.131,0.114l0.089-0.022C24.422,23.473,24.3,23.428,24.202,23.38z"/>
			</g>
			<g>
				<path d="M24.635,22.931c-0.132-0.061,0.041,0.123,0.133,0.113l0.089-0.021C24.856,23.022,24.733,22.977,24.635,22.931z"/>
			</g>
			<g>
				<path d="M23.777,21.507c-0.131-0.062,0.041,0.123,0.132,0.112l0.088-0.021C23.997,21.599,23.876,21.552,23.777,21.507z"/>
			</g>
			<g>
				<path d="M22.416,27.793c-0.132-0.061,0.041,0.123,0.13,0.113l0.09-0.02C22.636,27.887,22.514,27.84,22.416,27.793z"/>
			</g>
			<g>
				<path d="M24.539,21.552c-0.131-0.061,0.043,0.124,0.132,0.114l0.09-0.021C24.761,21.645,24.638,21.599,24.539,21.552z"/>
			</g>
		</g>
		<g>
			<path d="M21.871,31.02c-0.088,0-0.167-0.019-0.23-0.065c-0.056-0.041-0.12-0.121-0.113-0.269c0.004-0.091,0.06-0.131,0.084-0.144
				c0.06-0.032,0.129-0.016,0.173,0.012l-0.131,0.213c0.017,0.011,0.048,0.011,0.075-0.004c0.034-0.018,0.048-0.05,0.049-0.066
				c-0.001,0.018,0,0.048,0.013,0.057c0.023,0.019,0.116,0.048,0.451-0.069c0.024-0.009,0.043-0.015,0.053-0.018l0.064,0.242
				l-0.035,0.012C22.173,30.973,22.012,31.02,21.871,31.02z"/>
		</g>
		<g>
			<path fill="none" d="M15.96,26.403c0.014-0.003,0.04-0.009,0.069,0"/>
		</g>
		<g>
			<path fill="#FFFFFF" d="M19.64,29.86L19.53,29.93l-0.07,0.051c0.72,0.279,1.23-0.271,1.57-1.061c0.01-0.02,0.02-0.05,0.029-0.08
				c0.07-0.17,0.141-0.35,0.19-0.53c0.03-0.069,0.05-0.14,0.06-0.199c0.03-0.08,0.04-0.15,0.061-0.23
				c0.11-0.399,0.18-0.8,0.24-1.149c0.069-0.45,0.1-0.8,0.12-0.931c0-0.03,0-0.05,0-0.05c0.289-0.59,0.659-1.12,1.069-1.59
				c0.78-0.88,1.71-1.53,2.46-1.97c0.03-0.02,0.05-0.03,0.07-0.04c0.41-0.24,0.77-0.42,1.01-0.53c0.01,0,0.01,0,0.01,0
				c0.07-0.03,0.131-0.06,0.181-0.08c0.01,0,0.01,0,0.01,0c0.04-0.01,0.06-0.03,0.08-0.03c0.05-0.02,0.07-0.03,0.07-0.03
				c0.06-0.04,0.119-0.08,0.189-0.12c1.3-0.9,2.48-1.89,2.101-2.19v-0.01c-0.051-0.04-0.131-0.07-0.24-0.08
				c-0.01,0-0.021-0.01-0.04,0"/>
			<path d="M19.829,30.304c-0.176,0-0.334-0.041-0.46-0.09l-0.429-0.167l0.565-0.397l0.067,0.107
				c0.203,0.074,0.728,0.227,1.228-0.936l0.027-0.077c0.067-0.16,0.134-0.33,0.181-0.501c0.032-0.079,0.047-0.128,0.054-0.173
				c0.029-0.091,0.037-0.13,0.046-0.171l0.02-0.082c0.108-0.392,0.176-0.783,0.236-1.13c0.043-0.279,0.071-0.523,0.091-0.696
				c0.012-0.103,0.021-0.181,0.028-0.23l0.022-0.121c0.28-0.572,0.652-1.125,1.105-1.645c0.665-0.75,1.513-1.429,2.521-2.021
				c0.03-0.02,0.058-0.034,0.086-0.048c0.46-0.27,0.835-0.45,1.018-0.534l0.255-0.103c0.013-0.006,0.028-0.013,0.047-0.018
				c0.082-0.046,0.145-0.087,0.218-0.129c1.522-1.055,1.994-1.621,2.043-1.798c-0.019-0.006-0.045-0.012-0.081-0.015l0.004-0.074
				l-0.014-0.011l0.02-0.112l-0.144-0.273l0.156-0.029c0.175,0.015,0.301,0.059,0.396,0.134l0.095,0.112
				c0.05,0.075,0.075,0.163,0.072,0.259c-0.006,0.182-0.021,0.667-2.28,2.23c-0.083,0.048-0.138,0.085-0.192,0.122
				c-0.028,0.016-0.055,0.03-0.119,0.055l-0.044,0.017c-0.018,0.008-0.039,0.016-0.064,0.022l-0.208,0.088
				c-0.187,0.087-0.522,0.252-0.938,0.496l-0.069,0.04c-0.964,0.565-1.771,1.211-2.399,1.92c-0.411,0.47-0.75,0.97-1.009,1.486
				l-0.001,0.026c-0.007,0.044-0.016,0.116-0.026,0.209c-0.02,0.178-0.049,0.429-0.094,0.721c-0.063,0.362-0.133,0.767-0.246,1.178
				l-0.015,0.062c-0.014,0.063-0.028,0.124-0.054,0.191c-0.001,0.037-0.027,0.127-0.063,0.21c-0.041,0.157-0.115,0.347-0.188,0.526
				c-0.008,0.024-0.023,0.068-0.037,0.096C20.816,30.049,20.268,30.304,19.829,30.304z"/>
		</g>
		<g>
			<path fill="none" d="M15.79,26.39c0,0,0,0,0.01,0c0-0.01,0.01-0.02,0.01-0.029c0,0,0,0,0-0.011c0.011,0,0.011,0,0.011,0"/>
		</g>
		<g>
			<path d="M22.64,17.163l-0.104-0.029l-0.142,0.006l0.005-0.043c0.012-0.043,0.041-0.151,0.115-0.218v-0.054l0.146-0.01
				l0.012,0.126l0.093,0.009v0.103l-0.095,0.019C22.674,17.075,22.657,17.099,22.64,17.163z"/>
		</g>
		<g>
			<path d="M19.733,30.255c-0.17,0-0.331-0.081-0.478-0.24c-0.255-0.279-0.412-0.658-0.55-0.993l-0.075-0.179
				c-0.124-0.289-0.24-0.581-0.354-0.874l-0.087-0.229c-0.206-0.559-0.346-0.881-0.812-1.006c-0.401-0.105-0.85-0.048-1.295-0.083
				c-0.162-0.012-0.309-0.053-0.451-0.092c-0.129-0.035-0.251-0.068-0.368-0.075c-0.067-0.001-0.075,0.003-0.104,0.007
				c-0.113,0.011-0.222,0.014-0.319-0.017l-0.204-0.063l0.031-0.211c0.046-0.318,0.109-0.681,0.287-0.946
				c0.078-0.116,0.164-0.224,0.249-0.332c0.166-0.209,0.322-0.406,0.4-0.642c0.056-0.188,0.077-0.321,0.099-0.446
				c0.049-0.288,0.099-0.585,0.376-0.941c0.621-0.796,1.426-1.28,2.204-1.747c0.225-0.135,0.451-0.271,0.677-0.417
				c0.49-0.315,0.856-0.68,1.09-1.084c0.102-0.175,0.179-0.367,0.243-0.604c0.011-0.042,0.018-0.13,0.027-0.229
				c0.042-0.421,0.072-0.604,0.199-0.709c0.271-0.224,0.988-0.914,1.049-1.418c0.041-0.343,0.11-0.917,0.516-0.917
				c0.215,0,0.363,0.185,0.456,0.324c0.177,0.266,0.27,0.571,0.359,0.866c0.032,0.104,0.063,0.206,0.097,0.303
				c0.115,0.326,0.272,0.771,0.589,0.958c0.303,0.177,0.764,0.041,1.188-0.114l0.145-0.052c0.021-0.009,0.087-0.04,0.168-0.078
				c0.465-0.218,0.548-0.247,0.632-0.247h0.074l0.068,0.042c0.661,0.435,1.364,0.667,1.882,0.593
				c0.147-0.021,0.303-0.043,0.455-0.043c0.329,0,0.56,0.101,0.687,0.3c0.333,0.52-0.278,1.094-0.539,1.339
				c-0.805,0.756-1.761,1.272-2.686,1.771c-1.021,0.551-1.984,1.072-2.77,1.882c-0.502,0.518-0.898,1.021-1.18,1.494
				c-0.316,0.535-0.417,1.225-0.514,1.893c-0.058,0.393-0.116,0.8-0.22,1.176l-0.023,0.085
				C20.688,29.246,20.337,30.255,19.733,30.255z M15.248,25.982c0.215,0.011,0.368,0.054,0.517,0.095
				c0.117,0.032,0.234,0.065,0.356,0.075c0.452,0.032,0.911-0.027,1.386,0.099c0.739,0.198,0.949,0.766,1.151,1.315l0.083,0.221
				c0.112,0.287,0.227,0.575,0.349,0.858l0.078,0.186c0.122,0.296,0.261,0.632,0.457,0.846c0.057,0.062,0.095,0.078,0.108,0.078
				c0.013,0,0.307-0.019,0.736-1.624l0.023-0.089c0.095-0.346,0.149-0.72,0.207-1.115c0.104-0.716,0.212-1.456,0.579-2.076
				c0.301-0.507,0.721-1.041,1.25-1.586c0.84-0.866,1.883-1.429,2.892-1.974c0.896-0.484,1.823-0.985,2.573-1.689
				c0.478-0.449,0.517-0.635,0.467-0.713c-0.053-0.083-0.414-0.064-0.618-0.035c-0.119,0.017-0.208,0.023-0.3,0.023
				c-0.749,0-1.5-0.402-1.864-0.629c-0.084,0.041-0.277,0.132-0.382,0.181c-0.105,0.049-0.189,0.088-0.214,0.097l-0.14,0.05
				c-0.5,0.181-1.152,0.347-1.612,0.075c-0.474-0.279-0.674-0.847-0.806-1.223c-0.037-0.104-0.07-0.212-0.104-0.323
				c-0.079-0.259-0.161-0.527-0.295-0.731c-0.02,0.077-0.041,0.194-0.063,0.371c-0.089,0.738-0.977,1.533-1.191,1.714
				c-0.023,0.083-0.043,0.288-0.055,0.402c-0.014,0.136-0.027,0.255-0.043,0.311c-0.075,0.275-0.171,0.512-0.292,0.723
				c-0.274,0.474-0.695,0.896-1.252,1.254c-0.23,0.148-0.462,0.287-0.691,0.425c-0.772,0.464-1.502,0.903-2.066,1.626
				c-0.2,0.256-0.232,0.449-0.277,0.717c-0.024,0.142-0.051,0.294-0.101,0.468c-0.123,0.373-0.314,0.614-0.499,0.847
				c-0.078,0.098-0.156,0.196-0.227,0.301c-0.077,0.115-0.127,0.289-0.159,0.451C15.223,25.983,15.235,25.982,15.248,25.982z"/>
		</g>
		<g opacity="0.1">
			<g>
				<path d="M19.859,24.939c-0.107-0.153,0.166,0.026,0.175,0.141l-0.006,0.12C20.028,25.2,19.94,25.055,19.859,24.939z"/>
			</g>
			<g>
				<path d="M19.383,25.596c-0.107-0.152,0.168,0.027,0.175,0.142l-0.005,0.119C19.553,25.856,19.466,25.712,19.383,25.596z"/>
			</g>
			<g>
				<path d="M17.955,24.714c-0.107-0.154,0.168,0.025,0.176,0.141l-0.005,0.119C18.126,24.974,18.037,24.829,17.955,24.714z"/>
			</g>
			<g>
				<path d="M20.241,24.015c-0.108-0.154,0.167,0.024,0.174,0.141l-0.005,0.118C20.41,24.274,20.322,24.131,20.241,24.015z"/>
			</g>
			<g>
				<path d="M18.187,25.676c-0.106-0.154,0.169,0.025,0.176,0.141l-0.007,0.119C18.355,25.936,18.27,25.791,18.187,25.676z"/>
			</g>
			<g>
				<path d="M20.694,23.248c-0.109-0.153,0.166,0.025,0.175,0.141l-0.007,0.119C20.862,23.508,20.776,23.364,20.694,23.248z"/>
			</g>
			<g>
				<path d="M19.636,24.021c-0.108-0.154,0.166,0.025,0.176,0.141l-0.007,0.119C19.805,24.28,19.717,24.136,19.636,24.021z"/>
			</g>
			<g>
				<path d="M21.361,23.555c-0.107-0.153,0.167,0.025,0.175,0.142l-0.005,0.119C21.531,23.815,21.442,23.67,21.361,23.555z"/>
			</g>
			<g>
				<path d="M25.935,22.92c-0.108-0.153,0.167,0.025,0.175,0.141l-0.007,0.119C26.103,23.18,26.016,23.036,25.935,22.92z"/>
			</g>
			<g>
				<path d="M19.022,23.983c-0.108-0.153,0.166,0.026,0.174,0.143l-0.006,0.118C19.19,24.244,19.104,24.1,19.022,23.983z"/>
			</g>
			<g>
				<path d="M17.406,25.002c-0.109-0.153,0.165,0.025,0.175,0.141l-0.007,0.119C17.574,25.262,17.489,25.117,17.406,25.002z"/>
			</g>
			<g>
				<path d="M20.67,25.96c-0.109-0.153,0.166,0.025,0.175,0.142l-0.007,0.119C20.838,26.221,20.751,26.075,20.67,25.96z"/>
			</g>
			<g>
				<path d="M18.655,25.193c-0.108-0.154,0.166,0.025,0.176,0.142l-0.006,0.118C18.825,25.453,18.737,25.31,18.655,25.193z"/>
			</g>
			<g>
				<path d="M26.359,22.009c-0.107-0.153,0.167,0.025,0.176,0.142l-0.006,0.118C26.529,22.27,26.44,22.125,26.359,22.009z"/>
			</g>
			<g>
				<path d="M18.889,26.154C18.78,26,19.057,26.18,19.064,26.297l-0.007,0.117C19.058,26.414,18.971,26.271,18.889,26.154z"/>
			</g>
		</g>
		<g opacity="0.1">
			<g>
				<path d="M18.788,23.27c-0.108-0.154,0.165,0.025,0.176,0.141l-0.006,0.119C18.958,23.53,18.87,23.386,18.788,23.27z"/>
			</g>
			<g>
				<path d="M18.312,23.927c-0.107-0.153,0.169,0.026,0.176,0.142l-0.005,0.119C18.482,24.187,18.395,24.042,18.312,23.927z"/>
			</g>
			<g>
				<path d="M20.623,23.345c-0.108-0.153,0.167,0.025,0.174,0.142l-0.005,0.118C20.792,23.605,20.704,23.461,20.623,23.345z"/>
			</g>
			<g>
				<path d="M22.909,22.647c-0.109-0.154,0.165,0.024,0.175,0.142l-0.007,0.118C23.077,22.906,22.99,22.762,22.909,22.647z"/>
			</g>
			<g>
				<path d="M17.117,24.005c-0.108-0.153,0.166,0.026,0.175,0.143l-0.007,0.118C17.285,24.266,17.199,24.122,17.117,24.005z"/>
			</g>
			<g>
				<path d="M23.361,21.88c-0.109-0.153,0.165,0.025,0.175,0.142l-0.007,0.119C23.529,22.14,23.442,21.996,23.361,21.88z"/>
			</g>
			<g>
				<path d="M22.303,22.652c-0.107-0.154,0.167,0.025,0.176,0.141l-0.007,0.12C22.472,22.913,22.385,22.768,22.303,22.652z"/>
			</g>
			<g>
				<path d="M24.028,22.187c-0.107-0.154,0.168,0.025,0.176,0.141l-0.007,0.119C24.197,22.447,24.109,22.302,24.028,22.187z"/>
			</g>
			<g>
				<path d="M24.564,21.834c-0.107-0.153,0.167,0.026,0.174,0.142l-0.006,0.119C24.732,22.095,24.646,21.95,24.564,21.834z"/>
			</g>
			<g>
				<path d="M21.688,22.615c-0.106-0.153,0.168,0.026,0.176,0.142l-0.007,0.119C21.857,22.875,21.771,22.731,21.688,22.615z"/>
			</g>
			<g>
				<path d="M20.072,23.633c-0.109-0.153,0.166,0.026,0.176,0.142l-0.007,0.119C20.241,23.894,20.155,23.749,20.072,23.633z"/>
			</g>
			<g>
				<path d="M19.598,24.29c-0.107-0.153,0.168,0.025,0.175,0.142l-0.006,0.119C19.767,24.55,19.679,24.406,19.598,24.29z"/>
			</g>
			<g>
				<path d="M17.585,23.523c-0.107-0.153,0.167,0.026,0.175,0.143l-0.007,0.118C17.753,23.784,17.667,23.64,17.585,23.523z"/>
			</g>
			<g>
				<path d="M25.289,20.339c-0.108-0.154,0.166,0.025,0.175,0.142l-0.006,0.118C25.458,20.599,25.37,20.456,25.289,20.339z"/>
			</g>
			<g>
				<path d="M17.818,24.485c-0.107-0.154,0.167,0.025,0.175,0.141l-0.006,0.118C17.987,24.745,17.9,24.601,17.818,24.485z"/>
			</g>
		</g>
		<g>
			<path d="M28.965,19.716l-0.168-0.071l0.009-0.117l0.038,0.004l-0.029-0.012c0.029-0.096,0.073-0.559-0.039-0.679
				c-0.011-0.011-0.033-0.03-0.092-0.017c0.009-0.002,0.034-0.02,0.044-0.053c0.009-0.03,0-0.053-0.004-0.058l-0.186,0.167
				c-0.038-0.042-0.071-0.111-0.049-0.183c0.011-0.034,0.043-0.095,0.139-0.117c0.159-0.037,0.297,0.019,0.379,0.155
				c0.154,0.258,0.08,0.84,0.018,0.912L28.965,19.716z"/>
		</g>
	</g>
	<g>
		<path fill="#FFFFFF" d="M21.419,21.469c-3.72-3.65-7.949-7.78-12.109-11.76c0,0,4.43,5.37,11.27,12.55
			C20.579,22.259,21.432,22.368,21.419,21.469z"/>
		<path d="M20.663,22.513c-0.071,0-0.115-0.006-0.115-0.006l-0.087-0.012l-0.063-0.064C13.631,15.327,9.161,9.922,9.117,9.869
			l0.365-0.34c4.419,4.228,8.794,8.506,12.111,11.762l0.073,0.072l0.002,0.103c0.005,0.324-0.086,0.583-0.269,0.768
			C21.16,22.477,20.836,22.513,20.663,22.513z M12.938,13.548c1.929,2.193,4.586,5.141,7.751,8.465
			c0.087-0.003,0.251-0.024,0.355-0.13c0.069-0.07,0.109-0.175,0.121-0.311C18.824,19.273,15.965,16.475,12.938,13.548z"/>
	</g>
</g>
</svg>
