<?xml version="1.0" encoding="utf-8"?>
<!-- Generator: Adobe Illustrator 16.0.0, SVG Export Plug-In . SVG Version: 6.00 Build 0)  -->
<!DOCTYPE svg PUBLIC "-//W3C//DTD SVG 1.1//EN" "http://www.w3.org/Graphics/SVG/1.1/DTD/svg11.dtd">
<svg version="1.1" id="Layer_1" xmlns="http://www.w3.org/2000/svg" xmlns:xlink="http://www.w3.org/1999/xlink" x="0px" y="0px"
	 width="50px" height="50px" viewBox="0 0 50 50" enable-background="new 0 0 50 50" xml:space="preserve">
<g>
	<path d="M26.172,35.043c-2.468,0-4.685-0.345-6.591-1.026c-1.011-0.362-2.075-0.496-3.202-0.637
		c-1.385-0.174-2.816-0.354-4.193-0.984c-0.705-0.323-1.455-0.551-2.182-0.771c-1.484-0.449-3.02-0.914-4.25-2.195l-0.299-0.309
		c-0.88-0.902-1.711-1.755-2.061-3.226c-0.299-1.257-0.387-2.701-0.265-4.412c0.282-4.043,2.457-6.1,6.649-6.286
		c0.492-0.022,0.935-0.043,1.38-0.043c0.739,0,1.838,0.049,2.836,0.468l1.4,0.591c1.721,0.728,3.207,1.356,5.101,2.051
		c2.524,0.926,5.297,1.274,7.979,1.612c1.311,0.164,2.667,0.334,3.981,0.57c0.754,0.136,1.427,0.396,2.079,0.646
		c0.697,0.27,1.357,0.523,2.071,0.611c0.426,0.052,0.854,0.084,1.279,0.116c1.291,0.097,2.627,0.197,3.923,0.821
		c0.213,0.104,0.433,0.204,0.655,0.307c1.213,0.556,2.587,1.188,3.478,2.389c0.624,0.839,1.156,2.297,0.938,3.658
		c-0.134,0.837-0.539,1.515-1.174,1.962c-0.878,0.617-1.922,1.016-2.842,1.367l-0.102,0.038c-1.664,0.635-3.152,0.786-4.592,0.933
		c-1.083,0.11-2.202,0.224-3.411,0.548C32.716,34.391,29.566,35.043,26.172,35.043z M11.159,16.761c-0.421,0-0.838,0.02-1.237,0.037
		c-3.436,0.153-4.966,1.587-5.191,4.799c-0.108,1.546-0.035,2.83,0.227,3.927C5.203,26.563,5.792,27.166,6.605,28l0.308,0.317
		c0.939,0.979,2.152,1.346,3.556,1.771c0.778,0.236,1.582,0.479,2.386,0.848c1.153,0.528,2.402,0.685,3.725,0.852
		c1.163,0.146,2.366,0.297,3.543,0.718c1.732,0.619,3.768,0.933,6.05,0.933c3.221,0,6.222-0.623,8.172-1.146
		c1.333-0.358,2.519-0.479,3.664-0.594c1.398-0.143,2.718-0.277,4.182-0.837l0.103-0.038c0.873-0.333,1.776-0.677,2.49-1.18
		c0.279-0.196,0.446-0.492,0.513-0.902c0.136-0.847-0.229-1.893-0.643-2.448c-0.645-0.87-1.77-1.387-2.857-1.886
		c-0.232-0.106-0.461-0.212-0.683-0.318c-1.021-0.493-2.15-0.578-3.346-0.668c-0.451-0.034-0.904-0.068-1.354-0.124
		c-0.912-0.111-1.695-0.414-2.454-0.705c-0.608-0.235-1.182-0.456-1.785-0.564c-1.273-0.229-2.607-0.396-3.898-0.559
		c-2.77-0.349-5.635-0.709-8.33-1.697c-1.931-0.708-3.435-1.344-5.174-2.081l-1.396-0.588
		C12.816,16.869,12.113,16.761,11.159,16.761z"/>
</g>
</svg>
